<svg width="20" height="20" viewBox="0 0 20 20" fill="none" xmlns="http://www.w3.org/2000/svg">
<path d="M18.2953 10.9853V10.2277C18.635 10.325 19.0123 10.4717 19.0123 10.4717C19.851 10.4717 20.2303 9.86433 19.855 9.12199L19.3243 8.072C19.5866 7.88333 19.6563 7.54133 19.4576 7.14833L18.8423 5.93133C19.1333 5.81667 19.2356 5.52167 19.06 5.17434L18.277 3.62567C18.0526 3.18034 17.6853 3.18034 17.4603 3.62567L16.677 5.17434C16.5016 5.52134 16.6036 5.817 16.895 5.93133L16.2796 7.14833C16.081 7.54166 16.1513 7.88333 16.4126 8.072L15.8823 9.12199C15.507 9.86433 15.8863 10.4717 16.7246 10.4717C16.7246 10.4717 17.1026 10.325 17.442 10.2277V10.8723C16.8411 10.7609 16.2525 10.5914 15.6843 10.3663C14.917 10.0613 13.628 9.55199 12.4986 9.54399C12.4903 9.54399 8.30632 5.51334 8.30632 5.51334L3.30266 0.916344L0 2.96201V10.5127C1.06 10.904 3.60399 11.46 5.94999 11.46C7.21965 11.46 8.46632 11.2947 9.65565 10.9677C9.95198 10.886 10.242 10.779 10.5493 10.666C11.1683 10.4377 11.8086 10.202 12.4746 10.202H12.496C13.5196 10.209 14.7376 10.693 15.4646 10.9817C16.032 11.2073 16.6886 11.415 17.4433 11.5333V12.8347H18.2953V11.6167C18.8233 11.6453 19.3876 11.6317 20 11.5457V10.9433C19.435 11.02 18.8633 11.034 18.2953 10.9853ZM4.96099 4.14434V5.05434L4.06499 4.56734L3.03833 5.108L2.72866 4.15134L1.332 4.671L1.69766 3.62034L0.754999 3.29134L3.26033 1.71701L6.06799 4.36L4.96099 4.14434Z" fill="#EE6A19"/>
<path d="M6.66634 2.63279H8.84534C8.96363 2.83365 9.1324 3.00008 9.33489 3.11556C9.53739 3.23105 9.76656 3.29157 9.99967 3.29112H11.333C12.068 3.29112 12.6663 2.70079 12.6663 1.97479C12.6663 1.24912 12.068 0.658457 11.333 0.658457H11.154C11.0357 0.457596 10.8669 0.291164 10.6644 0.17568C10.4619 0.0601961 10.2328 -0.000324683 9.99967 0.000124553H6.66634C5.93134 0.000124553 5.33301 0.59079 5.33301 1.31646C5.33301 2.04245 5.93134 2.63279 6.66634 2.63279ZM6.66634 0.658457H9.99967C10.3677 0.658457 10.6663 0.953123 10.6663 1.31679H11.333C11.701 1.31679 11.9997 1.61146 11.9997 1.97512C11.9997 2.33879 11.701 2.63345 11.333 2.63345H9.99967C9.63167 2.63345 9.333 2.33879 9.333 1.97512H6.66634C6.29834 1.97512 5.99967 1.68045 5.99967 1.31679C5.99967 0.953123 6.29834 0.658457 6.66634 0.658457Z" fill="#EE6A19"/>
<path d="M9.99998 4.60762C9.99998 5.33362 10.5983 5.92396 11.3333 5.92396H12.6666C13.4016 5.92396 14 5.33362 14 4.60762C14 4.37862 13.9353 4.16729 13.831 3.97963C14.0672 4.17173 14.3621 4.27713 14.6666 4.27829H16C16.735 4.27829 17.3333 3.68796 17.3333 2.96196C17.3333 2.2363 16.735 1.64563 16 1.64563H14.6666C13.9316 1.64563 13.3333 2.2363 13.3333 2.96196C13.3333 3.19063 13.398 3.40263 13.5023 3.59029C13.2662 3.39795 12.9712 3.29242 12.6666 3.29129H11.3333C10.5983 3.29129 9.99998 3.88229 9.99998 4.60762ZM14.6666 2.30396H16C16.368 2.30396 16.6666 2.59863 16.6666 2.96229C16.6666 3.32596 16.368 3.62063 16 3.62063H14.6666C14.2986 3.62063 14 3.32596 14 2.96229C14 2.59863 14.2986 2.30396 14.6666 2.30396ZM11.3333 3.94963H12.6666C13.0346 3.94963 13.3333 4.24429 13.3333 4.60796C13.3333 4.97162 13.0346 5.26629 12.6666 5.26629H11.3333C10.9653 5.26629 10.6666 4.97162 10.6666 4.60796C10.6666 4.24429 10.9653 3.94963 11.3333 3.94963ZM5.62499 13.1643C5.50639 13.1661 5.38873 13.1857 5.27599 13.2226C5.03432 12.4256 4.32566 11.8479 3.48933 11.8479C3.06555 11.8491 2.65565 11.9992 2.33133 12.2719C2.16166 12.0159 1.88166 11.8479 1.56233 11.8479C1.044 11.8479 0.624666 12.2896 0.624666 12.8353C0.624666 12.9986 0.665999 13.1499 0.731999 13.2856C0.301 13.4933 0 13.9489 0 14.4809C0 15.2076 0.559666 15.7969 1.25033 15.7969C1.65166 15.7969 2.00466 15.5943 2.23333 15.2849C2.56566 15.6019 3.00533 15.7969 3.48933 15.7969C3.93054 15.7959 4.35623 15.634 4.68666 15.3416C4.91599 15.6183 5.24932 15.7969 5.62499 15.7969C6.31532 15.7969 6.87499 15.2073 6.87499 14.4806C6.87499 13.7539 6.31532 13.1643 5.62499 13.1643ZM9.56932 11.6009L7.13165 16.3529L7.55765 18.5243L11.957 20.0003L17.1573 19.0979L17.6536 16.3769L15.3283 11.6009H9.56932ZM8.46165 18.3059L7.99332 18.1489L7.65499 16.4249L9.51298 12.8039C9.06165 14.5696 8.14165 17.2726 8.14165 17.2726L8.46165 18.3059ZM11.754 19.4106L10.457 18.9756L10.8306 17.5229C10.3266 16.4066 9.96998 13.9099 9.81265 12.6333L10.6803 14.5016L11.9366 17.2059L11.754 19.4106ZM16.727 18.6716L12.2526 19.4479L12.4243 17.3783L12.6776 17.3419L17.086 16.7059L16.727 18.6716ZM12.6133 16.8523L12.3406 16.8913L11.0356 14.0816L10.1126 12.0946H15.014L17.0206 16.2159L12.6133 16.8523Z" fill="#EE6A19"/>
</svg>
