<svg width="16" height="17" viewBox="0 0 16 17" fill="none" xmlns="http://www.w3.org/2000/svg">
<path id="Vector" d="M0 14.1002C0 15.4602 1.04 16.5002 2.4 16.5002H13.6C14.96 16.5002 16 15.4602 16 14.1002V7.70018H0V14.1002ZM13.6 2.10018H12V1.30018C12 0.820183 11.68 0.500183 11.2 0.500183C10.72 0.500183 10.4 0.820183 10.4 1.30018V2.10018H5.6V1.30018C5.6 0.820183 5.28 0.500183 4.8 0.500183C4.32 0.500183 4 0.820183 4 1.30018V2.10018H2.4C1.04 2.10018 0 3.14018 0 4.50018V6.10018H16V4.50018C16 3.14018 14.96 2.10018 13.6 2.10018Z" fill="#EE6A19"/>
</svg>
