<svg width="18" height="18" viewBox="0 0 18 18" fill="none" xmlns="http://www.w3.org/2000/svg">
<path id="Vector" d="M16.2364 12.2748L13.6912 11.9842C13.392 11.9491 13.0886 11.9822 12.804 12.0812C12.5194 12.1801 12.2609 12.3422 12.0479 12.5554L10.2042 14.3991C7.35968 12.9524 5.04761 10.6403 3.60092 7.79579L5.45465 5.94205C5.88552 5.51118 6.09594 4.90997 6.0258 4.29874L5.73522 1.77364C5.67841 1.28483 5.44382 0.833981 5.07613 0.506933C4.70843 0.179884 4.2333 -0.000522398 3.7412 6.24527e-05H2.00771C0.875436 6.24527e-05 -0.0664603 0.941963 0.00368089 2.07425C0.53475 10.6315 7.37853 17.4653 15.9257 17.9964C17.058 18.0665 17.9999 17.1246 17.9999 15.9923V14.2588C18.0099 13.2468 17.2484 12.3951 16.2364 12.2748Z" fill="#F2F3F5"/>
</svg>
