<svg width="18" height="14" viewBox="0 0 18 14" fill="none" xmlns="http://www.w3.org/2000/svg">
<path id="Vector" d="M8.88641 0.00548472C6.78992 -0.025364 3.87766 0.0197365 3.27807 1.63397L1.80492 5.09842C1.73959 5.02351 1.6539 4.96928 1.55832 4.94237L0.965212 4.77514C0.899994 4.7566 0.831766 4.75116 0.764444 4.75912C0.697122 4.76708 0.632032 4.78829 0.57291 4.82153C0.513788 4.85477 0.461798 4.89938 0.419925 4.95281C0.378051 5.00624 0.347119 5.06743 0.328903 5.13287L0.0194782 6.23405C0.0010128 6.2994 -0.0043963 6.36776 0.00356124 6.43521C0.0115188 6.50266 0.0326863 6.56787 0.0658496 6.62711C0.0990128 6.68634 0.143519 6.73843 0.196815 6.78038C0.250111 6.82234 0.311148 6.85333 0.376424 6.87159L0.969712 7.039C0.989513 7.04441 1.00931 7.04622 1.02911 7.04946C0.915712 7.3327 0.845151 7.64407 0.845151 7.82934V11.8559C0.845151 12.0623 0.931552 12.1579 1.06871 12.2027V13.2753C1.0685 13.3705 1.08706 13.4649 1.12332 13.5529C1.15958 13.6409 1.21283 13.7209 1.28002 13.7882C1.34721 13.8556 1.427 13.9089 1.51483 13.9453C1.60265 13.9816 1.69677 14.0002 1.79178 14H3.73167C3.82669 14.0002 3.92081 13.9816 4.00863 13.9453C4.09646 13.9089 4.17625 13.8556 4.24344 13.7882C4.31062 13.7209 4.36388 13.6409 4.40014 13.5529C4.4364 13.4649 4.45496 13.3705 4.45474 13.2753V12.242H13.5454V13.2753C13.5453 13.3706 13.5639 13.4649 13.6001 13.5529C13.6364 13.6409 13.6897 13.7209 13.7569 13.7882C13.8241 13.8555 13.9039 13.9089 13.9917 13.9452C14.0795 13.9816 14.1737 14.0002 14.2687 14H16.2082C16.3032 14.0002 16.3974 13.9816 16.4852 13.9453C16.5731 13.9089 16.6529 13.8556 16.7201 13.7882C16.7873 13.7209 16.8406 13.6409 16.8769 13.5529C16.9132 13.4649 16.9318 13.3706 16.9316 13.2753V12.2028C17.069 12.1581 17.1548 12.0625 17.1548 11.8561V7.82952C17.1548 7.64425 17.0841 7.33288 16.9709 7.04965C16.9907 7.04658 17.0105 7.04477 17.0303 7.03918L17.6237 6.87177C17.689 6.85349 17.75 6.82248 17.8033 6.78052C17.8566 6.73856 17.9011 6.68647 17.9342 6.62724C17.9674 6.56801 17.9885 6.5028 17.9964 6.43536C18.0044 6.36792 17.999 6.29957 17.9805 6.23423L17.6714 5.13305C17.6532 5.06761 17.6223 5.00641 17.5804 4.95298C17.5385 4.89955 17.4865 4.85494 17.4273 4.8217C17.3682 4.78846 17.3031 4.76726 17.2358 4.7593C17.1684 4.75134 17.1002 4.75678 17.035 4.77532L16.4418 4.94255C16.3463 4.96957 16.2606 5.02378 16.1951 5.0986L14.7219 1.63416C14.0793 -0.00461751 10.9827 0.036514 8.88623 0.00566519L8.88641 0.00548472ZM14.8908 5.31724C14.9257 5.42116 14.8213 5.49043 14.712 5.49674C14.712 5.49674 14.3549 5.52705 13.8624 5.56692C13.4876 4.68945 12.6168 4.07103 11.6079 4.07103C10.5007 4.07103 9.5607 4.81609 9.2592 5.83067C9.17568 5.83175 9.07865 5.83536 9.00107 5.83536C7.09358 5.83536 3.28797 5.49674 3.28797 5.49674C3.17889 5.49025 3.0743 5.42098 3.10922 5.31724C4.57481 0.839484 4.61855 1.17611 8.91899 1.2232C13.2193 1.2701 13.2443 0.950251 14.8908 5.31724ZM11.6079 4.91729C11.8734 4.91637 12.1349 4.9817 12.369 5.1074C12.603 5.23309 12.8021 5.41519 12.9484 5.63728C12.087 5.70132 11.0958 5.76681 10.172 5.80487C10.3049 5.53743 10.5098 5.31259 10.7636 5.15574C11.0173 4.9989 11.3098 4.9163 11.6079 4.91729ZM1.69314 6.37043C1.7061 6.38973 1.7187 6.40904 1.7331 6.42762H1.6773L1.69314 6.37043ZM2.64608 7.49506C3.02336 7.48892 5.04875 8.17211 5.04875 8.17211C5.30166 8.24355 5.52432 8.72269 5.52306 8.98608C5.51928 9.87312 3.23541 9.56517 2.30821 9.56878C2.24591 9.5689 2.18419 9.55669 2.1266 9.53285C2.06902 9.50902 2.01669 9.47402 1.97263 9.42988C1.92856 9.38573 1.89362 9.3333 1.86982 9.2756C1.84602 9.21789 1.83381 9.15604 1.83391 9.0936V7.9706C1.83391 7.70721 2.26879 7.50155 2.64608 7.49506ZM15.3539 7.49506C15.7312 7.50137 16.1661 7.70721 16.1661 7.9706V9.0936C16.1662 9.15606 16.154 9.21793 16.1302 9.27565C16.1064 9.33338 16.0715 9.38583 16.0274 9.43C15.9834 9.47416 15.931 9.50917 15.8734 9.53302C15.8158 9.55686 15.7541 9.56908 15.6918 9.56896C14.7648 9.56535 12.4807 9.87312 12.4769 8.98608C12.4757 8.72269 12.6983 8.24355 12.9512 8.17211C12.9512 8.17211 14.9766 7.48892 15.3539 7.49506Z" fill="#EE6A19"/>
</svg>
