<svg width="58" height="19" viewBox="0 0 58 19" fill="none" xmlns="http://www.w3.org/2000/svg">
<g id="Group 18">
<path id="Vector" d="M42.7091 15.9143C42.5371 16.0368 42.3733 16.1749 42.189 16.2749C42.1087 16.3184 41.9861 16.285 41.8826 16.285C35.2523 16.2851 28.622 16.2856 21.9917 16.283C21.7349 16.2829 21.4783 16.2415 21.2215 16.2405C21.0302 16.2398 20.9711 16.1578 20.9682 15.9783C20.9554 15.1836 20.9735 14.3853 20.9015 13.5956C20.8583 13.1222 20.7763 12.5886 20.5189 12.2149C20.2059 11.7602 19.9427 11.2669 19.5082 10.8651C18.6927 10.1112 17.7596 9.7368 16.6995 9.72545C15.935 9.71727 15.1663 9.85297 14.5135 10.3525C14.1898 10.6001 13.7788 10.7254 13.5894 11.1456C13.5263 11.2855 13.3047 11.3468 13.2149 11.4832C12.6559 12.332 12.3329 13.2585 12.3489 14.2881C12.3547 14.6604 12.3536 15.033 12.3469 15.4052C12.3416 15.7034 12.1726 15.8961 11.8723 15.9025C11.221 15.9162 10.5691 15.9132 9.91774 15.8996C9.82244 15.8976 9.66717 15.8186 9.64482 15.7438C9.48259 15.2007 8.99768 14.9327 8.6555 14.5459C8.49448 14.3639 8.27891 14.2285 8.12714 14.0405C8.0449 13.9386 8.01455 13.7709 8.01259 13.6321C8.0015 12.8462 7.99715 12.0599 8.01175 11.2741C8.01529 11.0839 8.07038 10.9141 8.31169 10.8109C8.54626 10.7105 8.74066 10.4943 8.92058 10.2993C8.99021 10.2238 8.98986 10.067 8.99039 9.94714C8.99536 8.8197 8.99383 7.69222 8.99357 6.56476C8.99353 6.39123 8.96007 6.20737 9.17592 6.11924C9.207 6.10655 9.22407 6.05479 9.24341 6.01884C9.39787 5.73163 9.5446 5.43995 9.70894 5.15854C9.76223 5.06729 9.87164 5.01057 9.93635 4.92385C10.0528 4.76776 10.1549 4.60095 10.2846 4.43444C10.3061 4.43027 10.3257 4.42382 10.3257 4.42382L10.3215 4.40244C10.4652 4.22495 10.6056 4.04462 10.7535 3.87068C10.9474 3.64273 11.1461 3.41883 11.3447 3.19497C11.7208 2.77104 12.0793 2.32908 12.4817 1.93173C12.7678 1.64924 12.7985 1.32257 12.5081 1.05174C12.4235 0.972893 12.3656 0.83311 12.3598 0.718001C12.3574 0.671207 12.5224 0.580727 12.6182 0.569725C13.4057 0.479207 14.1932 0.372492 14.984 0.328924C16.2306 0.260238 17.4797 0.237419 18.7277 0.194003C19.2429 0.176083 19.7578 0.142704 20.273 0.137611C22.8371 0.112266 25.4013 0.0976162 27.9654 0.0714566C28.9879 0.0610253 30.0106 0.045088 31.0322 0.00596209C32.517 -0.050902 33.9218 0.305025 35.293 0.81587C36.2788 1.18311 37.2541 1.58126 38.2199 1.99826C39.0463 2.35502 39.7835 2.8821 40.576 3.3051C40.8799 3.4673 41.1923 3.61355 41.5007 3.76737C41.5186 3.77628 41.5355 3.78736 41.5523 3.79824C41.7907 3.95232 42.029 4.10655 42.2718 4.28049C42.2762 4.30023 42.2752 4.29473 42.2752 4.29473C42.3339 4.32408 42.3927 4.35342 42.457 4.4036C42.4625 4.42444 42.4615 4.41897 42.4615 4.41897C42.6413 4.543 42.8198 4.66889 43.0013 4.79025C43.0851 4.84626 43.1748 4.89343 43.2658 4.96399C43.2698 4.98337 43.2689 4.97798 43.2689 4.97798C43.4079 5.06713 43.5805 5.12912 43.679 5.251C43.8929 5.51552 44.1825 5.55201 44.4798 5.59569C46.2533 5.85628 48.03 6.09707 49.7991 6.3843C51.5349 6.66612 53.2226 7.14483 54.8519 7.80736C55.2377 7.96423 55.5682 8.25184 55.9404 8.44865C56.3996 8.69147 56.6878 9.09485 57.0314 9.45865C57.2742 9.71573 57.4514 9.98552 57.6103 10.3058C57.6167 10.3229 57.6178 10.3218 57.6178 10.3218C57.6822 10.5138 57.7432 10.707 57.8116 10.8976C58.0233 11.4871 58.0757 12.082 57.8708 12.6838C57.8384 12.779 57.7871 12.8719 57.7269 12.9525C57.6392 13.0699 57.4635 13.1686 57.4526 13.2869C57.4256 13.5808 57.4629 13.8821 57.4953 14.1782C57.5002 14.2225 57.6173 14.2563 57.6843 14.2915C57.7766 14.34 57.9477 14.3827 57.9493 14.4321C57.9534 14.5648 57.9208 14.7291 57.8389 14.8279C57.645 15.0616 57.4319 15.2881 57.1908 15.4703C57.0652 15.5652 56.8643 15.594 56.697 15.5948C55.0434 15.6034 53.3896 15.605 51.736 15.5967C51.229 15.5942 51.2352 15.5685 51.216 15.069C51.1898 14.3912 51.1696 13.7106 51.0888 13.0382C51.0232 12.4916 50.7686 12.0076 50.4023 11.5853C50.1917 11.3424 50.0428 11.034 49.8017 10.8321C49.2722 10.3886 48.7023 10.0046 47.9994 9.85671C46.9785 9.64197 45.9949 9.69735 45.0572 10.1796C44.9024 10.2592 44.7717 10.3856 44.6069 10.4872C44.5839 10.4839 44.5685 10.4921 44.5685 10.4921L44.5758 10.5078C44.3221 10.6802 44.0567 10.8306 43.8856 11.1082C43.7599 11.3123 43.5828 11.4847 43.4095 11.6756C43.3905 11.6799 43.3724 11.6858 43.3724 11.6858L43.3763 11.7059C43.3529 11.7825 43.3529 11.8833 43.3025 11.9321C42.8231 12.397 42.7231 13.0173 42.6807 13.6224C42.6283 14.3691 42.6799 15.1231 42.6981 15.8962C42.7095 15.9185 42.7091 15.9143 42.7091 15.9143Z" fill="#3B3B3B"/>
<path id="Vector_2" d="M18.9922 17.5252C18.9417 17.5627 18.8913 17.6003 18.8227 17.6431C18.8047 17.6483 18.8059 17.6494 18.8059 17.6494C18.2138 17.9186 17.6157 18.1705 16.9544 18.2063C16.2862 18.2424 15.6455 18.1351 15.025 17.8698C14.2837 17.5529 13.6779 17.1043 13.2652 16.3883C12.8047 15.5892 12.5744 14.74 12.7081 13.8362C12.7936 13.2583 13.0179 12.7009 13.1999 12.1296C13.2198 12.1249 13.2143 12.1259 13.2143 12.1259C13.2443 12.0687 13.2744 12.0115 13.3266 11.9491C13.3486 11.9439 13.3685 11.9374 13.3685 11.9374L13.3641 11.9158C13.5237 11.7032 13.6449 11.4384 13.8498 11.2872C14.6048 10.7306 15.4216 10.305 16.3916 10.2545C17.1619 10.2144 17.8745 10.3767 18.5685 10.7157C18.9262 10.8904 19.2318 11.1293 19.5482 11.3531C19.7241 11.4775 19.8297 11.7015 19.9627 11.9039C19.9584 11.9272 19.9681 11.9447 19.9681 11.9447L19.9866 11.9371C20.024 11.9874 20.0615 12.0377 20.1044 12.1058C20.1099 12.1235 20.1109 12.1223 20.1109 12.1223C20.2757 12.6096 20.477 13.0881 20.5963 13.5863C20.7536 14.2432 20.6083 14.8895 20.4448 15.5373C20.2778 16.1988 19.9154 16.7055 19.4077 17.1333C19.2707 17.2488 19.1479 17.3812 19.0048 17.5149C18.991 17.5241 18.9922 17.5252 18.9922 17.5252ZM15.2593 16.2391C15.4025 16.3428 15.5314 16.4871 15.6913 16.5433C16.6097 16.8657 17.4838 16.8637 18.227 16.1175C18.5809 15.7622 18.965 15.3853 19.0654 14.9021C19.2655 13.9397 19.1107 13.0368 18.3076 12.3415C17.7715 11.8772 17.1591 11.6352 16.4552 11.7002C15.4128 11.7963 14.7484 12.4434 14.3101 13.3274C14.0706 13.8104 14.0452 14.3684 14.2479 14.8699C14.4555 15.3833 14.6942 15.9056 15.1963 16.2275L15.2028 16.2474C15.2028 16.2474 15.2246 16.243 15.2593 16.2391Z" fill="#3B3B3B"/>
<path id="Vector_3" d="M43.5821 16.4692C42.9995 15.4208 42.7717 14.3202 43.1068 13.1425C43.1973 12.8241 43.3135 12.5131 43.4394 12.193C43.4607 12.1872 43.4554 12.188 43.4554 12.188C43.6914 11.8854 43.8811 11.5258 44.1716 11.2903C45.3416 10.3417 46.9212 9.8397 48.6492 10.618C48.7936 10.683 48.9474 10.727 49.1015 10.8007C49.1062 10.8205 49.1051 10.815 49.1051 10.815C49.1639 10.8443 49.2227 10.8737 49.287 10.9239C49.2925 10.9447 49.2915 10.9392 49.2915 10.9392C49.3545 10.9847 49.4225 11.0246 49.4795 11.0766C49.654 11.2359 49.8497 11.3804 49.9917 11.5655C50.5071 12.2376 50.8265 12.9926 50.9136 13.844C51.0051 14.7393 50.7398 15.5608 50.3933 16.3584C50.3038 16.5645 50.0822 16.7149 49.9153 16.8851C49.6887 17.1162 49.4564 17.3416 49.2039 17.5648C49.1812 17.5601 49.1645 17.5671 49.1645 17.5671L49.1713 17.5834C48.5488 17.8832 47.9211 18.163 47.2162 18.2097C46.577 18.2521 45.9677 18.1269 45.3467 17.9035C45.3211 17.8977 45.3159 17.8915 45.3159 17.8915C45.0804 17.7721 44.8183 17.6862 44.6157 17.5253C44.3231 17.2929 44.072 17.0078 43.8069 16.7414C43.7316 16.6657 43.6695 16.5767 43.5922 16.481C43.5831 16.4682 43.5821 16.4692 43.5821 16.4692ZM48.4802 16.1842L48.4966 16.1753C48.4966 16.1753 48.4892 16.1581 48.5053 16.1221C48.899 15.9334 49.0521 15.5164 49.2347 15.1896C49.4289 14.8422 49.4611 14.361 49.4339 13.9468C49.4117 13.6078 49.1982 13.2814 49.0749 12.9382L49.0651 12.9206C49.0651 12.9206 49.0463 12.9281 49.0108 12.9129C48.8916 12.6761 48.7923 12.4229 48.4965 12.3424C48.4671 12.3344 48.4502 12.28 48.4345 12.2393L48.4278 12.2189C48.4278 12.2189 48.4057 12.2234 48.3742 12.2147C47.8027 11.7242 47.1385 11.5961 46.4231 11.7626C45.9384 11.8753 45.4844 12.0678 45.1953 12.5186C45.0847 12.6911 44.9481 12.8466 44.8329 13.0164C44.7228 13.179 44.5813 13.3375 44.5294 13.5195C44.2731 14.4167 44.4901 15.2028 45.1026 15.9067C45.6426 16.5273 46.3096 16.7607 47.1147 16.7275C47.6423 16.7057 48.0763 16.5064 48.4802 16.1842Z" fill="#3B3B3B"/>
<path id="Vector_4" d="M1.31794 9.76277C0.832612 9.71785 0.788689 9.66247 0.703125 8.96229C0.909794 8.91902 1.12258 8.83662 1.33571 8.83569C3.50726 8.82618 5.67888 8.82544 7.85039 8.83849C8.02408 8.83954 8.25629 8.91275 8.35817 9.03699C8.57832 9.30546 8.37331 9.69642 8.01535 9.75279C7.91407 9.76873 7.80903 9.76347 7.70571 9.76348C5.58584 9.76377 3.46596 9.76342 1.31794 9.76277Z" fill="#3B3B3B"/>
<path id="Vector_5" d="M3.54492 3.2004C3.63768 2.77347 3.73178 2.68503 4.12127 2.68441C6.02239 2.68137 7.92352 2.68023 9.8246 2.6884C9.96955 2.68902 10.1579 2.72598 10.247 2.82055C10.3419 2.92126 10.401 3.12525 10.3679 3.25714C10.3352 3.38779 10.1799 3.50156 10.0551 3.58964C9.99017 3.63542 9.87487 3.61544 9.78234 3.6155C7.91222 3.61663 6.0421 3.61659 4.17197 3.61609C3.8823 3.61602 3.61131 3.58301 3.54492 3.2004Z" fill="#3B3B3B"/>
<path id="Vector_6" d="M7.25073 6.47297C5.99058 6.47295 4.76061 6.473 3.53065 6.47276C3.43764 6.47274 3.34432 6.47519 3.25167 6.46879C2.88472 6.44343 2.65159 6.15428 2.80639 5.82657C2.87518 5.68093 3.14572 5.58443 3.33855 5.55429C3.63133 5.50853 3.93618 5.539 4.2359 5.5389C5.29016 5.53852 6.34443 5.53572 7.39865 5.54263C7.5489 5.54361 7.73596 5.54754 7.83934 5.63184C7.96265 5.73238 8.0706 5.91653 8.08297 6.07256C8.09986 6.28562 7.93441 6.42961 7.71424 6.45945C7.57181 6.47875 7.4255 6.46945 7.25073 6.47297Z" fill="#3B3B3B"/>
</g>
</svg>
