<svg width="22" height="16" viewBox="0 0 22 16" fill="none" xmlns="http://www.w3.org/2000/svg">
<path id="Vector" d="M20.6 0.000244141H1.4C1.0287 0.000244141 0.672602 0.151526 0.410051 0.420809C0.1475 0.690092 0 1.05532 0 1.43614V14.5643C0 14.9452 0.1475 15.3104 0.410051 15.5797C0.672602 15.849 1.0287 16.0002 1.4 16.0002H20.6C20.9713 16.0002 21.3274 15.849 21.5899 15.5797C21.8525 15.3104 22 14.9452 22 14.5643V1.43614C22 1.05532 21.8525 0.690092 21.5899 0.420809C21.3274 0.151526 20.9713 0.000244141 20.6 0.000244141ZM1.4 1.23101H20.6C20.653 1.23101 20.7039 1.25262 20.7414 1.29109C20.7789 1.32956 20.8 1.38174 20.8 1.43614V4.10281H1.2V1.43614C1.2 1.38174 1.22107 1.32956 1.25858 1.29109C1.29609 1.25262 1.34696 1.23101 1.4 1.23101ZM20.6 14.7695H1.4C1.34696 14.7695 1.29609 14.7479 1.25858 14.7094C1.22107 14.6709 1.2 14.6188 1.2 14.5643V5.33358H20.8V14.5643C20.8 14.6188 20.7789 14.6709 20.7414 14.7094C20.7039 14.7479 20.653 14.7695 20.6 14.7695ZM18.8 12.1028C18.8 12.266 18.7368 12.4225 18.6243 12.538C18.5117 12.6534 18.3591 12.7182 18.2 12.7182H15C14.8409 12.7182 14.6883 12.6534 14.5757 12.538C14.4632 12.4225 14.4 12.266 14.4 12.1028C14.4 11.9396 14.4632 11.7831 14.5757 11.6677C14.6883 11.5523 14.8409 11.4874 15 11.4874H18.2C18.3591 11.4874 18.5117 11.5523 18.6243 11.6677C18.7368 11.7831 18.8 11.9396 18.8 12.1028ZM12.4 12.1028C12.4 12.266 12.3368 12.4225 12.2243 12.538C12.1117 12.6534 11.9591 12.7182 11.8 12.7182H10.2C10.0409 12.7182 9.88826 12.6534 9.77574 12.538C9.66321 12.4225 9.6 12.266 9.6 12.1028C9.6 11.9396 9.66321 11.7831 9.77574 11.6677C9.88826 11.5523 10.0409 11.4874 10.2 11.4874H11.8C11.9591 11.4874 12.1117 11.5523 12.2243 11.6677C12.3368 11.7831 12.4 11.9396 12.4 12.1028Z" fill="#EE6A19"/>
</svg>
