<svg width="21" height="20" viewBox="0 0 21 20" fill="none" xmlns="http://www.w3.org/2000/svg">
<path id="Vector" d="M10.5026 3.05176e-05C9.21359 3.05176e-05 7.93718 0.258688 6.74628 0.761235C5.55537 1.26378 4.47329 2.00038 3.56181 2.92896C1.72099 4.80433 0.686829 7.34787 0.686829 10C0.686829 12.6522 1.72099 15.1957 3.56181 17.0711C4.47329 17.9997 5.55537 18.7363 6.74628 19.2388C7.93718 19.7414 9.21359 20 10.5026 20C13.1059 20 15.6026 18.9465 17.4434 17.0711C19.2842 15.1957 20.3184 12.6522 20.3184 10C20.3184 8.68681 20.0645 7.38645 19.5712 6.1732C19.0779 4.95994 18.3549 3.85755 17.4434 2.92896C16.5319 2.00038 15.4499 1.26378 14.259 0.761235C13.0681 0.258688 11.7916 3.05176e-05 10.5026 3.05176e-05ZM14.6253 14.2L9.52104 11V5.00003H10.9934V10.2L15.4105 12.9L14.6253 14.2Z" fill="#3B3B3B"/>
</svg>
