<svg width="16" height="15" viewBox="0 0 16 15" fill="none" xmlns="http://www.w3.org/2000/svg">
<path id="Vector" d="M15.0325 5.34834C14.9676 5.15186 14.8453 4.97848 14.6809 4.84979C14.5165 4.7211 14.3172 4.64278 14.1079 4.62459L10.1317 4.28772L8.57316 0.645317C8.49201 0.454193 8.35514 0.290937 8.17977 0.176105C8.00441 0.0612735 7.79839 0 7.58766 0C7.37693 0 7.17091 0.0612735 6.99555 0.176105C6.82018 0.290937 6.68331 0.454193 6.60216 0.645317L5.04826 4.28772L1.06743 4.62657C0.857236 4.64392 0.656931 4.72189 0.491639 4.85067C0.326347 4.97946 0.203425 5.15334 0.138288 5.35051C0.0731514 5.54768 0.0686992 5.75936 0.12549 5.95901C0.182281 6.15866 0.297787 6.33738 0.457523 6.47277L3.47762 9.06641L2.57246 12.918C2.5246 13.1196 2.53826 13.3305 2.61173 13.5245C2.6852 13.7185 2.81522 13.8869 2.98554 14.0086C3.15586 14.1304 3.35891 14.2001 3.56932 14.209C3.77973 14.218 3.98816 14.1658 4.16854 14.0589L7.58297 12.0193L11.0048 14.0589C11.1851 14.1658 11.3936 14.218 11.604 14.209C11.8144 14.2001 12.0175 14.1304 12.1878 14.0086C12.3581 13.8869 12.4881 13.7185 12.5616 13.5245C12.6351 13.3305 12.6487 13.1196 12.6008 12.918L11.6964 9.06246L14.7158 6.47277C14.8755 6.33691 14.9908 6.15768 15.0471 5.95761C15.1035 5.75754 15.0984 5.54556 15.0325 5.34834ZM14.0135 5.67731L10.9941 8.267C10.8471 8.39262 10.7378 8.55525 10.6779 8.73737C10.6179 8.9195 10.6097 9.11424 10.654 9.30064L11.5611 13.1588L8.142 11.1192C7.97519 11.0194 7.78364 10.9666 7.58833 10.9666C7.39302 10.9666 7.20147 11.0194 7.03466 11.1192L3.62022 13.1588L4.52137 9.30327C4.56565 9.11687 4.55739 8.92213 4.49746 8.74C4.43754 8.55788 4.32822 8.39525 4.18126 8.26963L1.16049 5.68126C1.16025 5.67929 1.16025 5.6773 1.16049 5.67534L5.13998 5.33715C5.33427 5.32032 5.5202 5.25168 5.6777 5.13863C5.83521 5.02558 5.95832 4.87241 6.03376 4.69565L7.58766 1.05785L9.14089 4.69565C9.21633 4.87241 9.33944 5.02558 9.49695 5.13863C9.65445 5.25168 9.84038 5.32032 10.0347 5.33715L14.0148 5.67534V5.67994L14.0135 5.67731Z" fill="#FFAE4E"/>
</svg>
