<svg width="42" height="37" viewBox="0 0 42 37" fill="none" xmlns="http://www.w3.org/2000/svg">
<g id="Group 42">
<rect id="Rectangle 18" width="42" height="37" rx="8" fill="#E9EDF3"/>
<path id="Vector" d="M21 17.5C20.337 17.5 19.7011 17.2366 19.2322 16.7678C18.7634 16.2989 18.5 15.663 18.5 15C18.5 14.337 18.7634 13.7011 19.2322 13.2322C19.7011 12.7634 20.337 12.5 21 12.5C21.663 12.5 22.2989 12.7634 22.7678 13.2322C23.2366 13.7011 23.5 14.337 23.5 15C23.5 15.3283 23.4353 15.6534 23.3097 15.9567C23.1841 16.26 22.9999 16.5356 22.7678 16.7678C22.5356 16.9999 22.26 17.1841 21.9567 17.3097C21.6534 17.4353 21.3283 17.5 21 17.5ZM21 8C19.1435 8 17.363 8.7375 16.0503 10.0503C14.7375 11.363 14 13.1435 14 15C14 20.25 21 28 21 28C21 28 28 20.25 28 15C28 13.1435 27.2625 11.363 25.9497 10.0503C24.637 8.7375 22.8565 8 21 8Z" fill="#3B3B3B"/>
</g>
</svg>
