<svg width="18" height="18" viewBox="0 0 18 18" fill="none" xmlns="http://www.w3.org/2000/svg">
<path id="Vector" d="M18 12.9439C17.9996 14.1239 17.5789 15.2683 16.8075 16.1878C16.0362 17.1072 14.9604 17.7466 13.7583 18L13.1841 16.3486C13.7099 16.2656 14.21 16.0717 14.6482 15.7811C15.0865 15.4905 15.452 15.1102 15.7185 14.6678H13.5C13.0226 14.6678 12.5648 14.486 12.2272 14.1624C11.8896 13.8388 11.7 13.3999 11.7 12.9422V9.49094C11.7 9.03328 11.8896 8.59436 12.2272 8.27074C12.5648 7.94712 13.0226 7.76532 13.5 7.76532H16.1442C15.9246 6.09741 15.0776 4.56365 13.7623 3.45183C12.4469 2.34002 10.7536 1.72655 9 1.72655C7.2464 1.72655 5.55306 2.34002 4.23772 3.45183C2.92237 4.56365 2.07543 6.09741 1.8558 7.76532H4.5C4.97739 7.76532 5.43523 7.94712 5.77279 8.27074C6.11036 8.59436 6.3 9.03328 6.3 9.49094V12.9422C6.3 13.3999 6.11036 13.8388 5.77279 14.1624C5.43523 14.486 4.97739 14.6678 4.5 14.6678H1.8C1.32261 14.6678 0.864773 14.486 0.527208 14.1624C0.189642 13.8388 0 13.3999 0 12.9422V8.62813C0 3.86281 4.0293 0 9 0C13.9707 0 18 3.86281 18 8.62813V12.9439Z" fill="#EE6A19"/>
</svg>
