<svg width="40" height="40" viewBox="0 0 40 40" fill="none" xmlns="http://www.w3.org/2000/svg">
<g id="Group 950">
<circle id="Ellipse 27" cx="20" cy="20" r="20" fill="#F2F3F5"/>
<path id="Vector" d="M19.7812 10.15C19.668 10.0532 19.524 10 19.375 10C19.226 10 19.082 10.0532 18.9688 10.15L10 17.8375V26.875C10 27.3723 10.1975 27.8492 10.5492 28.2008C10.9008 28.5525 11.3777 28.75 11.875 28.75H16.875C17.0408 28.75 17.1997 28.6842 17.3169 28.5669C17.4342 28.4497 17.5 28.2908 17.5 28.125V24.375C17.5 23.8777 17.6975 23.4008 18.0492 23.0492C18.4008 22.6976 18.8777 22.5 19.375 22.5C19.8723 22.5 20.3492 22.6976 20.7008 23.0492C21.0525 23.4008 21.25 23.8777 21.25 24.375V28.125C21.25 28.2908 21.3158 28.4497 21.4331 28.5669C21.5503 28.6842 21.7092 28.75 21.875 28.75H26.875C27.3723 28.75 27.8492 28.5525 28.2008 28.2008C28.5525 27.8492 28.75 27.3723 28.75 26.875V17.8375L19.7812 10.15Z" fill="#3B3B3B"/>
</g>
</svg>
