<svg width="18" height="18" viewBox="0 0 18 18" fill="none" xmlns="http://www.w3.org/2000/svg">
<path id="Vector" fill-rule="evenodd" clip-rule="evenodd" d="M12.3239 1.94143H16.6326C17.2754 1.94143 17.8086 2.44029 17.9709 3.11529C18.0141 3.29786 18.0205 3.45086 17.9104 3.6135C17.8579 3.69238 17.7867 3.75709 17.7031 3.80184C17.6195 3.84659 17.5261 3.87001 17.4312 3.87H17.3797V18H0.634224V3.87H0.569818C0.472764 3.86989 0.37731 3.84532 0.292305 3.79857C0.2073 3.75182 0.135498 3.6844 0.0835552 3.60257C-0.0259344 3.43286 -0.0117652 3.26829 0.035251 3.08057C0.198197 2.42293 0.724392 1.94143 1.35557 1.94143H5.66431C5.99788 1.35295 6.48179 0.863241 7.06671 0.522201C7.65163 0.18116 8.31667 0.000974412 8.99408 0C9.67148 0.000974412 10.3365 0.18116 10.9214 0.522201C11.5064 0.863241 11.9903 1.35295 12.3239 1.94143ZM5.14262 17.7557C5.14262 17.5371 5.32296 17.3571 5.54258 17.3571H5.78668V3.87H5.14262V17.7557ZM12.4713 17.3571H12.2272V3.87H12.8713V17.7557C12.8713 17.5371 12.691 17.3571 12.4713 17.3571ZM9.00052 0.642857H9.00374C9.00267 0.642857 9.00159 0.642857 9.00052 0.642857ZM2.56639 12.411V13.9429C2.56639 14.0522 2.47623 14.1429 2.3603 14.1429H1.47794C1.36845 14.1429 1.27828 14.0529 1.27828 13.9436V12.411C1.27828 12.3017 1.36845 12.2117 1.47794 12.2117H2.36674C2.47623 12.2117 2.56639 12.3017 2.56639 12.411ZM4.49856 12.411V13.9429C4.49856 14.0522 4.4084 14.1429 4.29247 14.1429H3.41011C3.30062 14.1429 3.21045 14.0529 3.21045 13.9436V12.411C3.21045 12.3017 3.30062 12.2117 3.41011 12.2117H4.29891C4.4084 12.2117 4.49856 12.3017 4.49856 12.411ZM2.56639 9.19157V10.7241C2.56639 10.8334 2.47623 10.9234 2.3603 10.9234H1.47794C1.36845 10.9234 1.27828 10.8334 1.27828 10.7241V9.19157C1.27828 9.08229 1.36845 8.99229 1.47794 8.99229H2.36674C2.47623 8.99229 2.56639 9.08229 2.56639 9.19157ZM4.49856 9.19157V10.7241C4.49856 10.8334 4.4084 10.9234 4.29247 10.9234H3.41011C3.30062 10.9234 3.21045 10.8334 3.21045 10.7241V9.19157C3.21045 9.08229 3.30062 8.99229 3.41011 8.99229H4.29891C4.4084 8.99229 4.49856 9.08229 4.49856 9.19157ZM2.56639 5.98564V7.51757C2.56639 7.62686 2.47623 7.71686 2.3603 7.71686H1.47794C1.36845 7.71686 1.27828 7.62686 1.27828 7.51757V5.985C1.27828 5.87571 1.36845 5.78571 1.47794 5.78571H2.36674C2.47623 5.78571 2.56639 5.87636 2.56639 5.98564ZM4.49856 5.98564V7.51757C4.49856 7.62686 4.4084 7.71686 4.29247 7.71686H3.41011C3.30062 7.71686 3.21045 7.62686 3.21045 7.51757V5.985C3.21045 5.87571 3.30062 5.78571 3.41011 5.78571H4.29891C4.4084 5.78571 4.49856 5.87636 4.49856 5.98564ZM14.7996 12.411V13.9429C14.7996 14.0522 14.7094 14.1429 14.5999 14.1429H13.715C13.6621 14.1427 13.6113 14.1217 13.5738 14.0843C13.5363 14.047 13.5151 13.9964 13.5147 13.9436V12.411C13.5147 12.3017 13.6049 12.2117 13.7144 12.2117H14.5987C14.7081 12.2117 14.7996 12.3017 14.7996 12.411ZM16.7356 12.411V13.9429C16.7356 14.0522 16.6455 14.1429 16.536 14.1429H15.6517C15.5987 14.1427 15.548 14.1217 15.5105 14.0843C15.473 14.047 15.4517 13.9964 15.4514 13.9436V12.411C15.4514 12.3017 15.5416 12.2117 15.651 12.2117H16.5353C16.6448 12.2117 16.7356 12.3017 16.7356 12.411ZM14.7996 9.19157V10.7241C14.7996 10.8334 14.7094 10.9234 14.5999 10.9234H13.715C13.6621 10.9233 13.6113 10.9022 13.5738 10.8649C13.5363 10.8276 13.5151 10.777 13.5147 10.7241V9.19157C13.5147 9.08229 13.6049 8.99229 13.7144 8.99229H14.5987C14.7081 8.99229 14.7996 9.08229 14.7996 9.19157ZM16.7356 9.19157V10.7241C16.7356 10.8334 16.6455 10.9234 16.536 10.9234H15.6517C15.5987 10.9233 15.548 10.9022 15.5105 10.8649C15.473 10.8276 15.4517 10.777 15.4514 10.7241V9.19157C15.4514 9.08229 15.5416 8.99229 15.651 8.99229H16.5353C16.6448 8.99229 16.7356 9.08229 16.7356 9.19157ZM14.7996 5.98564V7.51757C14.7996 7.62686 14.7094 7.71686 14.5999 7.71686H13.715C13.6621 7.71669 13.6113 7.69566 13.5738 7.65834C13.5363 7.62102 13.5151 7.57043 13.5147 7.51757V5.985C13.5147 5.87571 13.6049 5.78571 13.7144 5.78571H14.5987C14.7081 5.78571 14.799 5.87571 14.799 5.985L14.7996 5.98564ZM16.7356 5.98564V7.51757C16.7356 7.62686 16.6455 7.71686 16.536 7.71686H15.6517C15.5987 7.71669 15.548 7.69566 15.5105 7.65834C15.473 7.62102 15.4517 7.57043 15.4514 7.51757V5.985C15.4514 5.87571 15.5416 5.78571 15.651 5.78571H16.5353C16.6448 5.78571 16.7356 5.87636 16.7356 5.98564ZM8.3629 7.27071V8.80071C8.3629 8.91 8.27273 9 8.16196 9H7.27574C7.22266 9 7.17175 8.97905 7.1341 8.94171C7.09645 8.90437 7.07513 8.85369 7.07479 8.80071V7.27071C7.07479 7.16143 7.16496 7.07143 7.27574 7.07143H8.16196C8.27209 7.07143 8.3629 7.16143 8.3629 7.27071ZM8.45114 16.0714H7.30858C7.27755 16.0713 7.24685 16.065 7.21827 16.0529C7.18968 16.0408 7.16378 16.0232 7.14204 16.0011C7.12031 15.979 7.10317 15.9528 7.09163 15.9241C7.08009 15.8953 7.07436 15.8645 7.07479 15.8336V12.8584H8.68493V15.8342C8.68493 15.9692 8.57737 16.0714 8.45114 16.0714ZM9.32899 12.2156V12.2143H8.68493V12.2156H7.07479V12.2143H6.40111C6.36283 12.2146 6.32486 12.2074 6.2894 12.193C6.25394 12.1786 6.22169 12.1574 6.1945 12.1305C6.16732 12.1036 6.14574 12.0716 6.13101 12.0363C6.11628 12.001 6.1087 11.9632 6.10871 11.925C6.10871 11.8736 6.12803 11.8286 6.14735 11.79C6.15121 11.7861 6.15314 11.7849 6.15379 11.7829V11.7771C6.44769 11.2813 6.86601 10.8706 7.36747 10.5854C7.86894 10.3001 8.43623 10.1503 9.0134 10.1507C9.59057 10.1503 10.1579 10.3001 10.6593 10.5854C11.1608 10.8706 11.5791 11.2813 11.873 11.7771C11.8762 11.7804 11.8762 11.7849 11.8762 11.79C11.8762 11.7951 11.8762 11.7996 11.8795 11.8029C11.8988 11.835 11.9052 11.88 11.9052 11.925C11.9052 11.9632 11.8976 12.001 11.8829 12.0363C11.8682 12.0716 11.8466 12.1036 11.8194 12.1305C11.7922 12.1574 11.76 12.1786 11.7245 12.193C11.6891 12.2074 11.6511 12.2146 11.6128 12.2143H10.9391V12.2156H9.32899ZM9.32899 12.8584V15.8342C9.32899 15.9692 9.43655 16.0714 9.56278 16.0714H10.7053C10.8316 16.0714 10.9391 15.9686 10.9391 15.8336V12.8584H9.32899ZM10.9391 8.80071V7.27071C10.9391 7.16143 10.849 7.07143 10.7382 7.07143H9.85196C9.79894 7.0716 9.74812 7.0926 9.71051 7.1299C9.6729 7.16721 9.65152 7.2178 9.65102 7.27071V8.80071C9.65102 8.91 9.74118 9 9.85196 9H10.7382C10.8483 9 10.9391 8.91 10.9391 8.80071ZM9.98013 2.57143H9.96725C9.88377 2.57177 9.80383 2.60511 9.74493 2.66414C9.68602 2.72318 9.65295 2.80311 9.65295 2.88643V3.85714H8.36162V2.88643C8.36162 2.80289 8.32837 2.72276 8.26918 2.66369C8.21 2.60462 8.12973 2.57143 8.04603 2.57143H8.03315C7.94967 2.57177 7.86973 2.60511 7.81082 2.66414C7.75192 2.72318 7.71885 2.80311 7.71885 2.88643V5.47071C7.71885 5.64429 7.86054 5.78571 8.03379 5.78571H8.04667C8.13026 5.78554 8.21036 5.75228 8.26941 5.69323C8.32845 5.63417 8.36162 5.55415 8.36162 5.47071V4.50643H9.65295V5.47071C9.65295 5.64429 9.794 5.78571 9.96725 5.78571H9.98013C10.0637 5.78554 10.1438 5.75228 10.2029 5.69323C10.2619 5.63417 10.2951 5.55415 10.2951 5.47071V2.88643C10.2951 2.803 10.2619 2.72297 10.2029 2.66392C10.1438 2.60486 10.0637 2.5716 9.98013 2.57143Z" fill="#EE6A19"/>
</svg>
