<svg width="19" height="15" viewBox="0 0 19 15" fill="none" xmlns="http://www.w3.org/2000/svg">
<path id="Vector" fill-rule="evenodd" clip-rule="evenodd" d="M0 2.0457C0 1.50321 0.200178 0.982941 0.556497 0.599344C0.912816 0.215747 1.39609 0.000244141 1.9 0.000244141H17.1C17.6039 0.000244141 18.0872 0.215747 18.4435 0.599344C18.7998 0.982941 19 1.50321 19 2.0457V12.9548C19 13.4973 18.7998 14.0175 18.4435 14.4011C18.0872 14.7847 17.6039 15.0002 17.1 15.0002H1.9C1.39609 15.0002 0.912816 14.7847 0.556497 14.4011C0.200178 14.0175 0 13.4973 0 12.9548L0 2.0457ZM3.8 5.45479C3.8 4.73147 4.0669 4.03778 4.542 3.52632C5.01709 3.01485 5.66145 2.72752 6.33333 2.72752C7.00522 2.72752 7.64958 3.01485 8.12467 3.52632C8.59976 4.03778 8.86667 4.73147 8.86667 5.45479C8.86667 6.17811 8.59976 6.8718 8.12467 7.38326C7.64958 7.89473 7.00522 8.18206 6.33333 8.18206C5.66145 8.18206 5.01709 7.89473 4.542 7.38326C4.0669 6.8718 3.8 6.17811 3.8 5.45479ZM15.2 5.45479H11.4V4.09115H15.2V5.45479ZM15.2 9.5457H11.4V8.18206H15.2V9.5457ZM6.33333 9.5457C5.6448 9.5457 4.96986 9.7521 4.38416 10.1418C3.79846 10.5315 3.32512 11.0891 3.0172 11.7521L2.5992 12.6493C2.55077 12.7534 2.52788 12.8691 2.53272 12.9853C2.53756 13.1016 2.56997 13.2146 2.62686 13.3136C2.68374 13.4125 2.76321 13.4942 2.8577 13.5507C2.95219 13.6073 3.05856 13.6368 3.16667 13.6366H9.5C9.608 13.6366 9.71421 13.6069 9.80853 13.5502C9.90284 13.4936 9.98214 13.4119 10.0389 13.313C10.0956 13.214 10.1279 13.1011 10.1327 12.985C10.1375 12.8688 10.1146 12.7533 10.0662 12.6493L9.64947 11.7521C9.34154 11.0891 8.86821 10.5315 8.28251 10.1418C7.6968 9.7521 7.02187 9.5457 6.33333 9.5457Z" fill="#EE6A19"/>
</svg>
