<svg width="30" height="29" viewBox="0 0 30 29" fill="none" xmlns="http://www.w3.org/2000/svg">
<g id="Group 42">
<rect id="Rectangle 18" width="30" height="29" rx="8" fill="#EE6A19"/>
<path id="Vector" d="M15 13.55C14.4317 13.55 13.8866 13.3129 13.4848 12.891C13.0829 12.469 12.8571 11.8967 12.8571 11.3C12.8571 10.7033 13.0829 10.131 13.4848 9.70901C13.8866 9.28705 14.4317 9.05 15 9.05C15.5683 9.05 16.1134 9.28705 16.5152 9.70901C16.9171 10.131 17.1429 10.7033 17.1429 11.3C17.1429 11.5955 17.0874 11.8881 16.9797 12.161C16.8721 12.434 16.7142 12.6821 16.5152 12.891C16.3162 13.0999 16.08 13.2657 15.82 13.3787C15.5601 13.4918 15.2814 13.55 15 13.55ZM15 5C13.4087 5 11.8826 5.66375 10.7574 6.84523C9.63214 8.02671 9 9.62914 9 11.3C9 16.025 15 23 15 23C15 23 21 16.025 21 11.3C21 9.62914 20.3679 8.02671 19.2426 6.84523C18.1174 5.66375 16.5913 5 15 5Z" fill="white"/>
</g>
</svg>
