<svg width="69" height="69" viewBox="0 0 69 69" fill="none" xmlns="http://www.w3.org/2000/svg">
<g id="Group 912">
<g id="Ellipse 25" filter="url(#filter0_d_299_2856)">
<circle cx="34.5" cy="30.5" r="24.5" fill="white"/>
</g>
<path id="Vector" d="M41.4628 21.1541C42.2464 21.7798 42.7864 22.7905 43.0072 23.8489C43.0339 23.8575 43.06 23.8682 43.0852 23.8807L45.5392 25.0368C45.6764 25.101 45.7926 25.2038 45.8743 25.3331C45.956 25.4623 45.9996 25.6127 46 25.7665V40.8807C45.9991 41.0062 45.9697 41.1299 45.914 41.2419C45.8584 41.3539 45.778 41.4513 45.6791 41.5263C45.5803 41.6014 45.4658 41.6521 45.3445 41.6745C45.2232 41.697 45.0984 41.6904 44.98 41.6555L38.1772 39.7001L30.0892 41.9708C29.9433 42.0116 29.789 42.01 29.644 41.9659L22.5688 39.8211C22.4053 39.7722 22.2616 39.6708 22.1591 39.5321C22.0566 39.3934 22.0008 39.2247 22 39.0511V23.6656C22 23.1279 22.5136 22.7417 23.026 22.8932L29.8684 24.9232L33.346 23.8391C33.3939 23.8247 33.4428 23.8145 33.4924 23.8086C33.6268 23.0069 34.0024 22.2369 34.6324 21.4865C35.38 20.5944 36.6916 20.0713 37.9696 20.0089C39.2956 19.9442 40.3084 20.2326 41.4616 21.1529L41.4628 21.1541ZM23.5996 24.7447V38.4511L29.4436 40.2219V26.4765L23.5996 24.7447ZM33.4504 25.4951L31.0432 26.2443V40.0288L37.1212 38.3252V34.2982C37.1212 33.8534 37.48 33.4928 37.9216 33.4928C38.3632 33.4928 38.7208 33.8534 38.7208 34.2994V38.1822L44.4004 39.8137V26.2785L43.0564 25.643C43.0336 25.7775 43.0048 25.9094 42.9688 26.0378C42.7079 26.9749 42.2701 27.8512 41.68 28.6177L38.7076 32.3978C38.6293 32.4972 38.5294 32.5766 38.4157 32.6297C38.302 32.6829 38.1777 32.7083 38.0527 32.7039C37.9277 32.6995 37.8054 32.6654 37.6955 32.6044C37.5857 32.5435 37.4914 32.4572 37.42 32.3526L34.642 28.2547C34.1836 27.6021 33.862 27.0204 33.6808 26.4997C33.5671 26.1748 33.4898 25.8378 33.4504 25.4951ZM38.0464 21.6197C37.1752 21.6625 36.28 22.0194 35.854 22.5266C35.3416 23.1376 35.0896 23.7096 35.0392 24.2889C34.9792 24.9867 35.02 25.4793 35.1904 25.9669C35.3164 26.3274 35.5672 26.7845 35.9548 27.3357L38.128 30.5401L40.42 27.6253C40.8824 27.0235 41.2252 26.3356 41.4292 25.6002C41.7172 24.5736 41.2828 23.0655 40.4692 22.4178C39.6352 21.7517 39.0052 21.5721 38.0476 21.6197H38.0464ZM38.212 22.4716C39.5368 22.4716 40.612 23.5532 40.612 24.8877C40.6103 25.2069 40.5468 25.5226 40.4253 25.8168C40.3037 26.111 40.1264 26.3779 39.9035 26.6022C39.6806 26.8266 39.4165 27.0041 39.1263 27.1245C38.8361 27.2449 38.5254 27.3058 38.212 27.3039C36.8872 27.3039 35.812 26.2223 35.812 24.8877C35.812 23.5532 36.8872 22.4716 38.212 22.4716ZM38.212 24.0823C38.1075 24.0817 38.0039 24.102 37.9072 24.1421C37.8104 24.1823 37.7223 24.2414 37.648 24.3162C37.5737 24.391 37.5146 24.48 37.474 24.578C37.4334 24.6761 37.4122 24.7813 37.4116 24.8877C37.4116 25.3326 37.7704 25.6931 38.212 25.6931C38.3165 25.6936 38.42 25.6731 38.5167 25.6329C38.6134 25.5926 38.7014 25.5333 38.7756 25.4584C38.8498 25.3835 38.9088 25.2944 38.9493 25.1963C38.9897 25.0982 39.0107 24.9929 39.0112 24.8865C39.0096 24.672 38.9246 24.467 38.7748 24.3162C38.625 24.1655 38.4226 24.0814 38.212 24.0823Z" fill="#EE6A19"/>
</g>
<defs>
<filter id="filter0_d_299_2856" x="0" y="0" width="69" height="69" filterUnits="userSpaceOnUse" color-interpolation-filters="sRGB">
<feFlood flood-opacity="0" result="BackgroundImageFix"/>
<feColorMatrix in="SourceAlpha" type="matrix" values="0 0 0 0 0 0 0 0 0 0 0 0 0 0 0 0 0 0 127 0" result="hardAlpha"/>
<feOffset dy="4"/>
<feGaussianBlur stdDeviation="5"/>
<feComposite in2="hardAlpha" operator="out"/>
<feColorMatrix type="matrix" values="0 0 0 0 0 0 0 0 0 0 0 0 0 0 0 0 0 0 0.12 0"/>
<feBlend mode="normal" in2="BackgroundImageFix" result="effect1_dropShadow_299_2856"/>
<feBlend mode="normal" in="SourceGraphic" in2="effect1_dropShadow_299_2856" result="shape"/>
</filter>
</defs>
</svg>
