<svg width="40" height="40" viewBox="0 0 40 40" fill="none" xmlns="http://www.w3.org/2000/svg">
<g id="Group 950">
<circle id="Ellipse 27" cx="20" cy="20" r="20" fill="#F2F3F5"/>
<path id="Vector" d="M27.0585 28.2352V15.2941H23.5291V11.7646H12.9408V28.2352H10.5879V29.4117H18.8232V25.8823H21.1761V29.4117H29.4114V28.2352H27.0585ZM17.6467 23.5294H15.2938V21.1764H17.6467V23.5294ZM17.6467 19.9999H15.2938V17.647H17.6467V19.9999ZM17.6467 16.4705H15.2938V14.1176H17.6467V16.4705ZM21.1761 23.5294H18.8232V21.1764H21.1761V23.5294ZM21.1761 19.9999H18.8232V17.647H21.1761V19.9999ZM21.1761 16.4705H18.8232V14.1176H21.1761V16.4705ZM25.882 23.5294H23.5291V21.1764H25.882V23.5294ZM25.882 19.9999H23.5291V17.647H25.882V19.9999Z" fill="#3B3B3B"/>
</g>
</svg>
