<svg width="18" height="18" viewBox="0 0 18 18" fill="none" xmlns="http://www.w3.org/2000/svg">
<g id="Group 1027">
<path id="Vector" d="M17.6671 4.25825L11.2387 0.722668C11.1438 0.670448 11.0372 0.643066 10.9289 0.643066C10.8205 0.643066 10.714 0.670448 10.619 0.722668L4.1907 4.25825C4.08991 4.31374 4.00586 4.39527 3.94733 4.49432C3.88879 4.59337 3.85791 4.70632 3.85791 4.82137C3.85791 4.93643 3.88879 5.04937 3.94733 5.14843C4.00586 5.24748 4.08991 5.329 4.1907 5.38449L10.286 8.73687V15.6274L8.3344 14.5539L7.71471 15.6795L10.619 17.2769C10.7139 17.3292 10.8205 17.3567 10.9289 17.3567C11.0372 17.3567 11.1438 17.3292 11.2387 17.2769L17.6671 13.7413C17.7679 13.6859 17.852 13.6043 17.9105 13.5053C17.9691 13.4062 18 13.2933 18 13.1782V4.82137C18 4.7063 17.9691 4.59334 17.9105 4.49428C17.852 4.39523 17.7679 4.31372 17.6671 4.25825ZM10.9289 2.01991L16.0233 4.82137L10.9289 7.62284L5.83442 4.82137L10.9289 2.01991ZM16.7144 12.7983L11.5717 15.6268V8.73623L16.7144 5.90776V12.7983Z" fill="#EE6A19"/>
<path id="Vector_2" d="M5.14267 8.99978H0V7.71411H5.14267V8.99978ZM6.42833 14.1424H1.28567V12.8568H6.42833V14.1424ZM7.714 11.5711H2.57133V10.2854H7.714V11.5711Z" fill="#EE6A19"/>
</g>
</svg>
