<svg width="15" height="16" viewBox="0 0 15 16" fill="none" xmlns="http://www.w3.org/2000/svg">
<path id="Vector" d="M10.2634 1.16356C9.56172 0.413212 8.5817 0 7.5 0C6.41253 0 5.42926 0.410712 4.73085 1.15642C4.02486 1.91035 3.68087 2.93498 3.76164 4.0414C3.92173 6.22425 5.59873 7.99995 7.5 7.99995C9.40127 7.99995 11.0754 6.22461 11.238 4.04212C11.3198 2.9457 10.9737 1.9232 10.2634 1.16356ZM13.846 15.9999H1.15402C0.987895 16.002 0.823376 15.9675 0.672434 15.8987C0.521493 15.83 0.387925 15.7287 0.281448 15.6024C0.0470799 15.3249 -0.0473886 14.946 0.0225614 14.5628C0.32688 12.8906 1.27661 11.486 2.76936 10.4999C4.09553 9.62459 5.77541 9.1428 7.5 9.1428C9.22459 9.1428 10.9045 9.62494 12.2306 10.4999C13.7234 11.4856 14.6731 12.8903 14.9774 14.5624C15.0474 14.9456 14.9529 15.3246 14.7186 15.602C14.6121 15.7284 14.4786 15.8297 14.3276 15.8986C14.1767 15.9674 14.0121 16.002 13.846 15.9999Z" fill="#EE6A19"/>
</svg>
