<svg width="30" height="22" viewBox="0 0 30 22" fill="none" xmlns="http://www.w3.org/2000/svg">
<g id="Group">
<path id="Vector" d="M22.1188 0.12016C21.465 0.297361 20.5103 0.935289 20.064 1.51415C19.7008 1.98669 19.3272 2.74275 19.1197 3.43975C19.0574 3.64057 18.5282 3.65239 9.89413 3.65239C2.71292 3.65239 0.678939 3.68783 0.47139 3.80596C0.0770462 4.03042 -0.0993707 4.52658 0.0562913 4.96368C0.128934 5.1527 0.243086 5.35353 0.30535 5.40078C0.367615 5.44804 4.62238 5.5071 9.74884 5.54254L19.0782 5.60161L19.2442 6.13322C19.5037 6.97197 19.7216 7.33819 20.282 7.95249C21.0395 8.75581 21.8075 9.12203 22.8556 9.18109C23.9141 9.25197 24.6509 9.00389 25.4707 8.31871C26.1349 7.76348 26.633 6.98379 26.882 6.1214L27.0585 5.54254H28.2415C28.9056 5.54254 29.5179 5.49529 29.6217 5.42441C29.9434 5.23539 30.0887 4.66835 29.9226 4.29032C29.7151 3.77052 29.383 3.65239 28.1688 3.65239H27.0688L26.882 3.08534C26.1452 0.864408 24.1009 -0.411447 22.1188 0.12016ZM23.7688 2.12845C24.3396 2.30565 25.0867 3.20348 25.2632 3.9241C25.6783 5.57798 24.5886 7.19643 23.0631 7.19643C22.3678 7.19643 21.9216 6.9956 21.4339 6.45218C20.4895 5.4126 20.5622 3.55788 21.5895 2.62462C22.2433 2.03394 22.949 1.86855 23.7688 2.12845Z" fill="#3B3B3B"/>
<path id="Vector_2" d="M6.41865 12.2053C5.74411 12.4534 5.12146 12.9141 4.63372 13.5166C4.18749 14.06 3.68937 15.1114 3.68937 15.4895C3.68937 15.6785 3.54409 15.7021 2.12238 15.7021C1.26105 15.7021 0.482736 15.7493 0.378961 15.8202C0.0572596 16.0092 -0.088025 16.5763 0.0780145 16.9543C0.306319 17.5096 0.58651 17.5923 2.21577 17.5923C3.32616 17.5923 3.68937 17.6277 3.68937 17.734C3.68937 17.8167 3.82428 18.2184 4.0007 18.62C4.38466 19.5533 5.10071 20.3566 5.97241 20.8291C6.57431 21.1599 6.74035 21.1954 7.58092 21.1835C8.89886 21.1717 9.54226 20.8764 10.4451 19.8486C10.9847 19.2343 11.1819 18.9035 11.3687 18.3247L11.6074 17.5923H20.4386C27.35 17.5923 29.3217 17.5568 29.5293 17.4387C29.9236 17.2142 30.1 16.7181 29.9444 16.281C29.8717 16.0919 29.7264 15.8793 29.6227 15.8202C29.5085 15.7493 26.0321 15.7021 20.5112 15.7021C13.0291 15.7021 11.5762 15.6785 11.5762 15.5367C11.5762 15.135 10.8083 13.6702 10.3621 13.2331C9.55264 12.4179 8.87811 12.1108 7.79885 12.0754C7.20733 12.0517 6.68846 12.099 6.41865 12.2053ZM8.63942 14.2963C10.03 15.0642 10.3413 17.2142 9.23094 18.4546C8.80546 18.939 8.40074 19.1516 7.74696 19.2107C7.24884 19.258 7.0828 19.2225 6.59506 18.9272C4.90354 17.9112 4.92429 15.2768 6.64695 14.249C7.10356 13.9655 8.08942 13.9891 8.63942 14.2963Z" fill="#3B3B3B"/>
</g>
</svg>
