<svg width="16" height="14" viewBox="0 0 16 14" fill="none" xmlns="http://www.w3.org/2000/svg">
<path id="Vector" d="M13.4737 0.5C13.9204 0.5 14.3488 0.671205 14.6646 0.975951C14.9805 1.2807 15.1579 1.69402 15.1579 2.125V2.9375H10.1053C8.98856 2.9375 7.9176 3.36551 7.12797 4.12738C6.33834 4.88925 5.89474 5.92256 5.89474 7C5.89474 8.07744 6.33834 9.11075 7.12797 9.87262C7.9176 10.6345 8.98856 11.0625 10.1053 11.0625H15.1579V11.875C15.1579 12.306 14.9805 12.7193 14.6646 13.024C14.3488 13.3288 13.9204 13.5 13.4737 13.5H1.68421C1.23753 13.5 0.809144 13.3288 0.493294 13.024C0.177443 12.7193 0 12.306 0 11.875V2.125C0 1.69402 0.177443 1.2807 0.493294 0.975951C0.809144 0.671205 1.23753 0.5 1.68421 0.5H13.4737ZM14.3158 4.5625C14.7625 4.5625 15.1909 4.73371 15.5067 5.03845C15.8226 5.3432 16 5.75652 16 6.1875V7.8125C16 8.24348 15.8226 8.6568 15.5067 8.96155C15.1909 9.26629 14.7625 9.4375 14.3158 9.4375H10.1053C9.43524 9.4375 8.79266 9.18069 8.31889 8.72357C7.84511 8.26645 7.57895 7.64647 7.57895 7C7.57895 6.35353 7.84511 5.73355 8.31889 5.27643C8.79266 4.81931 9.43524 4.5625 10.1053 4.5625H14.3158ZM10.1053 6.1875C9.88192 6.1875 9.66773 6.2731 9.5098 6.42548C9.35188 6.57785 9.26316 6.78451 9.26316 7C9.26316 7.21549 9.35188 7.42215 9.5098 7.57452C9.66773 7.7269 9.88192 7.8125 10.1053 7.8125C10.3286 7.8125 10.5428 7.7269 10.7007 7.57452C10.8586 7.42215 10.9474 7.21549 10.9474 7C10.9474 6.78451 10.8586 6.57785 10.7007 6.42548C10.5428 6.2731 10.3286 6.1875 10.1053 6.1875Z" fill="#EE6A19"/>
</svg>
