<svg width="30" height="30" viewBox="0 0 30 30" fill="none" xmlns="http://www.w3.org/2000/svg">
<path d="M23.3597 7.99894C21.0956 5.8635 18.1274 4.6875 15 4.6875C14.9381 4.6875 14.8762 4.69594 14.8143 4.69678C14.8134 4.69388 14.8133 4.69041 14.8125 4.6875C14.1938 2.49375 12.1969 0.9375 9.84375 0.9375C7.00313 0.9375 4.6875 3.25312 4.6875 6.09375C4.6875 6.85313 4.9875 7.81875 5.61562 9.09375C5.61778 9.09797 5.62022 9.10266 5.62238 9.10687C3.81291 11.2822 2.8125 14.0103 2.8125 16.875C2.8125 20.5032 4.40822 23.9131 7.18687 26.2267C9.36037 28.0554 12.1353 29.0625 15 29.0625C21.72 29.0625 27.1875 23.5955 27.1875 16.875C27.1875 13.532 25.7922 10.2969 23.3597 7.99894ZM9.84375 2.8125C11.5406 2.8125 12.9375 4.07812 13.1062 5.7375C13.1156 5.85 13.125 5.97188 13.125 6.09375C13.125 6.24975 13.0971 6.43266 13.0455 6.63722C12.956 6.99234 12.7846 7.42181 12.5729 7.88306C12.5402 7.95412 12.5167 8.01806 12.4816 8.09091C12.4645 8.12653 12.4423 8.16591 12.4247 8.20181C11.8484 9.37997 11.0014 10.7534 10.1868 11.9559C10.0728 12.124 9.95794 12.2957 9.84619 12.4557C9.52875 11.9992 9.14034 11.424 8.74312 10.7972C8.74013 10.7924 8.73722 10.7883 8.73422 10.7835C8.33381 10.1512 7.92469 9.46622 7.56956 8.79591C7.56666 8.79038 7.56206 8.78616 7.55897 8.78063C6.69375 7.14047 6.5625 6.39291 6.5625 6.09375C6.5625 4.28437 8.03438 2.8125 9.84375 2.8125ZM4.6875 16.875C4.6875 14.7069 5.35706 12.6268 6.59222 10.8962C6.66666 11.0171 6.74119 11.1289 6.81563 11.25C6.85313 11.3156 6.89062 11.3813 6.9375 11.4469C6.94781 11.4641 6.95869 11.4802 6.96909 11.4974C7.01484 11.5711 7.05966 11.6431 7.10531 11.7155C7.22194 11.9038 7.33931 12.0949 7.45312 12.2719C7.45312 12.2719 7.4625 12.2719 7.4625 12.2812C7.60313 12.4969 7.74375 12.7031 7.875 12.9C8.00625 13.0969 8.1375 13.2844 8.25 13.4531C8.35134 13.5935 8.43984 13.7153 8.52291 13.8352C8.54025 13.8596 8.56144 13.8905 8.57822 13.9139V13.9219C8.66128 14.0351 8.7285 14.1248 8.78962 14.2087C8.81166 14.2392 8.835 14.272 8.85488 14.2994C8.86284 14.311 8.87231 14.3227 8.87813 14.3344C8.89491 14.355 8.90606 14.3706 8.92069 14.3895C9.01256 14.5152 9.08006 14.6064 9.093 14.6238L9.09375 14.625L9.09769 14.6283C9.2745 14.8621 9.55059 15 9.84375 15C9.99188 15 10.1352 14.9649 10.2638 14.9005C10.3348 14.8648 10.3867 14.8007 10.4468 14.7479C10.4955 14.7053 10.5548 14.6773 10.5945 14.6247C10.8231 14.3192 11.3371 13.6186 11.9345 12.7281C12.0715 12.5248 12.2118 12.3149 12.3563 12.0938C12.3853 12.0439 12.4183 11.9937 12.4485 11.9437C13.0823 10.9535 13.7444 9.82547 14.2363 8.754C14.2489 8.72691 14.2657 8.69878 14.2781 8.67188C14.3298 8.54644 14.3835 8.42391 14.4331 8.30306C14.5 8.14275 14.5597 7.98609 14.6166 7.83066C14.6282 7.79906 14.6416 7.76512 14.6531 7.73438C14.655 7.72959 14.656 7.72528 14.6579 7.7205C14.6769 7.6665 14.6959 7.61269 14.7135 7.55944C14.724 7.52738 14.7369 7.4925 14.7469 7.46241C14.7797 7.36116 14.8043 7.26497 14.8311 7.16747C14.8407 7.13175 14.853 7.09453 14.862 7.05928C14.8999 6.9105 14.9292 6.7665 14.9503 6.62691C14.9536 6.60609 14.9603 6.58313 14.9633 6.5625C14.9753 6.5625 14.9881 6.5625 15 6.5625C17.5605 6.5625 19.9891 7.50084 21.8782 9.19603C22.4832 11.4742 22.2201 13.7382 21.1285 15.4426C20.0994 17.0502 18.3902 18.0706 16.1847 18.3942C12.8241 18.8903 9.88988 20.8584 7.62731 24.079C5.75016 22.1649 4.6875 19.5941 4.6875 16.875ZM15 27.1875C12.86 27.1875 10.7826 26.5228 9.05869 25.3025C11.0494 22.3911 13.5317 20.6814 16.4585 20.2492C19.216 19.8449 21.3767 18.5321 22.7078 16.4539C23.5437 15.1487 23.9916 13.5982 24.057 11.9591C24.8678 13.4582 25.3125 15.1484 25.3125 16.875C25.3125 22.5613 20.6863 27.1875 15 27.1875Z" fill="#818181"/>
<path d="M9.84375 7.5C10.6204 7.5 11.25 6.8704 11.25 6.09375C11.25 5.3171 10.6204 4.6875 9.84375 4.6875C9.0671 4.6875 8.4375 5.3171 8.4375 6.09375C8.4375 6.8704 9.0671 7.5 9.84375 7.5Z" fill="#818181"/>
</svg>
