<svg width="30" height="30" viewBox="0 0 30 30" fill="none" xmlns="http://www.w3.org/2000/svg">
<path d="M20.625 9.375H7.5L9 8.25C9.09849 8.17613 9.18147 8.08359 9.24419 7.97765C9.30692 7.87171 9.34817 7.75446 9.36558 7.63258C9.38299 7.51071 9.37622 7.38659 9.34567 7.26733C9.31511 7.14807 9.26137 7.03599 9.1875 6.9375C9.11363 6.83901 9.02109 6.75603 8.91515 6.69331C8.80921 6.63058 8.69196 6.58933 8.57008 6.57192C8.44821 6.55451 8.32409 6.56128 8.20483 6.59183C8.08557 6.62239 7.97349 6.67613 7.875 6.75L4.125 9.5625C4.00857 9.64983 3.91406 9.76306 3.84897 9.89324C3.78389 10.0234 3.75 10.167 3.75 10.3125C3.75 10.458 3.78389 10.6016 3.84897 10.7318C3.91406 10.8619 4.00857 10.9752 4.125 11.0625L7.875 13.875C8.03728 13.9967 8.23465 14.0625 8.4375 14.0625C8.58304 14.0625 8.72659 14.0286 8.85676 13.9635C8.98694 13.8984 9.10017 13.8039 9.1875 13.6875C9.26137 13.589 9.31511 13.4769 9.34567 13.3577C9.37622 13.2384 9.38299 13.1143 9.36558 12.9924C9.34817 12.8705 9.30692 12.7533 9.24419 12.6473C9.18147 12.5414 9.09849 12.4489 9 12.375L7.5 11.25H20.625C21.6196 11.25 22.5734 11.6451 23.2766 12.3483C23.9799 13.0516 24.375 14.0054 24.375 15C24.375 15.9946 23.9799 16.9484 23.2766 17.6516C22.5734 18.3549 21.6196 18.75 20.625 18.75H4.6875C4.43886 18.75 4.2004 18.8488 4.02459 19.0246C3.84877 19.2004 3.75 19.4389 3.75 19.6875C3.75 19.9361 3.84877 20.1746 4.02459 20.3504C4.2004 20.5262 4.43886 20.625 4.6875 20.625H20.625C22.1168 20.625 23.5476 20.0324 24.6025 18.9775C25.6574 17.9226 26.25 16.4918 26.25 15C26.25 13.5082 25.6574 12.0774 24.6025 11.0225C23.5476 9.96763 22.1168 9.375 20.625 9.375Z" fill="#818181"/>
</svg>
