<svg width="30" height="30" viewBox="0 0 30 30" fill="none" xmlns="http://www.w3.org/2000/svg">
<path fill-rule="evenodd" clip-rule="evenodd" d="M10.9856 24.9375C11.4187 26.7477 13.0716 28.125 15 28.125C16.9284 28.125 18.5813 26.7477 19.0145 24.9375H23.7188C25.125 24.9375 26.25 23.8125 26.25 22.4062V21.6562C26.25 20.25 25.125 19.125 23.7188 19.125C23.3438 19.125 23.0625 18.8438 23.0625 18.4688V13.6875C23.0625 10.1369 20.7493 7.07328 17.4963 6.01734C17.6991 5.62492 17.8125 5.17366 17.8125 4.6875C17.8125 3.09375 16.5938 1.875 15 1.875C13.4063 1.875 12.1875 3.09375 12.1875 4.6875C12.1875 5.17365 12.3009 5.62491 12.5038 6.01733C9.25076 7.07326 6.9375 10.1369 6.9375 13.6875V18.4688C6.9375 18.8438 6.65625 19.125 6.28125 19.125C4.875 19.125 3.75 20.25 3.75 21.6562V22.4062C3.75 23.8125 4.875 24.9375 6.28125 24.9375H10.9856ZM12.9627 24.9375C13.326 25.7042 14.1134 26.25 15 26.25C15.8867 26.25 16.6741 25.7042 17.0374 24.9375H12.9627ZM18.1875 23.0625H23.7188C24.0938 23.0625 24.375 22.7812 24.375 22.4062V21.6562C24.375 21.2812 24.0938 21 23.7188 21C22.3125 21 21.1875 19.875 21.1875 18.4688V13.6875C21.1875 10.3125 18.375 7.5 15 7.5C11.625 7.5 8.8125 10.3125 8.8125 13.6875V18.4688C8.8125 19.875 7.6875 21 6.28125 21C5.90625 21 5.625 21.2812 5.625 21.6562V22.4062C5.625 22.7812 5.90625 23.0625 6.28125 23.0625H11.8125H18.1875ZM14.0625 4.6875C14.0625 4.125 14.4375 3.75 15 3.75C15.5625 3.75 15.9375 4.125 15.9375 4.6875C15.9375 5.25 15.5625 5.625 15 5.625C14.4375 5.625 14.0625 5.25 14.0625 4.6875Z" fill="#818181"/>
</svg>
