<svg width="30" height="30" viewBox="0 0 30 30" fill="none" xmlns="http://www.w3.org/2000/svg">
<path d="M24.375 8.75C23.4891 8.75117 22.6322 9.06544 21.9556 9.63728C21.279 10.2091 20.8263 11.0017 20.6775 11.875H9.32312C9.16634 10.9479 8.66699 10.1134 7.92404 9.5371C7.18108 8.96074 6.24872 8.68452 5.31171 8.76314C4.3747 8.84177 3.50142 9.26952 2.8649 9.96163C2.22838 10.6537 1.87508 11.5597 1.875 12.5C1.87252 13.4247 2.21685 14.3168 2.84 15C2.21685 15.6832 1.87252 16.5753 1.875 17.5C1.87508 18.4403 2.22838 19.3463 2.8649 20.0384C3.50142 20.7305 4.3747 21.1582 5.31171 21.2369C6.24872 21.3155 7.18108 21.0393 7.92404 20.4629C8.66699 19.8866 9.16634 19.0521 9.32312 18.125H20.6775C20.8343 19.0521 21.3336 19.8864 22.0765 20.4627C22.8194 21.039 23.7517 21.3152 24.6886 21.2366C25.6255 21.1579 26.4987 20.7302 27.1352 20.0382C27.7717 19.3461 28.1249 18.4402 28.125 17.5C28.1274 16.5754 27.7833 15.6835 27.1606 15C27.7833 14.3165 28.1274 13.4246 28.125 12.5C28.1239 11.5058 27.7285 10.5526 27.0255 9.84955C26.3224 9.14652 25.3692 8.75109 24.375 8.75ZM25.8594 15.5017C26.1741 15.7312 26.4302 16.0319 26.6067 16.3791C26.7832 16.7264 26.8751 17.1105 26.875 17.5C26.875 18.163 26.6116 18.7989 26.1428 19.2678C25.6739 19.7366 25.038 20 24.375 20C23.712 20 23.0761 19.7366 22.6072 19.2678C22.1384 18.7989 21.875 18.163 21.875 17.5C21.875 17.4179 21.8589 17.3366 21.8275 17.2608C21.7961 17.1849 21.7501 17.116 21.692 17.058C21.634 16.9999 21.5651 16.9539 21.4892 16.9225C21.4134 16.8911 21.3321 16.875 21.25 16.875H8.75C8.66791 16.875 8.58661 16.8911 8.51076 16.9225C8.43491 16.9539 8.366 16.9999 8.30795 17.058C8.2499 17.116 8.20387 17.1849 8.17248 17.2608C8.14108 17.3366 8.12495 17.4179 8.125 17.5C8.125 18.163 7.86161 18.7989 7.39277 19.2678C6.92392 19.7366 6.28804 20 5.625 20C4.96196 20 4.32607 19.7366 3.85723 19.2678C3.38839 18.7989 3.125 18.163 3.125 17.5C3.12507 17.1104 3.21708 16.7263 3.39356 16.379C3.57004 16.0317 3.826 15.7309 4.14062 15.5011C4.21867 15.4429 4.28204 15.3673 4.3257 15.2803C4.36936 15.1933 4.39209 15.0973 4.39209 15C4.39209 14.9027 4.36936 14.8067 4.3257 14.7197C4.28204 14.6327 4.21867 14.5571 4.14062 14.4989C3.826 14.2691 3.57004 13.9683 3.39356 13.621C3.21708 13.2737 3.12507 12.8896 3.125 12.5C3.125 11.837 3.38839 11.2011 3.85723 10.7322C4.32607 10.2634 4.96196 10 5.625 10C6.28804 10 6.92392 10.2634 7.39277 10.7322C7.86161 11.2011 8.125 11.837 8.125 12.5C8.12495 12.5821 8.14108 12.6634 8.17248 12.7392C8.20387 12.8151 8.2499 12.884 8.30795 12.942C8.366 13.0001 8.43491 13.0461 8.51076 13.0775C8.58661 13.1089 8.66791 13.125 8.75 13.125H21.25C21.3321 13.125 21.4134 13.1089 21.4892 13.0775C21.5651 13.0461 21.634 13.0001 21.692 12.942C21.7501 12.884 21.7961 12.8151 21.8275 12.7392C21.8589 12.6634 21.875 12.5821 21.875 12.5C21.875 11.837 22.1384 11.2011 22.6072 10.7322C23.0761 10.2634 23.712 10 24.375 10C25.038 10 25.6739 10.2634 26.1428 10.7322C26.6116 11.2011 26.875 11.837 26.875 12.5C26.8751 12.8895 26.7832 13.2736 26.6067 13.6209C26.4302 13.9681 26.1741 14.2688 25.8594 14.4983C25.7813 14.5566 25.718 14.6323 25.6743 14.7194C25.6307 14.8065 25.6079 14.9026 25.6079 15C25.6079 15.0974 25.6307 15.1935 25.6743 15.2806C25.718 15.3677 25.7813 15.4434 25.8594 15.5017Z" fill="#818181"/>
</svg>
