<svg width="30" height="30" viewBox="0 0 30 30" fill="none" xmlns="http://www.w3.org/2000/svg">
<path fill-rule="evenodd" clip-rule="evenodd" d="M10.5 4C10.5 3.72386 10.2761 3.5 9.99999 3.5C9.72385 3.5 9.49999 3.72386 9.49999 4V5.5H6.62C4.89687 5.5 3.5 6.89687 3.5 8.62V23.38C3.5 25.1031 4.89687 26.5 6.62 26.5H23.38C25.1031 26.5 26.5 25.1031 26.5 23.38V8.62C26.5 6.89687 25.1031 5.5 23.38 5.5H20.5V4C20.5 3.72386 20.2761 3.5 20 3.5C19.7239 3.5 19.5 3.72386 19.5 4V5.5H10.5V4ZM9.49999 6.5V9C9.49999 9.27614 9.72385 9.5 9.99999 9.5C10.2761 9.5 10.5 9.27614 10.5 9V6.5H19.5V9C19.5 9.27614 19.7239 9.5 20 9.5C20.2761 9.5 20.5 9.27614 20.5 9V6.5H23.38C24.5508 6.5 25.5 7.44915 25.5 8.62V23.38C25.5 24.5508 24.5508 25.5 23.38 25.5H6.62C5.44916 25.5 4.5 24.5508 4.5 23.38V8.62C4.5 7.44915 5.44916 6.5 6.62 6.5H9.49999ZM9 19C9.55229 19 10 18.5523 10 18C10 17.4477 9.55229 17 9 17C8.44772 17 8 17.4477 8 18C8 18.5523 8.44772 19 9 19ZM14 18C14 18.5523 13.5523 19 13 19C12.4477 19 12 18.5523 12 18C12 17.4477 12.4477 17 13 17C13.5523 17 14 17.4477 14 18ZM17 19C17.5523 19 18 18.5523 18 18C18 17.4477 17.5523 17 17 17C16.4477 17 16 17.4477 16 18C16 18.5523 16.4477 19 17 19ZM22 18C22 18.5523 21.5523 19 21 19C20.4477 19 20 18.5523 20 18C20 17.4477 20.4477 17 21 17C21.5523 17 22 17.4477 22 18ZM17 15C17.5523 15 18 14.5523 18 14C18 13.4477 17.5523 13 17 13C16.4477 13 16 13.4477 16 14C16 14.5523 16.4477 15 17 15ZM22 14C22 14.5523 21.5523 15 21 15C20.4477 15 20 14.5523 20 14C20 13.4477 20.4477 13 21 13C21.5523 13 22 13.4477 22 14ZM9 23C9.55229 23 10 22.5523 10 22C10 21.4477 9.55229 21 9 21C8.44772 21 8 21.4477 8 22C8 22.5523 8.44772 23 9 23ZM14 22C14 22.5523 13.5523 23 13 23C12.4477 23 12 22.5523 12 22C12 21.4477 12.4477 21 13 21C13.5523 21 14 21.4477 14 22ZM17 23C17.5523 23 18 22.5523 18 22C18 21.4477 17.5523 21 17 21C16.4477 21 16 21.4477 16 22C16 22.5523 16.4477 23 17 23Z" fill="#818181"/>
</svg>
