<svg width="30" height="30" viewBox="0 0 30 30" fill="none" xmlns="http://www.w3.org/2000/svg">
<path d="M25.5875 11.2502C25.8347 11.2502 26.0764 11.1769 26.2819 11.0395C26.4875 10.9022 26.6477 10.707 26.7423 10.4786C26.8369 10.2501 26.8617 9.99881 26.8135 9.75634C26.7652 9.51386 26.6462 9.29113 26.4714 9.11632C26.2966 8.9415 26.0738 8.82245 25.8313 8.77422C25.5889 8.72599 25.3375 8.75074 25.1091 8.84535C24.8807 8.93996 24.6855 9.10018 24.5481 9.30574C24.4108 9.5113 24.3375 9.75297 24.3375 10.0002C24.3375 10.3317 24.4692 10.6497 24.7036 10.8841C24.938 11.1185 25.256 11.2502 25.5875 11.2502ZM21.8375 11.2502C22.0847 11.2502 22.3264 11.1769 22.5319 11.0395C22.7375 10.9022 22.8977 10.707 22.9923 10.4786C23.0869 10.2501 23.1117 9.99881 23.0635 9.75634C23.0152 9.51386 22.8962 9.29113 22.7214 9.11632C22.5466 8.9415 22.3238 8.82245 22.0813 8.77422C21.8389 8.72599 21.5875 8.75074 21.3591 8.84535C21.1307 8.93996 20.9355 9.10018 20.7981 9.30574C20.6608 9.5113 20.5875 9.75297 20.5875 10.0002C20.5875 10.3317 20.7192 10.6497 20.9536 10.8841C21.188 11.1185 21.506 11.2502 21.8375 11.2502ZM18.0875 11.2502C18.3347 11.2502 18.5764 11.1769 18.7819 11.0395C18.9875 10.9022 19.1477 10.707 19.2423 10.4786C19.3369 10.2501 19.3617 9.99881 19.3135 9.75634C19.2652 9.51386 19.1462 9.29113 18.9714 9.11632C18.7966 8.9415 18.5738 8.82245 18.3313 8.77422C18.0889 8.72599 17.8375 8.75074 17.6091 8.84535C17.3807 8.93996 17.1855 9.10018 17.0481 9.30574C16.9108 9.5113 16.8375 9.75297 16.8375 10.0002C16.8375 10.1644 16.8698 10.3269 16.9326 10.4786C16.9955 10.6302 17.0875 10.768 17.2036 10.8841C17.3197 11.0002 17.4575 11.0922 17.6091 11.1551C17.7608 11.2179 17.9233 11.2502 18.0875 11.2502ZM23.6375 16.2502C23.3625 16.2502 23.075 16.1627 22.8 16.1002C22.2431 15.9775 21.6958 15.8146 21.1625 15.6127C20.5826 15.4017 19.9452 15.4127 19.3729 15.6435C18.8006 15.8742 18.3338 16.3085 18.0625 16.8627L17.7875 17.4252C16.5681 16.745 15.4456 15.9041 14.45 14.9252C13.4758 13.9301 12.6354 12.8124 11.95 11.6002L12.5 11.2502C13.0542 10.9788 13.4885 10.5121 13.7192 9.93982C13.95 9.36752 13.9609 8.73009 13.75 8.1502C13.5515 7.61573 13.3887 7.0687 13.2625 6.5127C13.2 6.2252 13.15 5.9502 13.1125 5.6627C12.9607 4.78223 12.4995 3.98488 11.812 3.41425C11.1245 2.84362 10.2559 2.53721 9.36248 2.5502H5.61248C5.08404 2.54951 4.56142 2.66051 4.07888 2.87593C3.59634 3.09135 3.16478 3.40632 2.81248 3.8002C2.4546 4.20332 2.18783 4.67886 2.03036 5.19442C1.87289 5.70997 1.82842 6.25341 1.89998 6.7877C2.55837 12.0215 4.94046 16.8872 8.67048 20.6172C12.4005 24.3472 17.2662 26.7293 22.5 27.3877C22.6622 27.4001 22.8252 27.4001 22.9875 27.3877C23.982 27.3877 24.9359 26.9926 25.6391 26.2894C26.3424 25.5861 26.7375 24.6323 26.7375 23.6377V19.8877C26.7245 19.0155 26.4078 18.1751 25.842 17.5111C25.2762 16.8472 24.4966 16.4013 23.6375 16.2502ZM24.25 23.7502C24.252 23.9314 24.2147 24.1109 24.1405 24.2762C24.0663 24.4415 23.957 24.5887 23.8203 24.7076C23.6835 24.8265 23.5226 24.9143 23.3486 24.9648C23.1746 25.0153 22.9916 25.0274 22.8125 25.0002C18.1452 24.3912 13.8089 22.2603 10.475 18.9377C7.14373 15.5813 5.01654 11.217 4.42498 6.5252C4.39783 6.34187 4.41178 6.15479 4.46583 5.97752C4.51988 5.80024 4.61267 5.6372 4.73748 5.5002C4.85322 5.36843 4.9954 5.2625 5.15476 5.18928C5.31413 5.11605 5.48712 5.07719 5.66249 5.0752H9.41249C9.70317 5.06873 9.98701 5.1638 10.2152 5.34404C10.4433 5.52428 10.6015 5.77841 10.6625 6.0627C10.7125 6.40437 10.775 6.74187 10.85 7.0752C10.9944 7.73413 11.1866 8.38168 11.425 9.0127L9.67498 9.8252C9.52536 9.89385 9.39076 9.99138 9.27893 10.1122C9.1671 10.233 9.08024 10.3747 9.02332 10.5292C8.96641 10.6837 8.94057 10.8479 8.9473 11.0124C8.95402 11.1768 8.99316 11.3384 9.06249 11.4877C10.8615 15.3411 13.959 18.4387 17.8125 20.2377C18.1168 20.3627 18.4582 20.3627 18.7625 20.2377C19.0727 20.1223 19.3244 19.8885 19.4625 19.5877L20.25 17.8377C20.8962 18.0688 21.5557 18.2608 22.225 18.4127C22.55 18.4877 22.9 18.5502 23.2375 18.6002C23.5195 18.6637 23.7707 18.823 23.9485 19.0509C24.1263 19.2788 24.2195 19.5612 24.2125 19.8502L24.25 23.7502Z" fill="#818181"/>
</svg>
