<svg width="48" height="48" viewBox="0 0 48 48" fill="none" xmlns="http://www.w3.org/2000/svg">
<rect width="48" height="48" rx="24" fill="black" fill-opacity="0.6"/>
<path d="M34.745 34.7252H13.275C12.0089 34.7252 10.9629 33.6792 10.9629 32.413V18.5952C10.9629 17.329 12.0089 16.2831 13.275 16.2831H17.8993C18.0094 16.2831 18.2847 16.1179 18.3397 16.0078L19.1655 14.3012C19.4958 13.6957 20.2665 13.2002 20.9822 13.2002H27.0929C27.8085 13.2002 28.5793 13.6957 28.9096 14.3012L29.7353 16.0078C29.7904 16.1179 30.0106 16.2831 30.1757 16.2831H34.8C36.0662 16.2831 37.1122 17.329 37.1122 18.5952V32.413C37.0571 33.6792 36.0112 34.7252 34.745 34.7252ZM13.275 17.8795C12.8346 17.8795 12.5043 18.2099 12.5043 18.6503V32.4681C12.5043 32.9085 12.8346 33.2388 13.275 33.2388H34.745C35.1854 33.2388 35.5157 32.9085 35.5157 32.4681V18.6503C35.5157 18.2099 35.1854 17.8795 34.745 17.8795H30.1207C29.405 17.8795 28.6343 17.3841 28.304 16.7785L27.4782 15.0719C27.4232 14.9618 27.203 14.7967 27.0378 14.7967H20.9271C20.817 14.7967 20.5418 14.9618 20.4867 15.0719L19.661 16.7785C19.3307 17.3841 18.5599 17.8795 17.8443 17.8795H13.275Z" fill="white"/>
<path d="M24.0102 31.6425C20.2116 31.6425 17.1288 28.5597 17.1288 24.7611C17.1288 20.9626 20.2116 17.8797 24.0102 17.8797C27.8087 17.8797 30.8916 20.9626 30.8916 24.7611C30.8916 28.5597 27.8087 31.6425 24.0102 31.6425ZM24.0102 19.3661C21.0374 19.3661 18.6151 21.7884 18.6151 24.7611C18.6151 27.7339 21.0374 30.1561 24.0102 30.1561C26.9829 30.1561 29.4052 27.7339 29.4052 24.7611C29.4052 21.7884 26.9829 19.3661 24.0102 19.3661ZM32.433 19.3661C32.433 19.8065 32.1027 20.1368 31.6623 20.1368C31.2219 20.1368 30.8916 19.8065 30.8916 19.3661C30.8916 18.9257 31.2219 18.5954 31.6623 18.5954C32.1027 18.5954 32.433 18.9808 32.433 19.3661ZM14.0459 14.7969H17.1288V15.5676H14.0459V14.7969Z" fill="white"/>
<path d="M24.0098 21.6779V20.9072C21.9179 20.9072 20.1562 22.6138 20.1562 24.7608H20.927C20.927 23.0542 22.3032 21.6779 24.0098 21.6779Z" fill="white"/>
</svg>
