<svg width="30" height="30" viewBox="0 0 30 30" fill="none" xmlns="http://www.w3.org/2000/svg">
<path d="M24.1406 24.1406H5.85937C4.78125 24.1406 3.89062 23.25 3.89062 22.1719V10.4063C3.89062 9.32813 4.78125 8.4375 5.85937 8.4375H9.79687C9.89062 8.4375 10.125 8.29688 10.1719 8.20313L10.875 6.75C11.1563 6.23438 11.8125 5.8125 12.4219 5.8125H17.625C18.2344 5.8125 18.8906 6.23438 19.1719 6.75L19.875 8.20313C19.9219 8.29688 20.1094 8.4375 20.25 8.4375H24.1875C25.2656 8.4375 26.1562 9.32813 26.1562 10.4063V22.1719C26.1094 23.25 25.2188 24.1406 24.1406 24.1406ZM5.85937 9.79688C5.48437 9.79688 5.20313 10.0781 5.20313 10.4531V22.2188C5.20313 22.5938 5.48437 22.875 5.85937 22.875H24.1406C24.5156 22.875 24.7969 22.5938 24.7969 22.2188V10.4531C24.7969 10.0781 24.5156 9.79688 24.1406 9.79688H20.2031C19.5938 9.79688 18.9375 9.375 18.6562 8.85938L17.9531 7.40625C17.9062 7.3125 17.7188 7.17188 17.5781 7.17188H12.375C12.2812 7.17188 12.0469 7.3125 12 7.40625L11.2969 8.85938C11.0156 9.375 10.3594 9.79688 9.75 9.79688H5.85937Z" fill="#818181"/>
<path d="M15 21.5156C11.7656 21.5156 9.14063 18.8906 9.14063 15.6563C9.14063 12.4219 11.7656 9.79687 15 9.79687C18.2344 9.79687 20.8594 12.4219 20.8594 15.6563C20.8594 18.8906 18.2344 21.5156 15 21.5156ZM15 11.0625C12.4688 11.0625 10.4063 13.125 10.4063 15.6563C10.4063 18.1875 12.4688 20.25 15 20.25C17.5312 20.25 19.5938 18.1875 19.5938 15.6563C19.5938 13.125 17.5312 11.0625 15 11.0625ZM22.1719 11.0625C22.1719 11.4375 21.8906 11.7188 21.5156 11.7188C21.1406 11.7188 20.8594 11.4375 20.8594 11.0625C20.8594 10.6875 21.1406 10.4063 21.5156 10.4063C21.8906 10.4063 22.1719 10.7344 22.1719 11.0625ZM6.51562 7.17188H9.14063V7.82813H6.51562V7.17188Z" fill="#818181"/>
<path d="M15 13.0312V12.375C13.2188 12.375 11.7188 13.8281 11.7188 15.6563H12.375C12.375 14.2031 13.5469 13.0312 15 13.0312Z" fill="#818181"/>
</svg>
