<svg width="30" height="30" viewBox="0 0 30 30" fill="none" xmlns="http://www.w3.org/2000/svg">
<path d="M25.3125 5.625H4.6875C3.94158 5.625 3.22621 5.92132 2.69876 6.44876C2.17132 6.97621 1.875 7.69158 1.875 8.4375V21.5625C1.875 22.3084 2.17132 23.0238 2.69876 23.5512C3.22621 24.0787 3.94158 24.375 4.6875 24.375H25.3125C26.0584 24.375 26.7738 24.0787 27.3012 23.5512C27.8287 23.0238 28.125 22.3084 28.125 21.5625V8.4375C28.125 7.69158 27.8287 6.97621 27.3012 6.44876C26.7738 5.92132 26.0584 5.625 25.3125 5.625ZM4.6875 7.5H25.3125C25.5611 7.5 25.7996 7.59877 25.9754 7.77459C26.1512 7.9504 26.25 8.18886 26.25 8.4375V10.3125H3.75V8.4375C3.75 8.18886 3.84877 7.9504 4.02459 7.77459C4.2004 7.59877 4.43886 7.5 4.6875 7.5ZM25.3125 22.5H4.6875C4.43886 22.5 4.2004 22.4012 4.02459 22.2254C3.84877 22.0496 3.75 21.8111 3.75 21.5625V14.0625H26.25V21.5625C26.25 21.8111 26.1512 22.0496 25.9754 22.2254C25.7996 22.4012 25.5611 22.5 25.3125 22.5Z" fill="#818181"/>
<path d="M23.4375 19.6875H15V21.5625H23.4375V19.6875Z" fill="#818181"/>
</svg>
