<svg width="38" height="34" viewBox="0 0 38 34" fill="none" xmlns="http://www.w3.org/2000/svg">
<rect width="38" height="34" rx="8" fill="#008FD5" fill-opacity="0.05"/>
<path d="M18.25 14.75H19.75V12.5H22V11H19.75V8.75H18.25V11H16V12.5H18.25V14.75ZM15.25 21.5C14.4212 21.5 13.7575 22.1713 13.7575 23C13.7575 23.8287 14.4212 24.5 15.25 24.5C16.0788 24.5 16.75 23.8287 16.75 23C16.75 22.1713 16.0788 21.5 15.25 21.5ZM22.75 21.5C21.9213 21.5 21.2575 22.1713 21.2575 23C21.2575 23.8287 21.9213 24.5 22.75 24.5C23.5787 24.5 24.25 23.8287 24.25 23C24.25 22.1713 23.5787 21.5 22.75 21.5ZM15.3813 19.0625C15.3813 19.0288 15.3888 18.9987 15.4037 18.9725L16.0787 17.75H21.6663C22.2288 17.75 22.72 17.4388 22.9788 16.9775L25.8738 11.72L24.5613 11H24.5575L23.7288 12.5L21.6625 16.25H16.4012L16.3038 16.0475L14.62 12.5L13.9075 11L13.1988 9.5H10.75V11H12.25L14.95 16.6888L13.9337 18.5262C13.8175 18.7437 13.75 18.9875 13.75 19.25C13.75 20.0787 14.4212 20.75 15.25 20.75H24.25V19.25H15.5688C15.4638 19.25 15.3813 19.1675 15.3813 19.0625Z" fill="#008FD5"/>
</svg>
