<svg width="30" height="30" viewBox="0 0 30 30" fill="none" xmlns="http://www.w3.org/2000/svg">
<path d="M13.75 11.25H16.25V7.5H20V5H16.25V1.25H13.75V5H10V7.5H13.75V11.25ZM8.75 22.5C7.36875 22.5 6.2625 23.6187 6.2625 25C6.2625 26.3813 7.36875 27.5 8.75 27.5C10.1313 27.5 11.25 26.3813 11.25 25C11.25 23.6187 10.1313 22.5 8.75 22.5ZM21.25 22.5C19.8687 22.5 18.7625 23.6187 18.7625 25C18.7625 26.3813 19.8687 27.5 21.25 27.5C22.6313 27.5 23.75 26.3813 23.75 25C23.75 23.6187 22.6313 22.5 21.25 22.5ZM8.96875 18.4375C8.96875 18.3813 8.98125 18.3312 9.00625 18.2875L10.1312 16.25H19.4438C20.3813 16.25 21.2 15.7313 21.6313 14.9625L26.4563 6.2L24.2688 5H24.2625L22.8813 7.5L19.4375 13.75H10.6687L10.5062 13.4125L7.7 7.5L6.5125 5L5.33125 2.5H1.25V5H3.75L8.25 14.4812L6.55625 17.5438C6.3625 17.9062 6.25 18.3125 6.25 18.75C6.25 20.1313 7.36875 21.25 8.75 21.25H23.75V18.75H9.28125C9.10625 18.75 8.96875 18.6125 8.96875 18.4375Z" fill="#818181"/>
</svg>
