<svg width="30" height="30" viewBox="0 0 30 30" fill="none" xmlns="http://www.w3.org/2000/svg">
<path d="M11.25 23.75H23.75V25H11.25V23.75ZM2.5 23.125V16.1637C1.7325 15.375 1.25 14.3088 1.25 13.125C1.25 10.7125 3.2125 8.75 5.625 8.75C8.0375 8.75 10 10.7125 10 13.125C10 14.3088 9.5175 15.375 8.75 16.1637V23.125L5.625 20.7812L2.5 23.125ZM7.5 17.0613C6.93 17.335 6.29875 17.5 5.625 17.5C4.95125 17.5 4.32 17.3337 3.75 17.0613V20.625L5.625 19.2188L7.5 20.625V17.0613ZM2.5 13.125C2.5 14.8488 3.9025 16.25 5.625 16.25C7.3475 16.25 8.75 14.8488 8.75 13.125C8.75 11.4012 7.3475 10 5.625 10C3.9025 10 2.5 11.4012 2.5 13.125ZM11.25 20H23.75V18.75H11.25V20ZM23.75 13.75H12.4688C12.43 14.18 12.3488 14.5962 12.235 15H23.75V13.75ZM30 9.11625V30H5V23.75H6.25V28.75H28.75V10H20V1.25H8.125C7.09125 1.25 6.25 2.09125 6.25 3.125V6.25H5V3.125C5 1.40125 6.4025 0 8.125 0H20.8838L30 9.11625ZM27.8662 8.75L21.25 2.13375V8.75H27.8662Z" fill="#818181"/>
</svg>
