<svg width="30" height="30" viewBox="0 0 30 30" fill="none" xmlns="http://www.w3.org/2000/svg">
<path d="M4.73438 23.625C4.82813 23.6719 4.92188 23.7187 5.01562 23.7187C5.10938 23.7187 5.20312 23.6719 5.29688 23.625L8.71875 21.1875C9.60938 21.4219 10.5 21.5156 11.4375 21.5156C16.5 21.5625 20.625 18.1406 20.625 13.9219C20.625 9.70313 16.5469 6.28125 11.4844 6.28125C6.42188 6.28125 2.34375 9.70313 2.34375 13.9219C2.34375 16.2188 3.60938 18.4219 5.76562 19.875L4.59375 23.1094C4.54688 23.25 4.59375 23.4844 4.73438 23.625ZM3.28125 13.9219C3.28125 10.2188 6.9375 7.21875 11.4844 7.21875C16.0312 7.21875 19.6875 10.2188 19.6875 13.9219C19.6875 17.625 15.9844 20.625 11.4844 20.625C10.5469 20.625 9.65625 20.4844 8.76563 20.25C8.625 20.2031 8.48437 20.25 8.34375 20.2969L5.95312 21.9844L6.75 19.8281C6.84375 19.6406 6.75 19.4062 6.5625 19.2656C4.5 18 3.28125 16.0313 3.28125 13.9219Z" fill="#818181"/>
<path d="M18.5156 6.28125C18.3281 6.28125 18.0938 6.28125 17.9062 6.28125C17.625 6.28125 17.4375 6.51563 17.4844 6.79688C17.4844 7.07813 17.7188 7.26562 18 7.21875C18.1875 7.21875 18.375 7.21875 18.5625 7.21875C23.0625 7.21875 26.7656 10.2188 26.7656 13.9219C26.7656 16.0313 25.5469 18 23.4844 19.2656C23.2969 19.3594 23.2031 19.5938 23.2969 19.8281L24.0938 21.9844L21.7031 20.2969C21.6094 20.2031 21.4219 20.2031 21.2813 20.25C20.25 20.5313 19.125 20.6719 18.0469 20.625C17.8125 20.625 17.5781 20.8125 17.5313 21.0469C17.5313 21.3281 17.7188 21.5156 17.9531 21.5625C19.0781 21.6094 20.2031 21.5156 21.2813 21.2344L24.7031 23.6719C24.7969 23.7188 24.8906 23.7656 24.9844 23.7656C25.0781 23.7656 25.1719 23.7188 25.2656 23.6719C25.4062 23.5312 25.5 23.3438 25.4062 23.1562L24.2344 19.9219C26.3906 18.4688 27.6562 16.3125 27.6562 13.9688C27.6562 9.70312 23.5781 6.28125 18.5156 6.28125ZM7.03125 12.6562H16.4062C16.6875 12.6562 16.875 12.4688 16.875 12.1875C16.875 11.9062 16.6875 11.7188 16.4062 11.7188H7.03125C6.75 11.7188 6.5625 11.9062 6.5625 12.1875C6.5625 12.4688 6.75 12.6562 7.03125 12.6562ZM14.5312 15.4688H8.90625C8.625 15.4688 8.4375 15.6562 8.4375 15.9375C8.4375 16.2188 8.625 16.4062 8.90625 16.4062H14.5312C14.8125 16.4062 15 16.2188 15 15.9375C15 15.6562 14.8125 15.4688 14.5312 15.4688Z" fill="#818181"/>
</svg>
