<svg width="30" height="30" viewBox="0 0 30 30" fill="none" xmlns="http://www.w3.org/2000/svg">
<path d="M21.25 11.25H8.75C8.41848 11.25 8.10054 11.3817 7.86612 11.6161C7.6317 11.8505 7.5 12.1685 7.5 12.5C7.5 12.8315 7.6317 13.1495 7.86612 13.3839C8.10054 13.6183 8.41848 13.75 8.75 13.75H21.25C21.5815 13.75 21.8995 13.6183 22.1339 13.3839C22.3683 13.1495 22.5 12.8315 22.5 12.5C22.5 12.1685 22.3683 11.8505 22.1339 11.6161C21.8995 11.3817 21.5815 11.25 21.25 11.25ZM16.25 16.25H8.75C8.41848 16.25 8.10054 16.3817 7.86612 16.6161C7.6317 16.8505 7.5 17.1685 7.5 17.5C7.5 17.8315 7.6317 18.1495 7.86612 18.3839C8.10054 18.6183 8.41848 18.75 8.75 18.75H16.25C16.5815 18.75 16.8995 18.6183 17.1339 18.3839C17.3683 18.1495 17.5 17.8315 17.5 17.5C17.5 17.1685 17.3683 16.8505 17.1339 16.6161C16.8995 16.3817 16.5815 16.25 16.25 16.25ZM15 2.5C13.3585 2.5 11.733 2.82332 10.2165 3.45151C8.69989 4.07969 7.3219 5.00043 6.16117 6.16117C3.81696 8.50537 2.5 11.6848 2.5 15C2.48907 17.8864 3.48849 20.6857 5.325 22.9125L2.825 25.4125C2.65155 25.5883 2.53406 25.8115 2.48734 26.054C2.44062 26.2965 2.46678 26.5474 2.5625 26.775C2.66632 26.9999 2.83463 27.1889 3.04606 27.318C3.25749 27.4471 3.5025 27.5104 3.75 27.5H15C18.3152 27.5 21.4946 26.183 23.8388 23.8388C26.183 21.4946 27.5 18.3152 27.5 15C27.5 11.6848 26.183 8.50537 23.8388 6.16117C21.4946 3.81696 18.3152 2.5 15 2.5ZM15 25H6.7625L7.925 23.8375C8.15781 23.6033 8.28849 23.2865 8.28849 22.9562C8.28849 22.626 8.15781 22.3092 7.925 22.075C6.28823 20.4401 5.26897 18.2882 5.04086 15.986C4.81276 13.6838 5.38993 11.3738 6.67403 9.4494C7.95814 7.52505 9.86974 6.10545 12.0831 5.43247C14.2965 4.75948 16.6748 4.87476 18.8128 5.75864C20.9507 6.64253 22.7161 8.24034 23.808 10.2799C24.9 12.3194 25.2511 14.6744 24.8014 16.9438C24.3517 19.2131 23.1291 21.2563 21.3419 22.7253C19.5547 24.1943 17.3135 24.9982 15 25Z" fill="#818181"/>
</svg>
