<svg width="30" height="30" viewBox="0 0 30 30" fill="none" xmlns="http://www.w3.org/2000/svg">
<g clip-path="url(#clip0_6_56)">
<path d="M16.75 15L24.625 7.125C25.125 6.625 25.125 5.875 24.625 5.375C24.125 4.875 23.375 4.875 22.875 5.375L15 13.25L7.125 5.375C6.625 4.875 5.875 4.875 5.375 5.375C4.875 5.875 4.875 6.625 5.375 7.125L13.25 15L5.375 22.875C5.125 23.125 5 23.375 5 23.75C5 24.5 5.5 25 6.25 25C6.625 25 6.875 24.875 7.125 24.625L15 16.75L22.875 24.625C23.125 24.875 23.375 25 23.75 25C24.125 25 24.375 24.875 24.625 24.625C25.125 24.125 25.125 23.375 24.625 22.875L16.75 15Z" fill="#818181"/>
</g>
<defs>
<clipPath id="clip0_6_56">
<rect width="30" height="30" rx="5" fill="white"/>
</clipPath>
</defs>
</svg>
