<svg width="30" height="30" viewBox="0 0 30 30" fill="none" xmlns="http://www.w3.org/2000/svg">
<path d="M13.7878 20.8996C13.611 20.7288 13.3742 20.6343 13.1284 20.6364C12.8826 20.6386 12.6474 20.7372 12.4736 20.911C12.2998 21.0848 12.2012 21.32 12.1991 21.5658C12.1969 21.8116 12.2914 22.0484 12.4622 22.2252L13.6744 23.4374H8.4375C8.18886 23.4374 7.9504 23.3386 7.77459 23.1628C7.59877 22.987 7.5 22.7485 7.5 22.4999V9.24176C8.38374 9.01358 9.15393 8.47092 9.66619 7.7155C10.1785 6.96009 10.3976 6.04377 10.2826 5.13832C10.1676 4.23287 9.72632 3.40045 9.04147 2.79708C8.35662 2.19372 7.47522 1.86084 6.5625 1.86084C5.64977 1.86084 4.76838 2.19372 4.08353 2.79708C3.39868 3.40045 2.9574 4.23287 2.84239 5.13832C2.72738 6.04377 2.94655 6.96009 3.45881 7.7155C3.97107 8.47092 4.74126 9.01358 5.625 9.24176V22.4999C5.625 23.2458 5.92132 23.9612 6.44876 24.4886C6.97621 25.0161 7.69158 25.3124 8.4375 25.3124H13.6744L12.4622 26.5246C12.3726 26.6111 12.3012 26.7145 12.2521 26.8289C12.203 26.9433 12.1771 27.0663 12.176 27.1908C12.1749 27.3152 12.1987 27.4387 12.2458 27.5539C12.2929 27.6691 12.3625 27.7738 12.4506 27.8618C12.5386 27.9498 12.6433 28.0195 12.7585 28.0666C12.8737 28.1137 12.9971 28.1375 13.1216 28.1364C13.2461 28.1353 13.3691 28.1094 13.4835 28.0603C13.5979 28.0112 13.7013 27.9397 13.7878 27.8502L16.6003 25.0377C16.7761 24.8619 16.8748 24.6235 16.8748 24.3749C16.8748 24.1263 16.7761 23.8879 16.6003 23.7121L13.7878 20.8996ZM4.6875 5.62489C4.6875 5.25405 4.79747 4.89153 5.00349 4.58319C5.20952 4.27485 5.50236 4.03453 5.84497 3.89261C6.18758 3.7507 6.56458 3.71357 6.92829 3.78591C7.29201 3.85826 7.6261 4.03684 7.88832 4.29906C8.15055 4.56128 8.32912 4.89538 8.40147 5.25909C8.47382 5.62281 8.43669 5.99981 8.29477 6.34242C8.15286 6.68503 7.91254 6.97786 7.60419 7.18389C7.29585 7.38992 6.93334 7.49989 6.5625 7.49989C6.06522 7.49989 5.5883 7.30234 5.23667 6.95071C4.88504 6.59908 4.6875 6.12217 4.6875 5.62489ZM24.375 20.758V7.49989C24.375 6.75397 24.0787 6.03859 23.5512 5.51115C23.0238 4.9837 22.3084 4.68739 21.5625 4.68739H16.3256L17.5378 3.4752C17.6274 3.38872 17.6988 3.28527 17.7479 3.17089C17.797 3.05651 17.8229 2.93349 17.824 2.80901C17.8251 2.68453 17.8013 2.56108 17.7542 2.44587C17.7071 2.33065 17.6375 2.22598 17.5494 2.13795C17.4614 2.04993 17.3567 1.98032 17.2415 1.93318C17.1263 1.88604 17.0029 1.86232 16.8784 1.8634C16.7539 1.86448 16.6309 1.89035 16.5165 1.93948C16.4021 1.98861 16.2987 2.06003 16.2122 2.14957L13.3997 4.96207C13.2239 5.13788 13.1252 5.3763 13.1252 5.62489C13.1252 5.87348 13.2239 6.11189 13.3997 6.2877L16.2122 9.1002C16.389 9.27097 16.6258 9.36547 16.8716 9.36333C17.1174 9.36119 17.3526 9.2626 17.5264 9.08878C17.7002 8.91496 17.7988 8.67982 17.8009 8.43401C17.8031 8.1882 17.7086 7.95139 17.5378 7.77457L16.3256 6.56239H21.5625C21.8111 6.56239 22.0496 6.66116 22.2254 6.83697C22.4012 7.01279 22.5 7.25125 22.5 7.49989V20.758C21.6163 20.9862 20.8461 21.5289 20.3338 22.2843C19.8215 23.0397 19.6024 23.956 19.7174 24.8615C19.8324 25.7669 20.2737 26.5993 20.9585 27.2027C21.6434 27.8061 22.5248 28.1389 23.4375 28.1389C24.3502 28.1389 25.2316 27.8061 25.9165 27.2027C26.6013 26.5993 27.0426 25.7669 27.1576 24.8615C27.2726 23.956 27.0534 23.0397 26.5412 22.2843C26.0289 21.5289 25.2587 20.9862 24.375 20.758ZM23.4375 26.2499C23.0667 26.2499 22.7041 26.1399 22.3958 25.9339C22.0875 25.7279 21.8471 25.435 21.7052 25.0924C21.5633 24.7498 21.5262 24.3728 21.5985 24.0091C21.6709 23.6454 21.8495 23.3113 22.1117 23.0491C22.3739 22.7868 22.708 22.6083 23.0717 22.5359C23.4354 22.4636 23.8124 22.5007 24.155 22.6426C24.4976 22.7845 24.7905 23.0249 24.9965 23.3332C25.2025 23.6415 25.3125 24.004 25.3125 24.3749C25.3125 24.8722 25.115 25.3491 24.7633 25.7007C24.4117 26.0523 23.9348 26.2499 23.4375 26.2499Z" fill="#818181"/>
</svg>
