<svg width="30" height="30" viewBox="0 0 30 30" fill="none" xmlns="http://www.w3.org/2000/svg">
<path d="M10.9959 24.3298C10.3959 24.3298 9.79593 24.101 9.33843 23.6445L4.69875 19.0039C4.25531 18.5614 4.0125 17.9726 4.0125 17.3464C4.0125 16.7201 4.25625 16.1314 4.69875 15.6889L13.1934 7.19324C13.5952 6.79202 14.1288 6.5499 14.6953 6.51167L18.1153 6.28386C18.4485 6.26314 18.7823 6.31315 19.0948 6.43062C19.4073 6.54808 19.6914 6.73034 19.9284 6.96542L21.3769 8.41386C21.855 8.89199 22.1034 9.55292 22.0594 10.227L21.8306 13.647C21.7926 14.2136 21.5504 14.7471 21.1491 15.1489L12.6544 23.6435C12.4367 23.8615 12.1782 24.0343 11.8936 24.1521C11.609 24.2698 11.3039 24.3302 10.9959 24.3298ZM10.0012 22.9817C10.2652 23.2451 10.623 23.3931 10.9959 23.3931C11.3689 23.3931 11.7266 23.2451 11.9906 22.9817L20.4853 14.487C20.7262 14.246 20.8706 13.9264 20.8941 13.586L21.1228 10.166C21.1358 9.96593 21.106 9.76534 21.0353 9.57765C20.9647 9.38997 20.8548 9.2195 20.7131 9.07761L19.2647 7.62917C19.1237 7.48649 18.9535 7.37606 18.7658 7.3055C18.578 7.23493 18.3772 7.20591 18.1772 7.22042L14.7562 7.44917C14.4163 7.4718 14.0962 7.61705 13.8553 7.85792L5.36062 16.3526C5.09531 16.6179 4.94906 16.9714 4.94906 17.3473C4.94906 17.7232 5.09531 18.0757 5.36062 18.342L10.0012 22.9817Z" fill="#818181"/>
<path d="M18 11.7067C17.8153 11.707 17.6324 11.6709 17.4616 11.6005C17.2909 11.53 17.1358 11.4265 17.0051 11.2959C16.8745 11.1654 16.7709 11.0103 16.7003 10.8396C16.6297 10.669 16.5935 10.486 16.5938 10.3013C16.5933 10.0697 16.6501 9.84152 16.759 9.63707C16.868 9.43263 17.0257 9.25824 17.2182 9.12939C17.4107 9.00053 17.6321 8.92119 17.8626 8.89842C18.0931 8.87564 18.3257 8.91013 18.5397 8.99883C18.7537 9.08752 18.9425 9.22768 19.0893 9.40685C19.2362 9.58603 19.3365 9.79868 19.3814 10.0259C19.4263 10.2532 19.4145 10.488 19.3468 10.7096C19.2792 10.9312 19.1579 11.1326 18.9938 11.296C18.8633 11.4266 18.7084 11.53 18.5378 11.6005C18.3673 11.671 18.1845 11.707 18 11.7067ZM18 9.8326C17.907 9.8317 17.8158 9.85864 17.7381 9.90993C17.6605 9.96123 17.6 10.0346 17.5643 10.1205C17.5287 10.2064 17.5195 10.3011 17.538 10.3923C17.5565 10.4834 17.6018 10.567 17.6681 10.6323C17.756 10.7202 17.8752 10.7695 17.9995 10.7695C18.1238 10.7695 18.243 10.7202 18.3309 10.6323C18.3958 10.5666 18.4399 10.4832 18.4577 10.3925C18.4754 10.3019 18.466 10.208 18.4307 10.1227C18.3954 10.0373 18.3357 9.96429 18.2591 9.9127C18.1825 9.8611 18.0924 9.83324 18 9.8326Z" fill="#818181"/>
<path d="M21.3891 13.6727C21.2743 13.6728 21.1635 13.6308 21.0776 13.5547C20.9918 13.4785 20.9368 13.3736 20.9232 13.2596C20.9095 13.1457 20.9382 13.0307 21.0036 12.9364C21.0691 12.8422 21.1669 12.7753 21.2784 12.7483C22.0828 12.5533 22.9041 12.0677 23.5913 11.3805C25.0284 9.94329 25.4841 7.96985 24.5859 7.07172C23.6878 6.1736 21.7144 6.62922 20.2763 8.06641C19.7708 8.56432 19.3687 9.15725 19.0931 9.8111C19.072 9.8709 19.039 9.9258 18.996 9.97246C18.953 10.0191 18.901 10.0566 18.8432 10.0826C18.7853 10.1085 18.7228 10.1225 18.6594 10.1236C18.596 10.1247 18.533 10.113 18.4742 10.089C18.4155 10.0651 18.3622 10.0295 18.3177 9.98436C18.2731 9.93923 18.2381 9.88553 18.2149 9.8265C18.1917 9.76748 18.1807 9.70435 18.1826 9.64095C18.1845 9.57755 18.1992 9.5152 18.2259 9.45766C18.5485 8.6882 19.0201 7.99012 19.6134 7.4036C21.4706 5.54547 23.9447 5.10672 25.2488 6.40891C26.55 7.71016 26.1131 10.1842 24.2541 12.0433C23.4478 12.8505 22.4691 13.4242 21.4997 13.6595C21.4635 13.6685 21.4263 13.6729 21.3891 13.6727Z" fill="#818181"/>
<path d="M8.67562 17.4845C8.58298 17.4845 8.49243 17.457 8.41539 17.4056C8.33835 17.3541 8.27828 17.281 8.24277 17.1954C8.20726 17.1099 8.1979 17.0157 8.21588 16.9248C8.23385 16.8339 8.27834 16.7504 8.34375 16.6848L12.9844 12.0442C13.0728 11.9588 13.1912 11.9115 13.3141 11.9126C13.437 11.9137 13.5546 11.963 13.6415 12.0499C13.7284 12.1368 13.7777 12.2544 13.7787 12.3773C13.7798 12.5002 13.7326 12.6186 13.6472 12.707L9.00656 17.3476C8.96312 17.3911 8.91153 17.4256 8.85474 17.449C8.79795 17.4725 8.73708 17.4846 8.67562 17.4845ZM11.3269 20.1357C11.2342 20.1357 11.1437 20.1083 11.0666 20.0568C10.9896 20.0054 10.9295 19.9322 10.894 19.8467C10.8585 19.7611 10.8492 19.6669 10.8671 19.5761C10.8851 19.4852 10.9296 19.4017 10.995 19.3361L15.6356 14.6954C15.724 14.61 15.8424 14.5628 15.9653 14.5639C16.0882 14.5649 16.2058 14.6142 16.2927 14.7011C16.3796 14.7881 16.4289 14.9056 16.43 15.0285C16.4311 15.1514 16.3838 15.2698 16.2984 15.3582L11.6578 19.9989C11.6144 20.0423 11.5628 20.0768 11.506 20.1003C11.4492 20.1238 11.3883 20.1358 11.3269 20.1357Z" fill="#818181"/>
</svg>
