<svg width="30" height="30" viewBox="0 0 30 30" fill="none" xmlns="http://www.w3.org/2000/svg">
<path d="M13.4053 26.0885C12.9652 26.0885 12.4092 25.9394 11.2959 25.3263C10.6638 24.9773 10.0533 24.5905 9.46781 24.168L6.88265 24.9433C6.81218 24.9644 6.73774 24.9686 6.66534 24.9556C6.59295 24.9425 6.52464 24.9126 6.46594 24.8683C5.0724 23.8192 3.98522 22.4161 3.31734 20.8047C3.2888 20.736 3.27706 20.6614 3.28309 20.5871C3.28912 20.5129 3.31275 20.4412 3.35201 20.3779C3.39128 20.3147 3.44505 20.2617 3.50888 20.2233C3.57271 20.1849 3.64476 20.1624 3.71906 20.1574C5.07627 20.0726 6.40589 19.7363 7.64015 19.1655C8.06875 18.9657 8.48371 18.7379 8.88234 18.4835C9.4342 18.0964 10.0179 17.7568 10.627 17.4682C11.0027 17.3044 11.3874 17.162 11.7792 17.0416C11.8144 17.0322 11.8734 17.0163 11.9498 16.9938L12.0281 16.9694C12.1036 16.946 12.1734 16.924 12.3398 16.8804C12.4978 16.8396 12.7102 16.788 12.9727 16.7341C13.5672 16.5916 14.1802 16.5416 14.79 16.586C15.0625 16.606 15.3321 16.6545 15.5944 16.7308C15.9422 16.8349 16.2539 16.9619 16.5553 17.0843C16.8791 17.223 17.2104 17.3435 17.5477 17.4452C17.8384 17.5284 18.1368 17.5823 18.4383 17.606C18.7369 17.6346 19.1086 17.6702 19.2698 18.0649C19.318 18.1984 19.3352 18.341 19.32 18.4821C19.3048 18.6232 19.2577 18.759 19.1822 18.8791C18.9766 19.2791 18.6419 19.598 18.2324 19.7839C17.8229 19.9698 17.3625 20.0119 16.9261 19.9033C16.7967 19.8836 16.6791 19.8611 16.5708 19.8358C16.7319 19.9516 16.9007 20.0562 17.0761 20.149C17.74 20.4988 18.4821 20.6735 19.2323 20.6566L20.648 20.6561C20.7639 20.6562 20.8758 20.6993 20.9618 20.7771C21.0479 20.8548 21.1021 20.9617 21.1139 21.0771C21.1605 21.4559 21.0945 21.84 20.9241 22.1815C20.4787 23.0449 19.3631 23.4836 18.1059 23.3055C17.1467 24.0529 16.1618 24.7666 15.1528 25.4454C14.678 25.8105 14.1088 26.0326 13.5122 26.0857C13.4766 26.0875 13.441 26.0884 13.4053 26.0885ZM9.5564 23.1832C9.65687 23.1833 9.75464 23.2156 9.83531 23.2755C10.4446 23.7276 11.0836 24.1384 11.7478 24.505C12.9666 25.1758 13.3017 25.1575 13.4625 25.1496C13.8897 25.1036 14.2948 24.9361 14.6297 24.6668C15.6769 23.9623 16.6979 23.2196 17.6906 22.4402C17.7435 22.3986 17.8047 22.369 17.8701 22.3533C17.9354 22.3376 18.0034 22.3362 18.0694 22.3493C18.9712 22.5246 19.8216 22.2733 20.0906 21.7521C20.1166 21.7015 20.1374 21.6484 20.1525 21.5936H19.2436C18.3682 21.6131 17.5015 21.4163 16.7205 21.0205C15.9394 20.6247 15.2681 20.0423 14.7661 19.3249C14.5655 19.3113 14.3643 19.3115 14.1637 19.3254C14.0794 19.3315 14.0091 19.3385 13.9622 19.3441C13.8387 19.3584 13.7145 19.3231 13.6171 19.2458C13.5196 19.1686 13.4569 19.0558 13.4426 18.9323C13.4283 18.8088 13.4636 18.6847 13.5409 18.5872C13.6181 18.4898 13.7309 18.427 13.8544 18.4127C13.9106 18.4061 13.995 18.3977 14.0991 18.3902C14.4262 18.368 14.7548 18.3754 15.0806 18.4122L15.0895 18.4132C15.4353 18.4572 15.7727 18.5515 16.0912 18.693C16.4034 18.8295 16.7319 18.9249 17.0686 18.9766C17.236 19.0194 17.4098 19.031 17.5814 19.0108C17.8668 18.9376 18.1189 18.7695 18.2962 18.5341C17.9554 18.504 17.6182 18.4412 17.2894 18.3466C16.9198 18.2357 16.5568 18.1042 16.2019 17.9529C15.908 17.8329 15.6305 17.7204 15.3253 17.629C15.1253 17.5711 14.9198 17.5347 14.7122 17.5202C14.1911 17.4847 13.6676 17.5294 13.1602 17.6529C12.9173 17.7025 12.7209 17.7504 12.5752 17.7879C12.4322 17.8254 12.3727 17.8441 12.308 17.8638L12.2184 17.8919C12.1294 17.9182 12.0605 17.9369 12.0323 17.944C11.6859 18.052 11.3454 18.1784 11.0123 18.3227C10.4522 18.5903 9.9152 18.9039 9.40687 19.2602C8.96718 19.5421 8.50913 19.7942 8.03578 20.0149C6.90199 20.5409 5.69196 20.8837 4.45078 21.0307C5.02548 22.1744 5.84219 23.1794 6.84422 23.9758L9.42187 23.2033C9.46552 23.1902 9.51084 23.1831 9.5564 23.1832Z" fill="#818181"/>
<path d="M23.9062 21.5625H18.5578C18.4335 21.5625 18.3143 21.5131 18.2264 21.4252C18.1384 21.3373 18.0891 21.2181 18.0891 21.0938C18.0891 20.9694 18.1384 20.8502 18.2264 20.7623C18.3143 20.6744 18.4335 20.625 18.5578 20.625H23.4375V6.09375H7.96875V19.7437C7.96875 19.8681 7.91936 19.9873 7.83146 20.0752C7.74355 20.1631 7.62432 20.2125 7.5 20.2125C7.37568 20.2125 7.25645 20.1631 7.16854 20.0752C7.08064 19.9873 7.03125 19.8681 7.03125 19.7437V5.625C7.03125 5.50068 7.08064 5.38145 7.16854 5.29354C7.25645 5.20564 7.37568 5.15625 7.5 5.15625H23.9062C24.0306 5.15625 24.1498 5.20564 24.2377 5.29354C24.3256 5.38145 24.375 5.50068 24.375 5.625V21.0938C24.375 21.2181 24.3256 21.3373 24.2377 21.4252C24.1498 21.5131 24.0306 21.5625 23.9062 21.5625Z" fill="#818181"/>
<path d="M17.5781 9.84375H13.8281C13.7038 9.84375 13.5846 9.79436 13.4967 9.70646C13.4088 9.61855 13.3594 9.49932 13.3594 9.375V5.625C13.3594 5.50068 13.4088 5.38145 13.4967 5.29354C13.5846 5.20564 13.7038 5.15625 13.8281 5.15625H17.5781C17.7024 5.15625 17.8217 5.20564 17.9096 5.29354C17.9975 5.38145 18.0469 5.50068 18.0469 5.625V9.375C18.0469 9.49932 17.9975 9.61855 17.9096 9.70646C17.8217 9.79436 17.7024 9.84375 17.5781 9.84375ZM14.2969 8.90625H17.1094V6.09375H14.2969V8.90625Z" fill="#818181"/>
</svg>
