<svg width="38" height="34" viewBox="0 0 38 34" fill="none" xmlns="http://www.w3.org/2000/svg">
<rect width="38" height="34" rx="8" fill="#008FD5" fill-opacity="0.05"/>
<path d="M25.1875 11.375H22.375V9.6875C22.375 9.53832 22.3157 9.39524 22.2102 9.28975C22.1048 9.18426 21.9617 9.125 21.8125 9.125H16.1875C16.0383 9.125 15.8952 9.18426 15.7898 9.28975C15.6843 9.39524 15.625 9.53832 15.625 9.6875V11.375H12.8125V12.5H13.9375V23.1875C13.9375 23.6351 14.1153 24.0643 14.4318 24.3807C14.7482 24.6972 15.1774 24.875 15.625 24.875H22.375C22.8226 24.875 23.2518 24.6972 23.5682 24.3807C23.8847 24.0643 24.0625 23.6351 24.0625 23.1875V12.5H25.1875V11.375ZM16.75 10.25H21.25V11.375H16.75V10.25ZM22.9375 23.1875C22.9375 23.3367 22.8782 23.4798 22.7727 23.5852C22.6673 23.6907 22.5242 23.75 22.375 23.75H15.625C15.4758 23.75 15.3327 23.6907 15.2273 23.5852C15.1218 23.4798 15.0625 23.3367 15.0625 23.1875V12.5H22.9375V23.1875ZM17.3125 15.875H18.4375V20.375H17.3125V15.875ZM19.5625 15.875H20.6875V20.375H19.5625V15.875Z" fill="#008FD5"/>
</svg>
