<svg width="30" height="30" viewBox="0 0 30 30" fill="none" xmlns="http://www.w3.org/2000/svg">
<path d="M18.3938 7.50005C18.5437 7.48927 18.6921 7.5364 18.8084 7.63174C18.9247 7.72708 18.9999 7.86337 19.0188 8.01255C19.4188 11.6375 18.2 14.1625 15.3813 15.4438L15.2125 15.5188C12.775 16.5625 11.75 18.6438 12.0875 21.8375C12.1042 21.917 12.1041 21.9991 12.0872 22.0785C12.0703 22.1579 12.0369 22.2329 11.9893 22.2986C11.9416 22.3643 11.8807 22.4193 11.8105 22.4601C11.7402 22.5008 11.6623 22.5264 11.5815 22.5352C11.5008 22.544 11.4192 22.5357 11.3418 22.511C11.2645 22.4863 11.1932 22.4457 11.1325 22.3917C11.0718 22.3378 11.0231 22.2717 10.9895 22.1978C10.956 22.1239 10.9382 22.0437 10.9375 21.9625C10.5375 18.3375 11.7563 15.8125 14.575 14.5313L14.7438 14.4563C17.1813 13.4125 18.2063 11.3313 17.8688 8.13755C17.858 7.98758 17.9051 7.83918 18.0004 7.72291C18.0958 7.60664 18.2321 7.53136 18.3813 7.51255L18.3938 7.50005Z" fill="#818181"/>
<path d="M16.4875 15.9062C16.4381 15.9636 16.4005 16.0302 16.3769 16.1021C16.3533 16.174 16.3442 16.2499 16.35 16.3254C16.3558 16.4009 16.3764 16.4745 16.4108 16.542C16.4451 16.6095 16.4924 16.6696 16.55 16.7187C17.4063 17.4625 17.8813 19.2187 17.8813 21.9187C17.8813 21.9942 17.8961 22.069 17.925 22.1387C17.9539 22.2085 17.9963 22.2719 18.0497 22.3253C18.1031 22.3787 18.1664 22.421 18.2362 22.4499C18.306 22.4788 18.3807 22.4937 18.4563 22.4937C18.5318 22.4937 18.6065 22.4788 18.6763 22.4499C18.7461 22.421 18.8094 22.3787 18.8628 22.3253C18.9162 22.2719 18.9586 22.2085 18.9875 22.1387C19.0164 22.069 19.0313 21.9942 19.0313 21.9187C19.0313 18.8875 18.4813 16.8625 17.3 15.8437C17.2434 15.7932 17.1772 15.7544 17.1054 15.7298C17.0336 15.7053 16.9576 15.6953 16.8819 15.7005C16.8062 15.7058 16.7323 15.7261 16.6645 15.7604C16.5968 15.7946 16.5366 15.8421 16.4875 15.9V15.9062ZM10.975 8.01246C10.5625 11.0937 11.2063 13.2375 12.9625 14.3375C13.0918 14.4203 13.2487 14.4485 13.3987 14.4156C13.5488 14.3828 13.6796 14.2917 13.7625 14.1625C13.8454 14.0332 13.8735 13.8762 13.8407 13.7262C13.8079 13.5762 13.7168 13.4453 13.5875 13.3625C12.2813 12.5375 11.7688 10.8625 12.125 8.16246C12.1482 8.01161 12.1105 7.85773 12.0203 7.73466C11.93 7.61159 11.7946 7.52941 11.6438 7.50621C11.4929 7.483 11.339 7.52066 11.216 7.61092C11.0929 7.70117 11.0107 7.83661 10.9875 7.98746L10.975 8.01246ZM16.725 8.64996C16.869 8.6536 17.0063 8.71114 17.1099 8.81119C17.2135 8.91124 17.2758 9.04652 17.2844 9.19027C17.2931 9.33403 17.2474 9.47579 17.1566 9.58753C17.0657 9.69927 16.9363 9.77284 16.7938 9.79371H13.275C13.1219 9.79371 12.975 9.73333 12.8662 9.62568C12.7574 9.51802 12.6954 9.37178 12.6938 9.21871C12.6956 9.07721 12.7485 8.94114 12.8426 8.8355C12.9368 8.72986 13.0659 8.66176 13.2063 8.64371H16.725V8.64996Z" fill="#818181"/>
<path d="M16.725 10.9498C16.8775 10.9406 17.0274 10.9925 17.1417 11.0939C17.2559 11.1953 17.3253 11.3379 17.3344 11.4904C17.3435 11.6429 17.2917 11.7928 17.1903 11.907C17.0889 12.0213 16.9462 12.0906 16.7937 12.0998H13.275C13.1225 12.1089 12.9726 12.057 12.8583 11.9557C12.7441 11.8543 12.6747 11.7116 12.6656 11.5591C12.6565 11.4066 12.7083 11.2568 12.8097 11.1425C12.9111 11.0282 13.0537 10.9589 13.2062 10.9498H16.725ZM16.725 17.8623C16.8005 17.8577 16.8762 17.8681 16.9477 17.8929C17.0191 17.9176 17.0851 17.9562 17.1417 18.0064C17.1982 18.0566 17.2444 18.1174 17.2775 18.1855C17.3105 18.2535 17.3299 18.3274 17.3344 18.4029C17.3389 18.4784 17.3285 18.5541 17.3038 18.6255C17.279 18.697 17.2405 18.763 17.1903 18.8195C17.1401 18.8761 17.0792 18.9223 17.0112 18.9553C16.9431 18.9884 16.8693 19.0077 16.7937 19.0123H13.275C13.131 19.0086 12.9937 18.9511 12.8901 18.851C12.7865 18.751 12.7242 18.6157 12.7156 18.4719C12.7069 18.3282 12.7526 18.1864 12.8434 18.0747C12.9343 17.9629 13.0638 17.8894 13.2062 17.8685H16.725V17.8623ZM16.725 20.1685C16.869 20.1722 17.0063 20.2297 17.1099 20.3297C17.2135 20.4298 17.2758 20.5651 17.2844 20.7088C17.2931 20.8526 17.2474 20.9943 17.1566 21.1061C17.0657 21.2178 16.9362 21.2914 16.7937 21.3123H13.275C13.1219 21.3123 12.975 21.2519 12.8662 21.1442C12.7574 21.0366 12.6954 20.8903 12.6937 20.7373C12.6956 20.5958 12.7485 20.4597 12.8426 20.3541C12.9368 20.2484 13.0659 20.1803 13.2062 20.1623H16.725V20.1685Z" fill="#818181"/>
</svg>
