<svg width="30" height="30" viewBox="0 0 30 30" fill="none" xmlns="http://www.w3.org/2000/svg">
<g clip-path="url(#clip0_2268_13717)">
<path d="M21.912 18.2582C21.912 19.5182 22.2705 20.0207 23.208 20.0207C25.2975 20.0207 26.628 17.3582 26.628 12.9302C26.628 6.1622 21.696 2.9222 15.5385 2.9222C9.20399 2.9222 3.44248 7.1702 3.44248 15.1982C3.44248 22.8662 8.48248 27.0422 16.2225 27.0422C18.8505 27.0422 20.6145 26.7542 23.313 25.8542L23.892 28.2647C21.228 29.1302 18.381 29.3807 16.1865 29.3807C6.03449 29.3807 0.596985 23.8007 0.596985 15.1967C0.596985 6.5207 6.89849 0.616699 15.5745 0.616699C24.6105 0.616699 29.397 6.0167 29.397 12.6407C29.397 18.2567 27.6345 22.5407 22.0905 22.5407C19.569 22.5407 17.9145 21.5327 17.6985 19.2992C17.0505 21.7832 15.3225 22.5407 12.981 22.5407C9.84899 22.5407 7.22099 20.1272 7.22099 15.2687C7.22099 10.3727 9.52649 7.3487 13.6665 7.3487C15.8625 7.3487 17.2305 8.2127 17.8395 9.5807L18.885 7.6727H21.909V18.2582H21.912ZM17.4855 13.5062C17.4855 11.5277 16.008 10.6982 14.784 10.6982C13.452 10.6982 11.9775 11.7767 11.9775 14.9462C11.9775 17.4662 13.0935 18.8702 14.784 18.8702C15.972 18.8702 17.4855 18.1142 17.4855 16.0262V13.5062Z" fill="#818181"/>
</g>
<defs>
<clipPath id="clip0_2268_13717">
<rect width="30" height="30" fill="white"/>
</clipPath>
</defs>
</svg>
