<svg width="32" height="32" viewBox="0 0 32 32" fill="none" xmlns="http://www.w3.org/2000/svg">
<path fill-rule="evenodd" clip-rule="evenodd" d="M12.4901 28.943L3.56115 25.5037C3.22238 25.3732 3.00003 25.0493 3.00003 24.6869V4.87698C2.99566 4.43491 3.4281 3.96921 3.87542 4.0016H19.5588C19.791 4.0016 20.0136 4.09383 20.1778 4.25799C20.342 4.42216 20.4342 4.64482 20.4342 4.87698V11.4389C20.4342 11.671 20.342 11.8937 20.1778 12.0578C20.0136 12.222 19.791 12.3142 19.5588 12.3142C19.3266 12.3142 19.104 12.222 18.9398 12.0578C18.7756 11.8937 18.6834 11.671 18.6834 11.4389V5.75149H8.58411L13.1186 7.49788C13.2838 7.56144 13.4259 7.6736 13.5261 7.81957C13.6263 7.96554 13.6798 8.13845 13.6797 8.31549V23.8107H18.6834V18.1233C18.6834 17.8911 18.7756 17.6685 18.9398 17.5043C19.104 17.3401 19.3266 17.2479 19.5588 17.2479C19.791 17.2479 20.0136 17.3401 20.1778 17.5043C20.342 17.6685 20.4342 17.8911 20.4342 18.1233V24.686C20.4342 24.9182 20.342 25.1409 20.1778 25.305C20.0136 25.4692 19.791 25.5614 19.5588 25.5614H13.6797V28.1254C13.685 28.7286 13.0486 29.1601 12.4901 28.943ZM4.7508 24.0855L11.9289 26.85V8.91688L4.7508 6.15242V24.0855ZM24.4218 19.2201C24.3156 19.1761 24.2192 19.1115 24.1379 19.0301C24.0565 18.9488 23.9919 18.8521 23.9479 18.7458C23.9038 18.6395 23.8811 18.5255 23.8811 18.4104C23.8811 18.2953 23.9038 18.1813 23.9479 18.0749C23.9919 17.9686 24.0565 17.872 24.1379 17.7906L26.273 15.6555H15.8305C15.5984 15.6555 15.3757 15.5633 15.2115 15.3991C15.0474 15.235 14.9552 15.0123 14.9552 14.7802C14.9552 14.548 15.0474 14.3253 15.2115 14.1612C15.3757 13.997 15.5984 13.9048 15.8305 13.9048H26.273L24.1379 11.7706C24.0567 11.6893 23.9922 11.5928 23.9482 11.4866C23.9042 11.3804 23.8816 11.2666 23.8816 11.1517C23.8816 11.0367 23.9042 10.9229 23.9482 10.8167C23.9922 10.7106 24.0567 10.6141 24.1379 10.5328C24.2192 10.4515 24.3157 10.387 24.4219 10.3431C24.5281 10.2991 24.6419 10.2764 24.7568 10.2764C24.8718 10.2764 24.9856 10.2991 25.0918 10.3431C25.198 10.387 25.2945 10.4515 25.3757 10.5328L29.0051 14.1621C29.0865 14.2434 29.151 14.34 29.1951 14.4462C29.2391 14.5525 29.2618 14.6664 29.2618 14.7815C29.2618 14.8965 29.2391 15.0104 29.1951 15.1167C29.151 15.223 29.0865 15.3195 29.0051 15.4008L25.3757 19.0301C25.2945 19.1115 25.198 19.1761 25.0918 19.2201C24.9856 19.2641 24.8718 19.2868 24.7568 19.2868C24.6419 19.2868 24.528 19.2641 24.4218 19.2201Z" fill="#818181"/>
</svg>
