<svg width="34" height="30" viewBox="0 0 34 30" fill="none" xmlns="http://www.w3.org/2000/svg">
<g clip-path="url(#clip0_2644_5366)">
<path d="M15.3007 30.0002H0.648241C0.560187 30.0003 0.473031 29.9825 0.39209 29.9478C0.311148 29.9132 0.238118 29.8624 0.177451 29.7986C0.116785 29.7347 0.0697547 29.6592 0.039229 29.5766C0.00870325 29.494 -0.00467824 29.4061 -9.93432e-05 29.3182L1.01974 9.54378C1.02361 9.46743 1.04095 9.39236 1.07096 9.32205L2.98227 4.85823C3.03229 4.74153 3.11549 4.64208 3.22152 4.57224C3.32756 4.50239 3.45177 4.46522 3.57874 4.46533H18.7434C18.8703 4.46535 18.9943 4.50258 19.1003 4.57242C19.2062 4.64225 19.2893 4.74163 19.3392 4.85823L21.2512 9.32335C21.2812 9.39366 21.2985 9.46873 21.3024 9.54508L21.8768 20.6907C21.8854 20.8626 21.8254 21.031 21.7099 21.1586C21.5944 21.2863 21.4329 21.3629 21.2609 21.3715C21.089 21.3801 20.9206 21.32 20.793 21.2045C20.6653 21.089 20.5888 20.9275 20.5802 20.7555L20.0142 9.72532L18.3162 5.76201H4.00664L2.30929 9.72532L1.33094 28.7035H15.3007C15.4727 28.7035 15.6376 28.7718 15.7592 28.8934C15.8808 29.015 15.9491 29.1799 15.9491 29.3519C15.9491 29.5238 15.8808 29.6887 15.7592 29.8103C15.6376 29.9319 15.4727 30.0002 15.3007 30.0002Z" fill="#818181"/>
<path d="M18.7437 5.7618H3.579C3.40705 5.7618 3.24215 5.69349 3.12056 5.57191C2.99897 5.45032 2.93066 5.28541 2.93066 5.11346V3.11203C2.93221 2.28714 3.26058 1.49648 3.84386 0.913197C4.42715 0.329912 5.21781 0.00154233 6.0427 0L16.278 0C17.1029 0.00154233 17.8936 0.329912 18.4769 0.913197C19.0602 1.49648 19.3885 2.28714 19.3901 3.11203V5.11346C19.3901 5.28507 19.322 5.44969 19.2009 5.57122C19.0797 5.69275 18.9153 5.76129 18.7437 5.7618ZM4.22734 4.46512H18.0953V3.11203C18.0941 2.63094 17.9025 2.16989 17.5623 1.82971C17.2221 1.48952 16.7611 1.29788 16.28 1.29668H6.04464C5.5635 1.29771 5.10235 1.4893 4.76213 1.82952C4.42191 2.16974 4.23032 2.63089 4.22929 3.11203L4.22734 4.46512ZM14.3103 26.3116C13.2345 26.3127 12.2018 25.8894 11.4362 25.1336C10.9822 25.5797 10.4306 25.914 9.82493 26.11C9.21931 26.306 8.57636 26.3582 7.94704 26.2626C7.31771 26.167 6.7193 25.9262 6.19921 25.5591C5.67912 25.1921 5.25164 24.709 4.95064 24.1482C4.64964 23.5873 4.4834 22.964 4.46507 22.3277C4.44674 21.6914 4.57684 21.0596 4.84505 20.4823C5.11327 19.9051 5.51223 19.3982 6.01033 19.0018C6.50843 18.6055 7.09199 18.3306 7.71477 18.1989C8.04147 17.4857 8.56609 16.8814 9.22626 16.4576C9.88643 16.0339 10.6544 15.8087 11.4388 15.8087C12.2233 15.8087 12.9912 16.0339 13.6514 16.4576C14.3116 16.8814 14.8362 17.4857 15.1629 18.1989C15.7598 18.3263 16.3208 18.5852 16.805 18.9568C17.2892 19.3284 17.6844 19.8033 17.9618 20.347C18.2393 20.8906 18.3919 21.4893 18.4088 22.0994C18.4256 22.7095 18.3061 23.3157 18.059 23.8738C17.9879 24.0287 17.8585 24.1494 17.6991 24.2096C17.5396 24.2699 17.3628 24.2649 17.207 24.1958C17.0512 24.1266 16.9288 23.9989 16.8665 23.8402C16.8041 23.6816 16.8068 23.5048 16.8739 23.348C17.0519 22.9456 17.1328 22.5069 17.11 22.0674C17.0872 21.6279 16.9614 21.1999 16.7426 20.8181C16.5239 20.4362 16.2184 20.1111 15.8508 19.8691C15.4833 19.6271 15.0639 19.4749 14.6267 19.4249C14.5048 19.4114 14.3893 19.3636 14.2934 19.2871C14.1976 19.2105 14.1255 19.1084 14.0854 18.9925C13.8954 18.4417 13.5383 17.9639 13.0639 17.6258C12.5895 17.2876 12.0214 17.1058 11.4388 17.1058C10.8562 17.1058 10.2881 17.2876 9.81374 17.6258C9.33935 17.9639 8.98228 18.4417 8.79231 18.9925C8.75221 19.1084 8.68006 19.2105 8.58424 19.2871C8.48841 19.3636 8.37284 19.4114 8.25094 19.4249C7.78236 19.4773 7.33454 19.647 6.94893 19.9183C6.56332 20.1896 6.25237 20.5538 6.04485 20.9772C5.83734 21.4006 5.73996 21.8695 5.76173 22.3405C5.7835 22.8115 5.92372 23.2694 6.1694 23.6718C6.41509 24.0742 6.75831 24.4082 7.1673 24.6428C7.5763 24.8774 8.03786 25.005 8.50928 25.0139C8.98069 25.0228 9.44674 24.9127 9.8643 24.6937C10.2819 24.4747 10.6374 24.1539 10.8981 23.761C10.9572 23.6718 11.0374 23.5986 11.1316 23.5479C11.2259 23.4972 11.3312 23.4707 11.4382 23.4706C11.5451 23.4706 11.6504 23.4971 11.7446 23.5476C11.8389 23.5982 11.9191 23.6713 11.9783 23.7604C12.183 24.0698 12.4473 24.3355 12.7556 24.5419C13.064 24.7483 13.4103 24.8913 13.7745 24.9627C14.1386 25.0341 14.5133 25.0323 14.8768 24.9576C15.2402 24.8829 15.5852 24.7366 15.8916 24.5274C15.9619 24.4793 16.041 24.4456 16.1243 24.428C16.2076 24.4105 16.2936 24.4096 16.3773 24.4253C16.461 24.441 16.5407 24.4731 16.612 24.5196C16.6833 24.5662 16.7448 24.6263 16.7928 24.6966C16.8409 24.7669 16.8746 24.8459 16.8921 24.9293C16.9097 25.0126 16.9106 25.0985 16.8949 25.1822C16.8791 25.2659 16.8471 25.3457 16.8006 25.417C16.754 25.4883 16.6939 25.5497 16.6236 25.5978C15.9425 26.0644 15.1359 26.3133 14.3103 26.3116ZM13.3605 15.3008C12.3802 15.3008 11.61 14.2907 11.61 13.0012C11.61 11.7116 12.3776 10.7015 13.3605 10.7015C14.3434 10.7015 15.111 11.7116 15.111 13.0012C15.111 14.2907 14.3408 15.3008 13.3605 15.3008ZM13.3605 11.9982C13.2056 11.9982 12.9067 12.3872 12.9067 13.0012C12.9067 13.6151 13.203 14.0042 13.3605 14.0042C13.5181 14.0042 13.8144 13.6151 13.8144 13.0012C13.8144 12.3872 13.5155 12.0008 13.3605 12.0008V11.9982Z" fill="#818181"/>
<path d="M16.3279 17.8801C16.1473 17.8808 15.9683 17.8464 15.8008 17.7789C14.8931 17.4126 14.5567 16.1886 15.0384 14.9911C15.2325 14.4871 15.5693 14.0507 16.0076 13.7352C16.4945 13.402 17.045 13.3203 17.5183 13.5116C18.4259 13.8779 18.7624 15.1019 18.2814 16.2994C18.0863 16.8038 17.7483 17.2402 17.3089 17.5553C17.022 17.7598 16.6801 17.873 16.3279 17.8801ZM16.986 14.7084C16.8958 14.7179 16.8099 14.752 16.7377 14.807C16.5109 14.9781 16.3376 15.2104 16.2384 15.4767C16.0096 16.0453 16.1393 16.5186 16.2832 16.5789C16.3441 16.6035 16.4589 16.5678 16.5762 16.4874C16.8029 16.3165 16.9761 16.0844 17.0755 15.8184C17.3043 15.2504 17.1746 14.7771 17.0307 14.7162C17.0165 14.7107 17.0013 14.7081 16.986 14.7084ZM5.99467 17.9903C5.64159 17.9842 5.29867 17.8711 5.01114 17.6661C4.57155 17.3515 4.23352 16.9152 4.03863 16.4109C3.55756 15.2148 3.89275 13.9907 4.80172 13.6231C5.27501 13.4325 5.82545 13.5142 6.31171 13.8474C6.7513 14.1621 7.08933 14.5983 7.28422 15.1026C7.76529 16.2988 7.43074 17.5228 6.52177 17.8905C6.35407 17.9571 6.17514 17.991 5.99467 17.9903ZM5.24454 15.9253C5.34331 16.1925 5.51655 16.4258 5.74376 16.5977C5.86046 16.6781 5.97587 16.7137 6.03681 16.6891C6.18074 16.6307 6.30976 16.1574 6.08155 15.5869C5.98215 15.3208 5.80899 15.0884 5.58233 14.9172C5.46498 14.8368 5.35022 14.8011 5.28928 14.8258C5.1447 14.8835 5.01568 15.3574 5.24454 15.9279V15.9253ZM8.96212 15.301C7.98183 15.301 7.21161 14.2909 7.21161 13.0013C7.21161 11.7118 7.97989 10.7017 8.96212 10.7017C9.94436 10.7017 10.7126 11.7118 10.7126 13.0013C10.7126 14.2909 9.94177 15.301 8.96212 15.301ZM8.96212 11.9983C8.80717 11.9983 8.50829 12.3873 8.50829 13.0013C8.50829 13.6153 8.80523 14.0043 8.96212 14.0043C9.11902 14.0043 9.41596 13.6153 9.41596 13.0013C9.41596 12.3873 9.11708 12.0009 8.96212 12.0009V11.9983ZM32.5066 30.0002H15.3003C15.2032 30.0001 15.1074 29.9783 15.0199 29.9363C14.9323 29.8943 14.8554 29.8332 14.7946 29.7574C14.7339 29.6817 14.6909 29.5933 14.6689 29.4987C14.6469 29.4042 14.6465 29.3059 14.6675 29.2111L15.9441 23.4701C15.976 23.326 16.0561 23.1971 16.1711 23.1047C16.2862 23.0122 16.4293 22.9618 16.5769 22.9618H31.2294C31.3775 22.9611 31.5214 23.0112 31.6371 23.1036C31.7528 23.1961 31.8334 23.3254 31.8654 23.4701L33.1394 29.2105C33.1604 29.3052 33.16 29.4035 33.138 29.4981C33.116 29.5926 33.073 29.6811 33.0123 29.7568C32.9515 29.8325 32.8746 29.8937 32.787 29.9357C32.6995 29.9777 32.6037 29.9995 32.5066 29.9995V30.0002ZM16.1107 28.7035H31.6988L30.712 24.2591H17.0968L16.1107 28.7035Z" fill="#818181"/>
<path d="M29.3208 24.2588C29.1488 24.2588 28.9839 24.1905 28.8623 24.0689C28.7407 23.9474 28.6724 23.7825 28.6724 23.6105C28.673 23.3164 28.6053 23.0262 28.4746 22.7627C28.3439 22.4993 28.1538 22.2697 27.9193 22.0923C27.6847 21.9148 27.4122 21.7943 27.1231 21.7401C26.834 21.686 26.5363 21.6997 26.2535 21.7802C26.1682 21.8044 26.0789 21.8108 25.991 21.799C25.9032 21.7873 25.8186 21.7577 25.7427 21.712C25.6667 21.6663 25.601 21.6055 25.5494 21.5334C25.4979 21.4613 25.4617 21.3793 25.4431 21.2927C25.3516 20.8755 25.1223 20.5013 24.7921 20.2304C24.462 19.9595 24.0502 19.8077 23.6232 19.7996C23.1962 19.7914 22.7789 19.9273 22.4386 20.1854C22.0983 20.4435 21.8548 20.8086 21.7475 21.222C21.7112 21.3641 21.6277 21.4897 21.5108 21.5783C21.3939 21.6668 21.2504 21.7131 21.1037 21.7096H21.0726H21.0395C20.5354 21.7106 20.0523 21.9115 19.696 22.2682C19.3398 22.6249 19.1396 23.1083 19.1392 23.6124C19.1392 23.7844 19.0709 23.9493 18.9493 24.0709C18.8278 24.1925 18.6629 24.2608 18.4909 24.2608C18.319 24.2608 18.154 24.1925 18.0325 24.0709C17.9109 23.9493 17.8426 23.7844 17.8426 23.6124C17.843 22.8319 18.1285 22.0784 18.6453 21.4934C19.1621 20.9084 19.8747 20.5323 20.6492 20.4356C20.8955 19.8625 21.3042 19.374 21.8247 19.0304C22.3452 18.6867 22.955 18.5029 23.5787 18.5015C24.2025 18.5001 24.813 18.6813 25.335 19.0226C25.8571 19.364 26.2679 19.8506 26.5167 20.4226C26.6016 20.4155 26.6866 20.4122 26.7715 20.4122C27.6194 20.4136 28.4322 20.7512 29.0315 21.351C29.6308 21.9509 29.9678 22.7639 29.9685 23.6118C29.9681 23.7834 29.8998 23.9479 29.7783 24.0692C29.6569 24.1905 29.4924 24.2587 29.3208 24.2588ZM31.2321 26.8107H15.9403C15.7684 26.8107 15.6035 26.7424 15.4819 26.6208C15.3603 26.4992 15.292 26.3343 15.292 26.1624C15.292 25.9904 15.3603 25.8255 15.4819 25.7039C15.6035 25.5823 15.7684 25.514 15.9403 25.514H31.2321C31.404 25.514 31.5689 25.5823 31.6905 25.7039C31.8121 25.8255 31.8804 25.9904 31.8804 26.1624C31.8804 26.3343 31.8121 26.4992 31.6905 26.6208C31.5689 26.7424 31.404 26.8107 31.2321 26.8107Z" fill="#818181"/>
</g>
<defs>
<clipPath id="clip0_2644_5366">
<rect width="33.1555" height="30" fill="white"/>
</clipPath>
</defs>
</svg>
