<svg width="42" height="40" viewBox="0 0 42 40" fill="none" xmlns="http://www.w3.org/2000/svg">
<path d="M21.9606 0.938423L27.3428 11.7028C27.6418 12.0018 27.9408 12.3008 28.5388 12.5998L40.2002 14.3938C41.3962 14.6929 41.9942 16.1879 41.0972 17.0849L32.7249 25.4572C32.4259 25.7562 32.1269 26.3542 32.4259 26.6532L34.519 38.3146C34.818 39.5106 33.3229 40.4077 32.4259 39.8097L21.9606 34.4275C21.6616 34.1285 21.0636 34.1285 20.4655 34.4275L10.0002 39.8097C8.80417 40.4077 7.60813 39.5106 7.90714 38.3146L10.0002 26.6532C10.0002 26.0552 10.0002 25.7562 9.70119 25.4572L0.431903 16.4869C-0.465126 15.5899 0.132893 14.0948 1.32893 14.0948L12.9903 12.3008C13.5883 12.3008 13.8873 12.0018 14.1863 11.4038L19.5685 0.639414C19.8675 -0.257615 21.6616 -0.257615 21.9606 0.938423Z" fill="url(#paint0_linear_141_6131)"/>
<defs>
<linearGradient id="paint0_linear_141_6131" x1="0.0222596" y1="19.776" x2="41.5068" y2="19.776" gradientUnits="userSpaceOnUse">
<stop stop-color="#FFC80B"/>
<stop offset="1" stop-color="#E89318"/>
</linearGradient>
</defs>
</svg>
