<svg width="30" height="30" viewBox="0 0 30 30" fill="none" xmlns="http://www.w3.org/2000/svg">
<path d="M27.8125 9.79379V13.9938C27.8125 14.0767 27.7796 14.1562 27.721 14.2148C27.6624 14.2734 27.5829 14.3063 27.5 14.3063H26.2188C26.1359 14.3063 26.0564 14.2734 25.9978 14.2148C25.9392 14.1562 25.9062 14.0767 25.9062 13.9938V12.7375L24.6375 14.0063C25.5424 15.2077 26.0317 16.671 26.0313 18.175C26.0313 18.3875 26.0188 18.6 26.0063 18.8063C26.0169 18.8449 26.0211 18.885 26.0188 18.925C25.8895 20.2279 25.393 21.4673 24.587 22.499C23.7809 23.5307 22.6985 24.3123 21.4656 24.753C20.2328 25.1936 18.9001 25.2751 17.6228 24.988C16.3454 24.701 15.1758 24.0571 14.25 23.1313C13.0953 21.9698 12.3871 20.4384 12.25 18.8063C12.2438 18.7375 12.2375 18.6688 12.2375 18.6C12.9558 18.2671 13.6179 17.8243 14.2 17.2875C14.1445 17.5801 14.1173 17.8773 14.1187 18.175C14.1179 18.9987 14.3204 19.8098 14.7081 20.5365C15.0958 21.2632 15.6568 21.883 16.3413 22.3409C17.0259 22.7989 17.8129 23.0809 18.6325 23.1619C19.4522 23.2429 20.2792 23.1205 21.0401 22.8054C21.8011 22.4903 22.4726 21.9923 22.9951 21.3556C23.5176 20.7189 23.8749 19.9631 24.0353 19.1553C24.1958 18.3474 24.1544 17.5124 23.915 16.7244C23.6755 15.9363 23.2453 15.2195 22.6625 14.6375C22.311 14.2911 21.9135 13.9945 21.4812 13.7563H21.475C21.045 13.5265 20.5839 13.3602 20.1062 13.2625C19.7829 13.1998 19.4543 13.1684 19.125 13.1688C18.1344 13.172 17.1669 13.4677 16.3438 14.0188C16.071 14.1985 15.8176 14.4058 15.5875 14.6375C15.4727 14.7502 15.3642 14.8692 15.2625 14.9938C15.0917 15.2034 14.9391 15.4271 14.8063 15.6625C14.7938 15.6688 14.7875 15.675 14.7937 15.6813C14.3984 16.2495 13.9177 16.7534 13.3687 17.175C13.0182 17.4447 12.6461 17.6851 12.2563 17.8938C12.25 17.9 12.2437 17.9 12.2375 17.9063C12.2137 17.9193 12.1885 17.9298 12.1625 17.9375C11.5067 18.2665 10.8016 18.4861 10.075 18.5875C10.0677 18.5925 10.0588 18.5947 10.05 18.5938V20.025H11.4375C11.5204 20.025 11.5999 20.058 11.6585 20.1166C11.7171 20.1752 11.75 20.2547 11.75 20.3375V21.6188C11.75 21.7017 11.7171 21.7812 11.6585 21.8398C11.5999 21.8984 11.5204 21.9313 11.4375 21.9313H10.05V23.3375C10.0487 23.42 10.0154 23.4988 9.95705 23.5571C9.89872 23.6154 9.81998 23.6488 9.7375 23.65H8.45625C8.37337 23.65 8.29389 23.6171 8.23528 23.5585C8.17667 23.4999 8.14375 23.4204 8.14375 23.3375V21.9313H6.7625C6.67962 21.9313 6.60013 21.8984 6.54153 21.8398C6.48292 21.7812 6.45 21.7017 6.45 21.6188V20.3375C6.45 20.2547 6.48292 20.1752 6.54153 20.1166C6.60013 20.058 6.67962 20.025 6.7625 20.025H8.14375V18.5938C6.48926 18.3707 4.97247 17.5532 3.87646 16.2939C2.78045 15.0346 2.18012 13.4195 2.1875 11.75C2.19053 10.3172 2.6358 8.9203 3.4625 7.75004C4.0998 6.84857 4.94481 6.11384 5.92608 5.60797C6.90736 5.1021 7.99602 4.83999 9.1 4.84379C9.45153 4.84476 9.8025 4.87192 10.15 4.92504C11.194 5.07986 12.1881 5.47411 13.0544 6.07695C13.9207 6.6798 14.6358 7.47489 15.1437 8.40004V8.40629C15.5987 9.22771 15.8795 10.134 15.9688 11.0688V11.1C15.975 11.175 15.9875 11.25 15.9875 11.325C15.6994 11.4538 15.4215 11.6042 15.1562 11.775C14.749 12.0235 14.3679 12.3125 14.0188 12.6375C14.1606 11.8441 14.1084 11.0281 13.8668 10.2591C13.6252 9.49011 13.2012 8.79095 12.631 8.22119C12.0609 7.65142 11.3614 7.22795 10.5923 6.98685C9.82315 6.74575 9.00712 6.69418 8.21374 6.83652C7.42036 6.97887 6.67316 7.31091 6.03581 7.80436C5.39845 8.29781 4.88985 8.93804 4.55333 9.67047C4.21681 10.4029 4.06236 11.2059 4.10313 12.0109C4.1439 12.8159 4.3787 13.5991 4.7875 14.2938C5.43843 15.3856 6.47566 16.193 7.69375 16.5563C7.87478 16.6075 8.05836 16.6492 8.24375 16.6813C9.12053 16.8347 10.0224 16.7504 10.8556 16.4371C11.6887 16.1238 12.4227 15.5931 12.9813 14.9C12.9875 14.8938 12.9875 14.8938 12.9875 14.8875C13.05 14.8125 13.1125 14.7313 13.1687 14.65C13.175 14.6438 13.175 14.6375 13.1875 14.6313C13.2006 14.6044 13.38 14.3482 13.3938 14.3063C13.3938 14.3063 13.3975 14.3019 13.4 14.3C13.8716 13.6039 14.4668 13.0001 15.1562 12.5188C15.3211 12.4012 15.4921 12.2927 15.6687 12.1938C16.0476 11.9675 16.45 11.7831 16.8687 11.6438C17.9405 11.2762 19.0859 11.1769 20.2049 11.3545C21.3239 11.5321 22.3823 11.9812 23.2875 12.6625L24.5562 11.3875H23.3C23.2171 11.3875 23.1376 11.3546 23.079 11.296C23.0204 11.2374 22.9875 11.1579 22.9875 11.075V9.79379C22.9875 9.71091 23.0204 9.63142 23.079 9.57282C23.1376 9.51421 23.2171 9.48129 23.3 9.48129H27.5C27.5829 9.48129 27.6624 9.51421 27.721 9.57282C27.7796 9.63142 27.8125 9.71091 27.8125 9.79379Z" fill="#818181"/>
</svg>
