<svg width="48" height="30" viewBox="0 0 48 30" fill="none" xmlns="http://www.w3.org/2000/svg">
<g clip-path="url(#clip0_286_5813)">
<path d="M28.4816 20.4755H40.9049C41.2822 20.4755 41.5951 20.1626 41.5951 19.7853C41.5951 19.408 41.2822 19.0951 40.9049 19.0951H28.4816C28.1043 19.0951 27.7914 19.408 27.7914 19.7853C27.7914 20.1626 28.1043 20.4755 28.4816 20.4755ZM43.6656 0H3.45092C1.54601 0 0 1.54601 0 3.45092V26.5491C0 28.454 1.54601 30 3.45092 30H43.6656C45.5706 30 47.1166 28.454 47.1166 26.5491V3.45092C47.1166 1.54601 45.5706 0 43.6656 0ZM1.38037 3.45092C1.38037 2.30982 2.30982 1.38037 3.45092 1.38037H14.7699V8.16258C14.2914 8.2546 13.8405 8.45705 13.454 8.72393L10.1135 7.01227C9.23926 6.56135 8.20859 6.59816 7.37117 7.1135C6.53374 7.62883 6.02761 8.52147 6.02761 9.50613V11.135H1.38037V3.45092ZM12.7086 13.7485L9.47853 15.4049C9.03681 15.635 8.51227 15.6166 8.07975 15.3497C7.65644 15.092 7.39877 14.6319 7.39877 14.135V9.51534C7.39877 9.0184 7.65644 8.55828 8.07975 8.30062C8.50307 8.04295 9.02761 8.01534 9.47853 8.2454L12.4693 9.77301C12.1472 10.3068 11.9632 10.9325 11.9632 11.5951C11.9632 12.4049 12.2393 13.1595 12.7086 13.7485ZM14.7699 28.6196H3.45092C2.30982 28.6196 1.38037 27.6902 1.38037 26.5491V12.5153H6.02761V14.135C6.02761 15.1196 6.53374 16.0123 7.37117 16.5276C7.82209 16.8037 8.32822 16.9417 8.83436 16.9417C9.26687 16.9417 9.70859 16.8405 10.1135 16.6288L13.8681 14.7055C14.1442 14.8528 14.4479 14.954 14.7699 15.0184V28.6196ZM13.3436 11.5951C13.3436 10.4264 14.2914 9.47853 15.4601 9.47853C16.6288 9.47853 17.5767 10.4264 17.5767 11.5951C17.5767 12.7638 16.6288 13.7117 15.4601 13.7117C14.2914 13.7117 13.3436 12.7638 13.3436 11.5951ZM45.7362 26.5491C45.7362 27.6902 44.8068 28.6196 43.6656 28.6196H16.1503V15.0276C16.4632 14.9632 16.7669 14.8528 17.0521 14.7147L20.8067 16.638C21.2117 16.8497 21.6534 16.9509 22.0859 16.9509C22.592 16.9509 23.0982 16.8129 23.5491 16.5368C24.3865 16.0215 24.8926 15.1288 24.8926 14.1442V12.5153H45.7362V26.5491ZM18.4509 9.77301L21.4417 8.2454C21.8834 8.01534 22.408 8.03374 22.8405 8.30062C23.2638 8.55828 23.5215 9.0184 23.5215 9.51534V14.135C23.5215 14.6319 23.2638 15.092 22.8405 15.3497C22.4172 15.6074 21.8926 15.635 21.4417 15.4049L18.2117 13.7485C18.681 13.1503 18.9571 12.4049 18.9571 11.5951C18.9571 10.9325 18.773 10.3068 18.4509 9.77301ZM45.7362 11.135H24.8926V9.51534C24.8926 8.53067 24.3865 7.63804 23.5491 7.1227C22.7117 6.60736 21.681 6.57055 20.8067 7.02147L17.4663 8.73313C17.0798 8.45706 16.638 8.2638 16.1595 8.17178V1.38037H43.6748C44.816 1.38037 45.7454 2.30982 45.7454 3.45092V11.135H45.7362ZM28.4816 23.2362H35.3834C35.7607 23.2362 36.0736 22.9233 36.0736 22.546C36.0736 22.1687 35.7607 21.8558 35.3834 21.8558H28.4816C28.1043 21.8558 27.7914 22.1687 27.7914 22.546C27.7914 22.9233 28.1043 23.2362 28.4816 23.2362Z" fill="#818181"/>
</g>
<defs>
<clipPath id="clip0_286_5813">
<rect width="47.1166" height="30" fill="white"/>
</clipPath>
</defs>
</svg>
