<svg width="30" height="30" viewBox="0 0 30 30" fill="none" xmlns="http://www.w3.org/2000/svg">
<g clip-path="url(#clip0_167_3219)">
<path d="M29.3005 15.2807C29.3005 14.0516 29.2008 13.1547 28.9849 12.2246H14.95V17.7721H23.1882C23.0222 19.1507 22.1252 21.2269 20.1321 22.622L20.1041 22.8077L24.5417 26.2455L24.8492 26.2762C27.6727 23.6685 29.3005 19.8317 29.3005 15.2807Z" fill="#4285F4"/>
<path d="M14.95 29.8968C18.986 29.8968 22.3743 28.568 24.8492 26.2759L20.1321 22.6218C18.8698 23.5021 17.1756 24.1166 14.95 24.1166C10.997 24.1166 7.64189 21.509 6.4459 17.9048L6.2706 17.9197L1.65632 21.4907L1.59598 21.6584C4.05415 26.5416 9.10342 29.8968 14.95 29.8968Z" fill="#34A853"/>
<path d="M6.44591 17.905C6.13034 16.9749 5.94771 15.9782 5.94771 14.9485C5.94771 13.9187 6.13034 12.9221 6.42931 11.992L6.42095 11.7939L1.74885 8.16553L1.59599 8.23824C0.582862 10.2646 0.00152588 12.5401 0.00152588 14.9485C0.00152588 17.3569 0.582862 19.6323 1.59599 21.6587L6.44591 17.905Z" fill="#FBBC05"/>
<path d="M14.95 5.78004C17.7569 5.78004 19.6504 6.99252 20.73 8.00576L24.9488 3.8866C22.3578 1.47824 18.986 0 14.95 0C9.10342 0 4.05415 3.35508 1.59598 8.23821L6.4293 11.992C7.64189 8.38775 10.997 5.78004 14.95 5.78004Z" fill="#EB4335"/>
</g>
<defs>
<clipPath id="clip0_167_3219">
<rect width="29.316" height="30" fill="white"/>
</clipPath>
</defs>
</svg>
