<svg width="30" height="30" viewBox="0 0 30 30" fill="none" xmlns="http://www.w3.org/2000/svg">
<g clip-path="url(#clip0_164_877)">
<path d="M23.8983 18.7226C23.1905 18.7229 22.4905 18.8695 21.8421 19.1532C21.1937 19.4369 20.6109 19.8516 20.1305 20.3712C19.5986 20.1498 19.038 20.005 18.4655 19.9414V18.8361C19.213 18.4917 19.8371 17.9265 20.2536 17.2167C20.6702 16.5068 20.8591 15.6863 20.7951 14.8658C21.1723 14.7718 21.5144 14.5713 21.7807 14.2882C22.047 14.005 22.2261 13.6512 22.2968 13.2691C22.3675 12.8869 22.3267 12.4924 22.1793 12.1328C22.0319 11.7731 21.7841 11.4635 21.4655 11.2409C21.81 8.86482 21.5451 6.49201 18.7748 5.96607C17.1625 5.80566 15.5376 5.81855 13.928 6.00451C13.0701 -1.01408 2.50217 -0.599238 2.32639 6.53514C2.3517 7.26264 2.5542 8.05014 2.01374 8.6492C0.329517 10.5673 0.677798 13.9461 2.75389 15.4658C2.05254 16.5118 1.68151 17.7445 1.68889 19.0039V21.0992C1.68889 21.1998 1.72125 21.2977 1.78118 21.3785C1.84112 21.4593 1.92544 21.5186 2.0217 21.5478C4.79743 22.3761 7.70992 22.6453 10.5905 22.34C9.79593 23.3938 9.36643 24.6778 9.36702 25.9976V27.6289C9.36702 27.7309 9.40029 27.8301 9.46179 27.9115C9.5233 27.9929 9.60967 28.052 9.7078 28.0798C11.8781 28.7166 14.1285 29.0387 16.3903 29.0361C18.1643 29.0324 19.9338 28.8596 21.675 28.52C24.9572 30.2075 29.1459 27.5886 29.054 23.8789C29.0536 22.5115 28.5101 21.2003 27.5433 20.2334C26.5764 19.2665 25.2652 18.7231 23.8978 18.7226H23.8983ZM5.04045 7.83592C6.55874 8.0356 9.16452 7.06436 10.1639 5.96092L11.242 6.76951V8.12186C11.0526 12.409 4.86795 12.1287 5.04045 7.83592ZM7.4217 13.5711V12.0926C7.89728 12.1815 8.38519 12.1815 8.86077 12.0926V13.6742C8.86126 13.7685 8.84294 13.862 8.80688 13.9492C8.77082 14.0363 8.71775 14.1154 8.65077 14.1819C8.54279 14.287 8.40481 14.356 8.25591 14.3794C8.10701 14.4027 7.95452 14.3793 7.81954 14.3122C7.68455 14.2452 7.57373 14.1378 7.50238 14.0051C7.43102 13.8723 7.40267 13.7206 7.42124 13.5711H7.4217ZM9.79827 11.8015C10.4122 11.524 10.9472 11.0975 11.3545 10.5608C11.37 10.7881 11.3972 11.015 11.4281 11.2419C11.112 11.4582 10.8641 11.7601 10.7134 12.1123C10.5628 12.4645 10.5155 12.8523 10.5773 13.2303C10.3211 13.172 10.0605 13.1346 9.79827 13.1183V11.8015ZM15.3623 19.1914H17.528V19.9714C17.1862 20.1193 16.8179 20.1959 16.4455 20.1965C16.0732 20.1972 15.7046 20.1218 15.3623 19.9751V19.1914ZM20.3264 13.9883C20.2023 13.9891 20.0836 14.0388 19.9959 14.1265C19.9082 14.2142 19.8585 14.333 19.8576 14.457V15.2304C19.8098 19.3292 13.0819 19.3179 13.0373 15.2304V14.457C13.0365 14.333 12.9868 14.2142 12.8991 14.1265C12.8114 14.0388 12.6926 13.9891 12.5686 13.9883C12.3606 13.9854 12.1578 13.9226 11.9845 13.8075C11.8112 13.6925 11.6747 13.53 11.5913 13.3394C11.5079 13.1488 11.4812 12.9383 11.5142 12.7329C11.5473 12.5275 11.6388 12.336 11.7778 12.1812C11.8744 12.262 11.9875 12.3206 12.1092 12.3529C12.2309 12.3851 12.3582 12.3902 12.4821 12.3679C12.606 12.3455 12.7234 12.2962 12.8262 12.2235C12.9289 12.1507 13.0145 12.0563 13.0767 11.9469C13.3561 11.457 13.4667 11.0469 13.7161 10.7042C15.0548 12.2323 17.9269 12.1526 19.1789 10.7023C19.5726 11.1894 19.6917 12.3936 20.5603 12.3842C20.7642 12.3858 20.9618 12.3137 21.1167 12.1812C21.2571 12.3355 21.3499 12.5271 21.3838 12.7329C21.4176 12.9387 21.3912 13.1499 21.3076 13.3411C21.224 13.5322 21.0869 13.695 20.9128 13.8098C20.7386 13.9247 20.535 13.9867 20.3264 13.9883ZM14.2186 6.89842C15.6999 6.76061 17.1908 6.76061 18.6722 6.89842C19.4175 6.94904 20.4731 7.84061 20.5556 8.58873C20.6677 9.47687 20.6555 10.3763 20.5195 11.2611C20.2186 10.5861 19.7086 9.31436 18.7687 9.83795C18.4455 10.1416 18.0901 10.4091 17.7089 10.6358C17.1651 10.985 15.5306 10.94 15.0501 10.5687C14.602 10.3329 14.4305 9.98748 14.0034 9.77467C13.0659 9.45498 12.6928 10.6189 12.3745 11.2625C12.2366 10.3772 12.2246 9.47689 12.3389 8.58826C12.4602 8.15758 12.7012 7.77015 13.0339 7.47101C13.3667 7.17188 13.7775 6.97332 14.2186 6.89842ZM1.90452 12.2548C1.82868 11.7219 1.86382 11.1791 2.00773 10.6604C2.15164 10.1417 2.4012 9.65841 2.74077 9.24076C2.97305 8.95341 3.14353 8.62121 3.24153 8.26494C3.33953 7.90868 3.36294 7.53602 3.3103 7.17029C2.70749 0.654668 12.4481 -0.11877 13.0087 6.34857C12.7018 6.52503 12.4223 6.74532 12.179 7.00248V6.13857C12.1791 6.05421 12.1561 5.97144 12.1125 5.8992C12.0689 5.82696 12.0064 5.76799 11.9318 5.72867C11.8571 5.68935 11.7732 5.67116 11.689 5.67607C11.6047 5.68098 11.5235 5.70881 11.4539 5.75654L10.4053 4.96998C10.3136 4.90144 10.2 4.86876 10.0859 4.87808C9.97176 4.8874 9.86498 4.93809 9.78561 5.02061C9.16499 5.66726 8.4105 6.17041 7.57499 6.49482C6.76894 6.81028 5.90406 6.94718 5.03999 6.89607V6.13857C5.03999 6.01425 4.9906 5.89503 4.90269 5.80712C4.81478 5.71921 4.69556 5.66982 4.57124 5.66982C4.44692 5.66982 4.32769 5.71921 4.23978 5.80712C4.15187 5.89503 4.10249 6.01425 4.10249 6.13857V8.12139C4.10273 8.899 4.3276 9.66 4.75003 10.3129C5.17247 10.9657 5.7745 11.4827 6.48374 11.8015V13.1375C5.28005 13.2801 4.16658 13.847 3.34311 14.7364C2.56191 14.1252 2.04646 13.2364 1.90405 12.2548H1.90452ZM2.62639 20.7458V19.0039C2.61842 16.6104 4.18592 14.3811 6.53717 14.0717C6.62882 14.4295 6.83745 14.7464 7.12989 14.972C7.42233 15.1976 7.78179 15.319 8.15113 15.3168C8.52048 15.3147 8.8785 15.1891 9.16828 14.9601C9.45807 14.7311 9.66298 14.4118 9.75045 14.0529C10.6174 14.1169 11.4409 14.4573 12.0998 15.0242C12.0625 15.8183 12.2641 16.6053 12.6786 17.2837C13.093 17.9621 13.7013 18.5007 14.4248 18.83V20.0004C13.4084 20.1688 12.4534 20.5988 11.6536 21.2483C8.64419 21.7469 5.56185 21.5753 2.62639 20.7458ZM16.6289 28.0976C14.4923 28.1218 12.3631 27.8434 10.3045 27.2708V25.9976C10.3025 24.6995 10.7917 23.4487 11.6737 22.4963C12.5558 21.5438 13.7655 20.9604 15.06 20.8629C15.4999 21.0409 15.9701 21.1322 16.4447 21.132C16.9313 21.1273 17.4126 21.0298 17.8626 20.8447C18.4332 20.8496 18.9989 20.9489 19.537 21.1386C18.889 22.1822 18.6332 23.4223 18.8154 24.6371C18.9977 25.852 19.606 26.9624 20.5317 27.77C19.2406 27.9751 17.9361 28.0843 16.6289 28.0976ZM26.8805 26.8615C24.344 29.4903 19.6383 27.6223 19.6795 23.8789C19.6808 22.7604 20.1256 21.6881 20.9165 20.8972C21.7074 20.1063 22.7798 19.6614 23.8983 19.6601C27.6342 19.632 29.5195 24.2811 26.8805 26.8615Z" fill="#818181"/>
<path d="M26.242 23.4102H24.367V21.5352C24.367 21.4108 24.3176 21.2916 24.2297 21.2037C24.1418 21.1158 24.0226 21.0664 23.8983 21.0664C23.7739 21.0664 23.6547 21.1158 23.5668 21.2037C23.4789 21.2916 23.4295 21.4108 23.4295 21.5352V23.4102H21.5545C21.4302 23.4102 21.311 23.4595 21.223 23.5474C21.1351 23.6354 21.0858 23.7546 21.0858 23.8789C21.0858 24.0032 21.1351 24.1225 21.223 24.2104C21.311 24.2983 21.4302 24.3477 21.5545 24.3477H23.4295V26.2227C23.4295 26.347 23.4789 26.4662 23.5668 26.5541C23.6547 26.642 23.7739 26.6914 23.8983 26.6914C24.0226 26.6914 24.1418 26.642 24.2297 26.5541C24.3176 26.4662 24.367 26.347 24.367 26.2227V24.3477H26.242C26.3663 24.3477 26.4856 24.2983 26.5735 24.2104C26.6614 24.1225 26.7108 24.0032 26.7108 23.8789C26.7108 23.7546 26.6614 23.6354 26.5735 23.5474C26.4856 23.4595 26.3663 23.4102 26.242 23.4102Z" fill="#818181"/>
</g>
<defs>
<clipPath id="clip0_164_877">
<rect width="30" height="30" fill="white"/>
</clipPath>
</defs>
</svg>
