<svg width="15" height="15" viewBox="0 0 15 15" fill="none" xmlns="http://www.w3.org/2000/svg">
<path id="Vector" d="M14.2318 4.76025L10.1356 4.16879L8.30516 0.494315C8.14061 0.165974 7.81962 0 7.49864 0C7.17961 0 6.86087 0.163754 6.69576 0.494315L4.86471 4.16851L0.768306 4.75942C0.0337063 4.86488 -0.260693 5.76109 0.271857 6.27456L3.23516 9.13332L2.53386 13.1711C2.43424 13.7479 2.89851 14.2105 3.41846 14.2105C3.55643 14.2105 3.69831 14.1781 3.8346 14.1064L7.4992 12.2002L11.1635 14.107C11.2995 14.1778 11.4411 14.21 11.5785 14.21C12.0991 14.21 12.5642 13.749 12.4645 13.1719L11.7641 9.13387L14.7279 6.27567C15.2608 5.7622 14.9664 4.86572 14.2318 4.76025ZM10.8249 8.17966L10.3178 8.6687L10.4376 9.35924L10.9839 12.508L8.12578 11.0207L7.49948 10.6948L7.50032 1.89122L8.92838 4.75803L9.24125 5.38612L9.94115 5.48715L13.1378 5.94871L10.8249 8.17966Z" fill="#FFAE4E"/>
</svg>
