<svg width="13" height="12" viewBox="0 0 13 12" fill="none" xmlns="http://www.w3.org/2000/svg">
<path d="M6.58817 0.281527L8.20282 3.51083C8.29253 3.60053 8.38223 3.69023 8.56164 3.77994L12.06 4.31815C12.4189 4.40786 12.5983 4.85637 12.3292 5.12548L9.81748 7.63716C9.72777 7.72686 9.63807 7.90627 9.72777 7.99597L10.3557 11.4944C10.4454 11.8532 9.99688 12.1223 9.72777 11.9429L6.58817 10.3282C6.49847 10.2385 6.31906 10.2385 6.13966 10.3282L3.00006 11.9429C2.64125 12.1223 2.28244 11.8532 2.37214 11.4944L3.00006 7.99597C3.00006 7.81656 3.00006 7.72686 2.91036 7.63716L0.129571 4.94607C-0.139538 4.67697 0.0398679 4.22845 0.398679 4.22845L3.89709 3.69023C4.07649 3.69023 4.1662 3.60053 4.2559 3.42113L5.87055 0.191824C5.96025 -0.0772844 6.49847 -0.0772845 6.58817 0.281527Z" fill="url(#paint0_linear_2404_4301)"/>
<defs>
<linearGradient id="paint0_linear_2404_4301" x1="0.00667788" y1="5.93281" x2="12.452" y2="5.93281" gradientUnits="userSpaceOnUse">
<stop stop-color="#FFC80B"/>
<stop offset="0.51" stop-color="#E89318"/>
<stop offset="0.5101" stop-color="#979797"/>
<stop offset="0.71" stop-color="#979797"/>
</linearGradient>
</defs>
</svg>
