<svg width="30" height="30" viewBox="0 0 30 30" fill="none" xmlns="http://www.w3.org/2000/svg">
<path fill-rule="evenodd" clip-rule="evenodd" d="M8 6.521C9.97186 4.89693 12.4454 4.00609 15 4C17.1756 4 19.3023 4.64514 21.1113 5.85383C22.9202 7.06253 24.3301 8.78049 25.1627 10.7905C25.9952 12.8005 26.2131 15.0122 25.7886 17.146C25.3642 19.2798 24.3165 21.2398 22.7782 22.7782C21.2398 24.3165 19.2798 25.3642 17.146 25.7886C15.0122 26.2131 12.8005 25.9952 10.7905 25.1627C8.78049 24.3301 7.06253 22.9202 5.85383 21.1113C4.64514 19.3023 4 17.1756 4 15C4 14.7348 4.10536 14.4804 4.29289 14.2929C4.48043 14.1054 4.73478 14 5 14C5.26522 14 5.51957 14.1054 5.70711 14.2929C5.89464 14.4804 6 14.7348 6 15C5.99808 17.0386 6.68904 19.0174 7.95954 20.6117C9.23004 22.2061 11.0047 23.3213 12.9923 23.7745C14.9799 24.2277 17.0626 23.9919 18.8986 23.1059C20.7346 22.2199 22.2151 20.7362 23.097 18.8982C23.979 17.0602 24.2102 14.9771 23.7526 12.9904C23.295 11.0038 22.1759 9.23166 20.5787 7.96468C18.9816 6.69769 17.0013 6.0111 14.9627 6.01752C12.9241 6.02394 10.9481 6.72298 9.359 8H10C10.2652 8 10.5196 8.10536 10.7071 8.29289C10.8946 8.48043 11 8.73478 11 9C11 9.26522 10.8946 9.51957 10.7071 9.70711C10.5196 9.89464 10.2652 10 10 10H7C6.95753 9.9947 6.91544 9.98669 6.874 9.976C6.81161 9.96965 6.74999 9.95726 6.69 9.939C6.62504 9.91679 6.56268 9.88762 6.504 9.852C6.46698 9.83725 6.43091 9.82022 6.396 9.801C6.38626 9.79331 6.37915 9.78378 6.37197 9.77417C6.36515 9.76502 6.35826 9.7558 6.349 9.748C6.34043 9.74078 6.33084 9.7354 6.32125 9.73001C6.30957 9.72345 6.29788 9.71688 6.288 9.707C6.26071 9.67182 6.23598 9.63472 6.214 9.596C6.17587 9.54724 6.14239 9.49501 6.114 9.44C6.08785 9.38203 6.06709 9.32178 6.052 9.26C6.0334 9.19868 6.02068 9.13573 6.014 9.072C6.01308 9.06055 6.01007 9.04974 6.00708 9.03898C6.00353 9.02623 6 9.01356 6 9V6C6 5.73478 6.10536 5.48043 6.29289 5.29289C6.48043 5.10536 6.73478 5 7 5C7.26522 5 7.51957 5.10536 7.70711 5.29289C7.89464 5.48043 8 5.73478 8 6V6.521ZM16.8778 17.9778C16.6715 18.1841 16.3917 18.3 16.1 18.3H11.7C11.4083 18.3 11.1285 18.1841 10.9222 17.9778C10.7159 17.7715 10.6 17.4917 10.6 17.2C10.6 16.9083 10.7159 16.6285 10.9222 16.4222C11.1285 16.2159 11.4083 16.1 11.7 16.1H15V10.6C15 10.3083 15.1159 10.0285 15.3222 9.82218C15.5285 9.61589 15.8083 9.5 16.1 9.5C16.3917 9.5 16.6715 9.61589 16.8778 9.82218C17.0841 10.0285 17.2 10.3083 17.2 10.6V17.2C17.2 17.4917 17.0841 17.7715 16.8778 17.9778Z" fill="#818181"/>
</svg>
