<svg width="30" height="30" viewBox="0 0 30 30" fill="none" xmlns="http://www.w3.org/2000/svg">
<path d="M13.0272 25.3258H8.02717C6.40702 25.3199 5.09342 24.0111 5.08152 22.391V12.4453C5.0847 11.903 5.32739 11.3898 5.74457 11.0432L6.625 10.391C6.94643 10.0485 6.97911 9.52597 6.70286 9.14612C6.42661 8.76628 5.9194 8.63637 5.49457 8.83664L4.59239 9.51056C3.68234 10.2147 3.14229 11.2948 3.125 12.4453V22.4019C3.13098 25.1068 5.32226 27.2981 8.02717 27.304H13.0272C13.5675 27.304 14.0054 26.8661 14.0054 26.3258C14.0054 25.7855 13.5675 25.3475 13.0272 25.3475V25.3258Z" fill="#818181"/>
<path d="M26.6141 12.4238C26.6027 11.2817 26.0802 10.2048 25.1902 9.48904L17.6793 3.49991C16.0288 2.17321 13.6777 2.17321 12.0272 3.49991L9.64674 5.22817C9.19951 5.54933 9.09731 6.17224 9.41848 6.61947C9.73964 7.0667 10.3626 7.1689 10.8098 6.84773L13.2228 5.04338C14.1699 4.26364 15.5366 4.26364 16.4837 5.04338L23.9946 11.0325C24.4269 11.3752 24.6823 11.894 24.6902 12.4456V22.4021C24.6902 24.0229 23.3763 25.3369 21.7554 25.3369H19.5272C19.2991 25.3369 19.1141 25.1519 19.1141 24.9238V20.4347C19.1141 19.0042 17.9577 17.8428 16.5272 17.8369H13.2663C12.5773 17.8369 11.9166 18.1106 11.4294 18.5977C10.9422 19.0849 10.6685 19.7457 10.6685 20.4347V22.1521C10.6685 22.6924 11.1065 23.1303 11.6467 23.1303C12.187 23.1303 12.625 22.6924 12.625 22.1521V20.4347C12.6221 20.2656 12.6872 20.1025 12.8058 19.9819C12.9243 19.8613 13.0863 19.7934 13.2554 19.7934H16.5163C16.8645 19.7934 17.1467 20.0756 17.1467 20.4238V24.9238C17.1527 26.2342 18.2167 27.2934 19.5272 27.2934H21.7011C24.4085 27.2934 26.6033 25.0986 26.6033 22.3912L26.6141 12.4238Z" fill="#818181"/>
</svg>
