<svg width="20" height="21" viewBox="0 0 20 21" fill="none" xmlns="http://www.w3.org/2000/svg">
<g clip-path="url(#clip0_2459_827)">
<path d="M0.674316 0.370117H19.3254V20.3701H0.674316V0.370117Z" fill="#181A93"/>
<path d="M0 0.370117H20V7.03678H0V0.370117Z" fill="#FFA44A"/>
<path d="M0 13.7036H20V20.3703H0V13.7036Z" fill="#1A9F0B"/>
<path d="M0 7.03662H20V13.7033H0V7.03662Z" fill="white"/>
<path d="M9.99984 12.3701C10.7362 12.3701 11.3332 11.4747 11.3332 10.3701C11.3332 9.26555 10.7362 8.37012 9.99984 8.37012C9.26346 8.37012 8.6665 9.26555 8.6665 10.3701C8.6665 11.4747 9.26346 12.3701 9.99984 12.3701Z" fill="white"/>
<path d="M9.99995 13.0369C9.02139 13.0369 8.22217 11.8381 8.22217 10.3703C8.22217 8.90244 9.02139 7.70361 9.99995 7.70361C10.9785 7.70361 11.7777 8.90244 11.7777 10.3703C11.7777 11.8381 10.9785 13.0369 9.99995 13.0369ZM9.99995 12.3703C10.7095 12.3703 11.3333 11.4346 11.3333 10.3703C11.3333 9.30595 10.7134 8.37028 9.99995 8.37028C9.2865 8.37028 8.66661 9.30595 8.66661 10.3703C8.66661 11.4346 9.29039 12.3703 9.99995 12.3703Z" fill="#181A93"/>
<path d="M10.0002 11.7033C10.4911 11.7033 10.8891 11.1063 10.8891 10.37C10.8891 9.63358 10.4911 9.03662 10.0002 9.03662C9.5093 9.03662 9.11133 9.63358 9.11133 10.37C9.11133 11.1063 9.5093 11.7033 10.0002 11.7033Z" fill="#181A93"/>
</g>
<defs>
<clipPath id="clip0_2459_827">
<rect width="20" height="20" fill="white" transform="translate(0 0.370117)"/>
</clipPath>
</defs>
</svg>
