<svg width="30" height="30" viewBox="0 0 30 30" fill="none" xmlns="http://www.w3.org/2000/svg">
<path fill-rule="evenodd" clip-rule="evenodd" d="M8.74984 5.64597C10.5999 4.4098 12.775 3.75 15 3.75C17.9837 3.75 20.8452 4.93526 22.955 7.04505C25.0647 9.15483 26.25 12.0163 26.25 15C26.25 17.225 25.5902 19.4001 24.354 21.2502C23.1179 23.1002 21.3609 24.5422 19.3052 25.3936C17.2495 26.2451 14.9875 26.4679 12.8052 26.0338C10.623 25.5998 8.61839 24.5283 7.04505 22.955C5.47171 21.3816 4.40025 19.3771 3.96617 17.1948C3.53209 15.0125 3.75487 12.7505 4.60636 10.6948C5.45785 8.63914 6.89979 6.88213 8.74984 5.64597ZM9.79153 22.795C11.3332 23.8252 13.1458 24.375 15 24.375C17.4864 24.375 19.871 23.3873 21.6291 21.6291C23.3873 19.871 24.375 17.4864 24.375 15C24.375 13.1458 23.8252 11.3332 22.795 9.79153C21.7649 8.24982 20.3007 7.0482 18.5877 6.33863C16.8746 5.62906 14.9896 5.4434 13.171 5.80514C11.3525 6.16687 9.682 7.05976 8.37088 8.37087C7.05976 9.68199 6.16688 11.3525 5.80514 13.171C5.44341 14.9896 5.62906 16.8746 6.33863 18.5877C7.04821 20.3007 8.24982 21.7649 9.79153 22.795ZM14.3371 13.1183C14.5129 12.9424 14.7514 12.8437 15 12.8437C15.2487 12.8437 15.4871 12.9424 15.6629 13.1183C15.8387 13.2941 15.9375 13.5325 15.9375 13.7812V20.1562C15.9375 20.4048 15.8387 20.6433 15.6629 20.8191C15.4871 20.9949 15.2487 21.0937 15 21.0937C14.7514 21.0937 14.5129 20.9949 14.3371 20.8191C14.1613 20.6433 14.0625 20.4048 14.0625 20.1562V13.7812C14.0625 13.5325 14.1613 13.2941 14.3371 13.1183ZM14.3279 9.29713C14.5057 9.11581 14.7462 9.00946 15 8.99992C15.1184 8.98667 15.2383 8.99866 15.3518 9.0351C15.4652 9.07153 15.5696 9.13158 15.6582 9.21129C15.7468 9.291 15.8175 9.38856 15.8656 9.49756C15.9137 9.60656 15.9382 9.72451 15.9375 9.84367V10.0687C15.9282 10.3143 15.8265 10.5474 15.6526 10.7213C15.4788 10.8951 15.2457 10.9969 15 11.0062C14.8781 11.0166 14.7554 11.0015 14.6397 10.9619C14.524 10.9223 14.4177 10.859 14.3278 10.7761C14.2379 10.6933 14.1661 10.5925 14.1172 10.4804C14.0683 10.3683 14.0433 10.2472 14.0438 10.1249V9.97492C14.0484 9.72098 14.15 9.47845 14.3279 9.29713Z" fill="#818181"/>
</svg>
