<svg width="30" height="30" viewBox="0 0 30 30" fill="none" xmlns="http://www.w3.org/2000/svg">
<g clip-path="url(#clip0_2644_5376)">
<path d="M15 0C6.72231 0 0 6.72231 0 15C0 23.2777 6.72231 30 15 30C23.2777 30 30 23.2777 30 15C30 6.72231 23.2777 0 15 0ZM15 1.15615C22.6535 1.15615 28.8462 7.34654 28.8462 15C28.8462 22.6535 22.6535 28.8462 15 28.8462C7.34654 28.8462 1.15385 22.6535 1.15385 15C1.15385 7.34654 7.34654 1.15615 15 1.15615ZM10.9385 10.3823C10.8346 10.3788 10.7192 10.3881 10.59 10.4088C10.0719 10.4954 9.38769 10.8415 8.72538 11.4658C7.40192 12.7165 6.71769 14.6585 6.98885 15.6035C7.12385 16.0765 7.34192 16.2381 7.74346 16.2842C8.11038 16.3269 8.67 16.1792 9.28731 15.7823C9.25002 15.5239 9.23035 15.2633 9.22846 15.0023C9.22846 13.1908 10.0858 11.5869 11.3977 10.5288C11.2648 10.431 11.1035 10.3795 10.9385 10.3823ZM14.9977 10.3823C12.4419 10.3823 10.3823 12.4419 10.3823 14.9977C10.3823 17.5535 12.4419 19.6131 14.9977 19.6131C17.5535 19.6131 19.6131 17.5535 19.6131 14.9977C19.6131 12.4419 17.5535 10.3823 14.9977 10.3823ZM18.9958 10.3823C18.8513 10.3914 18.7126 10.4423 18.5965 10.5288C19.9085 11.5881 20.7669 13.1885 20.7669 15C20.7669 15.2654 20.7438 15.5238 20.7092 15.78C21.2573 16.1331 21.7638 16.2888 22.1285 16.2888C22.5842 16.2773 22.8196 16.1388 22.98 15.6831C23.1415 15.2273 23.0919 14.4912 22.7885 13.7065C22.4493 12.8538 21.9279 12.0855 21.2608 11.4554C20.5731 10.8092 19.8623 10.4665 19.3431 10.3985C19.2284 10.3793 19.1118 10.3738 18.9958 10.3823ZM13.2669 12.69C13.8969 12.69 14.4208 13.2138 14.4208 13.8438C14.4208 14.4738 13.8969 14.9977 13.2669 14.9977C12.6369 14.9977 12.1131 14.4738 12.1131 13.8438C12.1131 13.2138 12.6369 12.69 13.2669 12.69ZM16.7642 12.69C17.3954 12.69 17.9181 13.2138 17.9181 13.8438C17.9181 14.4738 17.3954 14.9977 16.7642 14.9977C16.1342 14.9977 15.6104 14.4738 15.6104 13.8438C15.6104 13.2138 16.1342 12.69 16.7642 12.69ZM13.2669 16.1515H16.7285V17.3054H13.2669V16.1515Z" fill="#818181"/>
</g>
<defs>
<clipPath id="clip0_2644_5376">
<rect width="30" height="30" fill="white"/>
</clipPath>
</defs>
</svg>
