<svg width="30" height="30" viewBox="0 0 30 30" fill="none" xmlns="http://www.w3.org/2000/svg">
<path d="M15 13.5001C15.4945 13.5001 15.9778 13.3535 16.3889 13.0788C16.8 12.8041 17.1205 12.4136 17.3097 11.9568C17.4989 11.5 17.5484 10.9973 17.452 10.5124C17.3555 10.0274 17.1174 9.58197 16.7678 9.23234C16.4181 8.88271 15.9727 8.64461 15.4877 8.54815C15.0028 8.45168 14.5001 8.50119 14.0433 8.69041C13.5865 8.87963 13.196 9.20006 12.9213 9.61118C12.6466 10.0223 12.5 10.5057 12.5 11.0001C12.5 11.6632 12.7634 12.299 13.2322 12.7679C13.7011 13.2367 14.337 13.5001 15 13.5001ZM14.1125 22.1376C14.2287 22.2548 14.367 22.3478 14.5193 22.4112C14.6716 22.4747 14.835 22.5074 15 22.5074C15.165 22.5074 15.3284 22.4747 15.4807 22.4112C15.633 22.3478 15.7713 22.2548 15.8875 22.1376L21 17.0126C22.1874 15.8258 22.9962 14.3135 23.3241 12.6669C23.6519 11.0204 23.4841 9.31362 22.8419 7.76247C22.1996 6.21133 21.1117 4.8855 19.7159 3.95268C18.32 3.01987 16.6789 2.52197 15 2.52197C13.3211 2.52197 11.68 3.01987 10.2841 3.95268C8.88828 4.8855 7.80042 6.21133 7.15815 7.76247C6.51588 9.31362 6.34806 11.0204 6.67591 12.6669C7.00376 14.3135 7.81256 15.8258 9 17.0126L14.1125 22.1376ZM9.0375 10.4251C9.12291 9.53388 9.40627 8.67298 9.86691 7.90525C10.3275 7.13753 10.9538 6.48237 11.7 5.98761C12.6803 5.34398 13.8273 5.00106 15 5.00106C16.1727 5.00106 17.3197 5.34398 18.3 5.98761C19.0412 6.48067 19.6639 7.13186 20.1234 7.89434C20.5829 8.65682 20.8677 9.51165 20.9573 10.3973C21.047 11.283 20.9392 12.1776 20.6419 13.0167C20.3445 13.8558 19.8649 14.6185 19.2375 15.2501L15 19.4876L10.7625 15.2501C10.1344 14.6247 9.65366 13.867 9.35526 13.0324C9.05685 12.1977 8.9483 11.307 9.0375 10.4251ZM23.75 25.0001H6.25C5.91848 25.0001 5.60054 25.1318 5.36612 25.3662C5.1317 25.6006 5 25.9186 5 26.2501C5 26.5816 5.1317 26.8996 5.36612 27.134C5.60054 27.3684 5.91848 27.5001 6.25 27.5001H23.75C24.0815 27.5001 24.3995 27.3684 24.6339 27.134C24.8683 26.8996 25 26.5816 25 26.2501C25 25.9186 24.8683 25.6006 24.6339 25.3662C24.3995 25.1318 24.0815 25.0001 23.75 25.0001Z" fill="#818181"/>
</svg>
