<svg width="42" height="25" viewBox="0 0 42 25" fill="none" xmlns="http://www.w3.org/2000/svg">
<path fill-rule="evenodd" clip-rule="evenodd" d="M20.831 21.3837C23.3016 19.175 24.8603 15.925 24.8603 12.2837C24.8603 8.64175 23.3016 5.4587 20.831 3.1837C18.6853 1.2337 15.7603 0 12.6397 0C5.88096 0 0.355957 5.525 0.355957 12.2837C0.355957 19.0417 5.88096 24.5044 12.6397 24.5044C15.7603 24.5668 18.6853 23.3337 20.831 21.3837Z" fill="#07A9E2"/>
<path fill-rule="evenodd" clip-rule="evenodd" d="M0.355957 12.2837C0.355957 19.0424 5.88096 24.5044 12.6397 24.5044C15.8266 24.5044 18.6853 23.3337 20.831 21.3174C23.3016 19.1087 24.8603 15.8587 24.8603 12.2174C24.8603 8.57935 23.3016 5.4587 20.831 3.1837C18.6853 1.2337 15.7603 0 12.6397 0" fill="#009DDD"/>
<mask id="mask0_2210_11738" style="mask-type:luminance" maskUnits="userSpaceOnUse" x="5" y="0" width="20" height="25">
<path fill-rule="evenodd" clip-rule="evenodd" d="M5.75146 0H24.7971V24.5044H5.75146V0Z" fill="white"/>
</mask>
<g mask="url(#mask0_2210_11738)">
<path fill-rule="evenodd" clip-rule="evenodd" d="M20.8308 3.1837C18.6852 1.2337 15.7602 0 12.6395 0H12.0558C8.22211 2.7924 5.75146 7.27935 5.75146 12.2837C5.75146 17.288 8.22211 21.775 11.9895 24.5044H12.5765C15.7602 24.5044 18.6221 23.3337 20.7645 21.3174C23.2352 19.1087 24.7971 15.8587 24.7971 12.2174C24.7971 8.57935 23.3015 5.4587 20.8308 3.1837Z" fill="#0284CC"/>
</g>
<mask id="mask1_2210_11738" style="mask-type:luminance" maskUnits="userSpaceOnUse" x="17" y="0" width="25" height="25">
<path fill-rule="evenodd" clip-rule="evenodd" d="M17.0605 0H41.3061V24.5674H17.0605V0Z" fill="white"/>
</mask>
<g mask="url(#mask1_2210_11738)">
<path fill-rule="evenodd" clip-rule="evenodd" d="M29.0855 0C25.9018 0 23.0399 1.1674 20.8312 3.1837C20.3768 3.575 19.9855 4.02935 19.5975 4.4837H22.0649C22.3899 4.875 22.7149 5.32935 22.9768 5.7837H18.6225C18.3605 6.23805 18.1018 6.62935 17.9062 7.0837H23.6899C23.8855 7.53805 24.0812 7.92935 24.2105 8.3837H17.4518C17.3225 8.83805 17.1899 9.22935 17.0605 9.6837H24.6018C24.7968 10.5293 24.8605 11.375 24.8605 12.2837C24.8605 13.65 24.6649 14.95 24.2105 16.1837H17.4518C17.5812 16.6381 17.7768 17.0294 17.9725 17.4837H23.7562C23.5605 17.938 23.3018 18.3924 23.0399 18.7837H18.6855C18.9475 19.2381 19.2725 19.6924 19.5975 20.0837H22.0649C21.6768 20.538 21.2855 20.9924 20.8312 21.3837C23.0399 23.3337 25.9018 24.5674 29.0855 24.5674C35.8468 24.5674 41.3062 19.1087 41.3062 12.35C41.3062 5.525 35.8468 0 29.0855 0Z" fill="#FF2957"/>
</g>
<mask id="mask2_2210_11738" style="mask-type:luminance" maskUnits="userSpaceOnUse" x="17" y="0" width="25" height="25">
<path fill-rule="evenodd" clip-rule="evenodd" d="M17.0605 0H41.3061V24.5674H17.0605V0Z" fill="white"/>
</mask>
<g mask="url(#mask2_2210_11738)">
<path fill-rule="evenodd" clip-rule="evenodd" d="M29.0855 0C25.9018 0 23.0399 1.1674 20.8312 3.1837C20.3768 3.575 19.9855 4.02935 19.5975 4.4837H22.0649C22.3899 4.875 22.7149 5.32935 22.9768 5.7837H18.6225C18.3605 6.23805 18.1018 6.62935 17.9062 7.0837H23.6899C23.8855 7.53805 24.0812 7.92935 24.2105 8.3837H17.4518C17.3225 8.83805 17.1899 9.22935 17.0605 9.6837H24.6018C24.7968 10.5293 24.8605 11.375 24.8605 12.2837C24.8605 13.65 24.6649 14.95 24.2105 16.1837H17.4518C17.5812 16.6381 17.7768 17.0294 17.9725 17.4837H23.7562C23.5605 17.938 23.3018 18.3924 23.0399 18.7837H18.6855C18.9475 19.2381 19.2725 19.6924 19.5975 20.0837H22.0649C21.6768 20.538 21.2855 20.9924 20.8312 21.3837C23.0399 23.3337 25.9018 24.5674 29.0855 24.5674C35.8468 24.5674 41.3062 19.1087 41.3062 12.35" fill="#ED1C2E"/>
</g>
<path fill-rule="evenodd" clip-rule="evenodd" d="M20.8311 21.3836C23.3017 19.1749 24.8604 15.9249 24.8604 12.2836C24.8604 8.64164 23.3017 5.45859 20.8311 3.18359V21.3836Z" fill="#0466B5"/>
<mask id="mask3_2210_11738" style="mask-type:luminance" maskUnits="userSpaceOnUse" x="0" y="0" width="42" height="25">
<path fill-rule="evenodd" clip-rule="evenodd" d="M0.355957 24.5674H41.306V0H0.355957V24.5674Z" fill="white"/>
</mask>
<g mask="url(#mask3_2210_11738)">
<path fill-rule="evenodd" clip-rule="evenodd" d="M37.5831 14.9756H37.6649V14.8897H37.5831V14.9756ZM37.5831 15.2267H37.4981V14.8096H37.7491L37.83 14.8905C37.83 14.9756 37.83 14.9756 37.7491 14.9756L37.83 15.1416H37.7491L37.664 14.9756H37.5831V15.2267ZM37.5831 15.4777C37.83 15.4777 37.9151 15.3076 37.9151 15.0607C37.9151 14.8096 37.7491 14.7246 37.5831 14.7246C37.3321 14.7246 37.1661 14.8905 37.1661 15.0607C37.1661 15.2267 37.413 15.4777 37.5831 15.4777ZM37.0811 15.0607C37.0811 14.8096 37.3321 14.5586 37.5831 14.5586C37.83 14.5586 38.0811 14.8096 38.0811 15.0607C38.0811 15.3076 37.83 15.5586 37.5831 15.5586C37.3321 15.5586 37.0811 15.3076 37.0811 15.0607Z" fill="white"/>
<path fill-rule="evenodd" clip-rule="evenodd" d="M20.8312 3.18374C20.3768 3.57504 19.9855 4.02939 19.5975 4.48374H22.0649C22.3899 4.87504 22.7149 5.32939 22.9768 5.78374H18.6225C18.3605 6.23809 18.1018 6.62939 17.9062 7.08374H23.6899C23.8855 7.53809 24.0812 7.92939 24.2105 8.38374H17.4518C17.3225 8.83809 17.1899 9.22939 17.0605 9.68374H24.6018C24.7975 10.5294 24.8605 11.375 24.8605 12.2837C24.8605 13.65 24.6649 14.95 24.2105 16.1837H17.4518C17.5812 16.6381 17.7768 17.0294 17.9725 17.4837H23.7562C23.5605 17.9381 23.3018 18.3924 23.0399 18.7837H18.6855C18.9475 19.2381 19.2725 19.6924 19.5975 20.0837H22.0649C21.6768 20.5381 21.2855 20.9924 20.8312 21.3837C23.0399 23.3337 25.9018 24.5674 29.0855 24.5674H29.6725C33.4399 21.8381 35.9105 17.3544 35.9105 12.35C35.9105 7.34244 33.4399 2.85874 29.6725 0.129394H29.0855C25.9018 4.37051e-05 23.0399 1.23374 20.8312 3.18374Z" fill="#D1094B"/>
<path fill-rule="evenodd" clip-rule="evenodd" d="M11.081 15.3377H9.52231L10.431 10.592L8.35166 15.3377H6.98536L6.72666 10.592L5.81471 15.3377H4.45166L5.62231 9.09961H8.02666L8.15601 12.9996L9.84731 9.09961H12.3147L11.081 15.3377Z" fill="white"/>
<path fill-rule="evenodd" clip-rule="evenodd" d="M20.2475 12.2174V11.9587C20.2475 11.5674 19.9855 11.3087 19.5312 11.3087C19.0768 11.3087 18.6855 11.6337 18.5562 12.2174H20.2475ZM21.0268 15.2094C20.5062 15.3381 19.9855 15.4044 19.4649 15.4044C17.7768 15.4044 16.8649 14.625 16.8649 13.1294C16.8649 11.375 17.9725 10.1381 19.5312 10.1381C20.7649 10.1381 21.5475 10.8544 21.5475 11.9587C21.5475 12.35 21.4812 12.675 21.3518 13.1924H18.2975V13.3881C18.2975 13.975 18.7518 14.3 19.5975 14.3C20.1812 14.3 20.6355 14.2344 21.1562 13.975L21.0268 15.2094ZM14.9149 13.0631H14.5899C13.7475 13.0631 13.2899 13.325 13.2899 13.8424C13.2899 14.1674 13.4855 14.3631 13.8105 14.3631C14.4605 14.3631 14.9149 13.8424 14.9149 13.0631ZM16.0225 15.3381H14.7855V14.8174C14.3975 15.2094 13.8768 15.4044 13.1605 15.4044C12.3149 15.4044 11.7975 14.8174 11.7975 14.0381C11.7975 12.8044 12.7725 12.0881 14.4605 12.0881H15.1105C15.1768 11.8924 15.1768 11.8294 15.1768 11.7631C15.1768 11.4381 14.9149 11.3087 14.2018 11.3087C13.7475 11.3087 13.2899 11.375 12.9649 11.4381L12.7725 11.5044H12.6399L12.8355 10.4C13.6149 10.2044 14.0725 10.1381 14.6562 10.1381C15.9562 10.1381 16.6725 10.6587 16.6725 11.6337C16.6725 11.8924 16.6725 12.0881 16.5399 12.675L16.2149 14.4924L16.1518 14.8174L16.0855 15.0794V15.275L16.0225 15.3381ZM22.0649 11.8924C22.0649 12.5424 22.4562 13 23.2355 13.2594C23.8855 13.5174 23.9518 13.5844 23.9518 13.8424C23.9518 14.1674 23.6899 14.3 23.0399 14.3C22.5855 14.3 22.1312 14.2344 21.6768 14.1044L21.4812 15.275H21.5475L21.8062 15.3381H22.1975C22.5855 15.4044 22.8475 15.4044 23.0399 15.4044C24.6649 15.4044 25.4475 14.8844 25.4475 13.7131C25.4475 13 25.1225 12.6094 24.3399 12.2837C23.6899 12.025 23.6268 11.9587 23.6268 11.7631C23.6268 11.5044 23.8855 11.375 24.4062 11.375C24.6649 11.375 25.1225 11.375 25.5105 11.4381L25.7062 10.2674C25.3149 10.2044 24.7312 10.2044 24.3399 10.2044C22.6518 10.2044 22.0649 10.9837 22.0649 11.8924ZM32.5975 10.3337C32.4649 10.2674 32.4649 10.2674 32.4018 10.2674C32.3355 10.2674 32.2725 10.2674 32.2725 10.2044H32.0768C31.5562 10.2044 31.2312 10.4 30.7768 11.05L30.9062 10.2674H29.5399L28.6312 15.3381H30.1899C30.7105 12.2174 30.9725 11.7 31.6855 11.7H31.8812L32.0768 11.7631L32.5975 10.3337ZM28.1105 15.275C27.6562 15.4044 27.3975 15.4674 27.0062 15.4674C26.2268 15.4674 25.8355 15.0794 25.8355 14.3631C25.8355 14.2344 25.8355 14.1044 25.9018 13.9094L25.9649 13.3881L26.0312 13L26.7475 9.16309H28.2399L28.0475 10.3337H28.8268L28.6312 11.5044H27.8518L27.4605 13.5844C27.4605 13.65 27.3975 13.7794 27.3975 13.7794C27.3975 14.0381 27.5899 14.1674 27.9149 14.1674C28.1105 14.1674 28.2399 14.1674 28.3062 14.1044L28.1105 15.275ZM9.58551 12.6094L10.4975 10.5924L9.78116 14.3631C9.84746 14.6881 9.91051 15.0794 10.0399 15.4044H11.0812L12.2518 9.16309H9.97681C9.71486 10.1381 9.52246 11.2424 9.52246 12.35C9.58551 12.4131 9.58551 12.4794 9.58551 12.6094Z" fill="#DCE5E5"/>
<path fill-rule="evenodd" clip-rule="evenodd" d="M35.7148 12.4127C35.7148 11.892 35.5218 11.4377 34.8718 11.4377C34.0898 11.4377 33.6355 12.3496 33.6355 13.192C33.6355 13.842 33.9605 14.2996 34.4811 14.2996C34.8061 14.2996 35.5218 13.842 35.6511 13.0627C35.7148 12.8046 35.7148 12.609 35.7148 12.4127ZM37.3398 13.0627C37.0811 14.7546 35.9105 15.467 34.3511 15.467C32.6605 15.467 31.9468 14.4296 31.9468 13.1296C31.9468 11.3746 33.1148 10.1377 34.9355 10.1377C36.4968 10.1377 37.3398 11.1796 37.3398 12.4127V13.0627Z" fill="white"/>
<path fill-rule="evenodd" clip-rule="evenodd" d="M32.0103 13.7133C32.0766 13.2596 32.1396 12.7383 32.1396 12.284V12.1553C32.0766 12.4803 32.0103 12.8053 32.0103 13.1927C31.9466 13.3253 31.9466 13.5177 32.0103 13.7133Z" fill="white"/>
</g>
</svg>
