<svg width="42" height="25" viewBox="0 0 42 25" fill="none" xmlns="http://www.w3.org/2000/svg">
<path fill-rule="evenodd" clip-rule="evenodd" d="M41.3563 12.2837C41.3563 19.0424 35.8976 24.5674 29.0726 24.5674C22.3106 24.5674 16.7856 19.0424 16.7856 12.2837C16.7856 5.525 22.2476 0 29.0063 0C35.8976 0 41.3563 5.525 41.3563 12.2837Z" fill="#FFB600"/>
<path fill-rule="evenodd" clip-rule="evenodd" d="M29.0721 0C35.8308 0 41.3558 5.525 41.3558 12.2837C41.3558 19.0424 35.8971 24.5674 29.0721 24.5674C22.3108 24.5674 16.7852 19.0424 16.7852 12.2837" fill="#F7981D"/>
<path fill-rule="evenodd" clip-rule="evenodd" d="M29.0723 0C35.831 0 41.356 5.525 41.356 12.2837C41.356 19.0424 35.8973 24.5674 29.0723 24.5674" fill="#FF8500"/>
<mask id="mask0_2210_11699" style="mask-type:luminance" maskUnits="userSpaceOnUse" x="0" y="0" width="25" height="25">
<path fill-rule="evenodd" clip-rule="evenodd" d="M0.40625 0H24.9104V24.5674H0.40625V0Z" fill="white"/>
</mask>
<g mask="url(#mask0_2210_11699)">
<path fill-rule="evenodd" clip-rule="evenodd" d="M12.5606 0C5.86495 0.06305 0.40625 5.525 0.40625 12.2837C0.40625 19.0424 5.86495 24.5674 12.6899 24.5674C15.8776 24.5674 18.7356 23.3337 20.9475 21.3837C21.4025 20.9924 21.7899 20.538 22.1812 20.0837H19.6476C19.3225 19.6924 18.9975 19.2381 18.7356 18.85H23.0906C23.3519 18.4587 23.6106 18.0043 23.8062 17.55H18.0226C17.8276 17.1587 17.6313 16.7043 17.5026 16.25H24.2606C24.6519 15.0131 24.9106 13.7131 24.9106 12.35C24.9106 11.4381 24.7812 10.5924 24.6519 9.75H17.1106C17.1775 9.2924 17.3062 8.90435 17.4356 8.45H24.1975C24.0656 7.9924 23.8726 7.53805 23.6769 7.15H17.9562C18.1525 6.6924 18.4106 6.30435 18.6726 5.85H23.0269C22.7656 5.3924 22.4406 4.93805 22.0519 4.55H19.6476C20.0356 4.0924 20.4276 3.70435 20.8813 3.31305C18.7356 1.3 15.8106 0.12935 12.6276 0.12935C12.6276 0 12.6276 0 12.5606 0Z" fill="#FF5050"/>
</g>
<path fill-rule="evenodd" clip-rule="evenodd" d="M0.40625 12.2833C0.40625 19.042 5.86495 24.567 12.6899 24.567C15.8769 24.567 18.7356 23.3333 20.9475 21.3833C21.4019 20.992 21.7899 20.5376 22.1812 20.0833H19.6476C19.3225 19.692 18.9975 19.2376 18.7356 18.8496H23.09C23.3519 18.4583 23.6106 18.0039 23.8062 17.5496H18.0226C17.8269 17.1583 17.6313 16.7039 17.5019 16.2496H24.2606C24.6519 15.0126 24.9106 13.7126 24.9106 12.3496C24.9106 11.4376 24.7812 10.592 24.6519 9.74956H17.1106C17.1769 9.29196 17.3062 8.90391 17.4356 8.44956H24.1975C24.0649 7.99196 23.8726 7.53761 23.6769 7.14956H17.9562C18.1519 6.69196 18.4106 6.30391 18.6726 5.84956H23.0269C22.7649 5.39196 22.44 4.93761 22.0519 4.54956H19.6476C20.0356 4.09196 20.4269 3.70391 20.8813 3.31261C18.7356 1.29956 15.8106 0.128906 12.6269 0.128906H12.5606" fill="#E52836"/>
<path fill-rule="evenodd" clip-rule="evenodd" d="M12.6899 24.567C15.8768 24.567 18.7355 23.3339 20.9475 21.3839C21.4018 20.992 21.7899 20.5376 22.1812 20.0839H19.6475C19.3225 19.692 18.9975 19.2376 18.7355 18.8496H23.0899C23.3518 18.4589 23.6105 18.0039 23.8062 17.5496H18.0225C17.8268 17.1589 17.6312 16.7039 17.5018 16.2496H24.2605C24.6518 15.0126 24.9105 13.7126 24.9105 12.3496C24.9105 11.4376 24.7812 10.592 24.6518 9.74956H17.1105C17.1768 9.29196 17.3062 8.90391 17.4355 8.44956H24.1975C24.0649 7.99196 23.8725 7.53761 23.6768 7.14956H17.9562C18.1518 6.69196 18.4105 6.30391 18.6725 5.84956H23.0268C22.7649 5.39196 22.4399 4.93761 22.0518 4.54956H19.6475C20.0355 4.09196 20.4268 3.70391 20.8812 3.31261C18.7355 1.29956 15.8105 0.128906 12.6268 0.128906H12.5605" fill="#CB2026"/>
<path fill-rule="evenodd" clip-rule="evenodd" d="M33.881 15.467C34.2723 13.3246 34.3354 11.567 35.2473 11.892C35.3767 11.0496 35.5723 10.7246 35.7017 10.3996H35.4397C34.856 10.3996 34.4017 11.179 34.4017 11.179L34.531 10.4627H33.2973L32.4517 15.534H33.881V15.467ZM31.3473 13.192C31.3473 13.3877 31.2147 14.429 30.4354 14.429C30.0473 14.429 29.9147 14.104 29.9147 13.909C29.9147 13.584 30.1104 13.129 31.0854 13.129C31.281 13.192 31.281 13.192 31.3473 13.192ZM31.0223 10.267C30.1104 10.267 29.4604 10.529 29.4604 10.529L29.2647 11.6333C29.2647 11.6333 29.8517 11.3746 30.6973 11.3746C31.1517 11.3746 31.5397 11.4377 31.5397 11.829C31.5397 12.0877 31.4767 12.154 31.4767 12.154H30.8897C29.7854 12.154 28.5517 12.609 28.5517 14.104C28.5517 15.2746 29.331 15.534 29.7854 15.534C30.6973 15.534 31.0854 14.9496 31.1517 14.9496L31.0854 15.467H32.256L32.7767 11.892C32.8397 10.3333 31.4767 10.267 31.0223 10.267ZM22.9604 15.467C23.3517 13.3246 23.4147 11.567 24.3267 11.892C24.456 11.0496 24.6517 10.7246 24.781 10.3996H24.5223C23.9354 10.3996 23.481 11.179 23.481 11.179L23.6104 10.4627H22.3767L21.531 15.534H22.9604V15.467ZM2.81036 15.467L3.58971 10.7877L3.72231 15.467H4.63101L6.32231 10.7877L5.60601 15.467H6.97231L8.01036 9.22896H5.86471L4.56471 13.0627L4.50166 9.22896H2.61471L1.57666 15.467H2.81036ZM38.2354 12.6746C38.2354 13.3877 37.9104 14.2996 37.1973 14.2996C36.7397 14.2996 36.481 13.909 36.481 13.259C36.481 12.217 36.9354 11.567 37.5223 11.567C37.9767 11.567 38.2354 11.892 38.2354 12.6746ZM38.8223 9.22896L38.5604 10.9833C38.5604 10.9833 38.0397 10.3333 37.3267 10.3333C36.156 10.3333 35.1147 11.7627 35.1147 13.454C35.1147 14.492 35.6354 15.5996 36.7397 15.5996C37.5223 15.5996 37.9767 15.079 37.9767 15.079L37.9104 15.534H39.2104L40.1854 9.29201L38.8223 9.22896ZM12.8854 15.534C13.2104 15.534 14.8354 15.5996 14.8354 13.842C14.8354 12.217 13.2767 12.542 13.2767 11.892C13.2767 11.567 13.5354 11.4377 13.9897 11.4377C14.1854 11.4377 14.9017 11.504 14.9017 11.504L15.0973 10.3333C15.0973 10.3333 14.6397 10.204 13.8604 10.204C12.8854 10.204 11.9104 10.592 11.9104 11.892C11.9104 13.3877 13.5354 13.259 13.5354 13.842C13.5354 14.234 13.081 14.2996 12.756 14.2996C12.1723 14.2996 11.5854 14.104 11.5854 14.104L11.3897 15.2746C11.456 15.404 11.781 15.534 12.8854 15.534ZM10.156 13.192C10.156 13.3877 10.0267 14.429 9.24731 14.429C8.85601 14.429 8.72666 14.104 8.72666 13.909C8.72666 13.584 8.92231 13.129 9.89731 13.129C10.0897 13.192 10.156 13.192 10.156 13.192ZM9.89731 10.267C8.98536 10.267 8.33536 10.529 8.33536 10.529L8.13971 11.6333C8.13971 11.6333 8.72666 11.3746 9.57231 11.3746C10.0267 11.3746 10.4147 11.4377 10.4147 11.829C10.4147 12.0877 10.3517 12.154 10.3517 12.154H9.76471C8.66036 12.154 7.42666 12.609 7.42666 14.104C7.42666 15.2746 8.20601 15.534 8.66036 15.534C9.57231 15.534 9.96036 14.9496 10.0267 14.9496L9.96036 15.467H11.131L11.6517 11.892C11.6517 10.3333 10.3517 10.267 9.89731 10.267ZM28.031 15.404L28.2897 13.9746C28.2897 13.9746 27.6397 14.2996 27.1854 14.2996C26.2767 14.2996 25.8854 13.584 25.8854 12.804C25.8854 11.242 26.6647 10.3996 27.5767 10.3996C28.2267 10.3996 28.7473 10.7877 28.7473 10.7877L28.9397 9.42461C28.9397 9.42461 28.1604 9.09961 27.4473 9.09961C25.9517 9.09961 24.456 10.3996 24.456 12.867C24.456 14.492 25.2354 15.5996 26.7973 15.5996C27.3147 15.5996 28.031 15.404 28.031 15.404ZM19.7767 11.4377C20.4897 11.4377 20.3604 12.2833 20.3604 12.3496H18.931C18.931 12.2833 19.0604 11.4377 19.7767 11.4377ZM17.5017 13.3246C17.5017 15.142 18.7354 15.5996 19.7767 15.5996C20.7517 15.5996 21.1397 15.404 21.1397 15.404L21.4017 14.167C21.4017 14.167 20.6854 14.492 20.0354 14.492C18.606 14.492 18.8647 13.454 18.8647 13.454H21.531C21.531 13.454 21.7267 12.609 21.7267 12.2833C21.7267 11.4377 21.2723 10.3996 19.8397 10.3996C18.4767 10.267 17.5017 11.6996 17.5017 13.3246ZM17.0473 15.404L17.2397 14.2996C17.1767 14.2996 17.0473 14.3627 16.9147 14.3627C16.4604 14.3627 16.3973 14.104 16.4604 13.9746L16.8517 11.6996H17.5647L17.7604 10.4627H17.1104L17.2397 9.68331H15.9397C15.9397 9.68331 15.1604 13.9746 15.1604 14.492C15.1604 15.2746 15.6147 15.5996 16.2017 15.5996C16.5897 15.5996 16.9147 15.467 17.0473 15.404Z" fill="white"/>
<path fill-rule="evenodd" clip-rule="evenodd" d="M32.5152 15.467H33.8815C34.2721 13.3246 34.3358 11.567 35.2471 11.892C35.3765 11.0496 35.5721 10.7246 35.7015 10.3996H35.4402C34.8565 10.3996 34.4015 11.179 34.4015 11.179L34.5315 10.4627L32.5152 15.467ZM31.9315 13.192C31.9315 13.3877 31.1515 14.429 30.3721 14.429C29.9815 14.429 29.8515 14.104 29.8515 13.909C29.8515 13.584 30.0471 13.129 31.0221 13.129C31.2815 13.192 31.9315 13.192 31.9315 13.192ZM29.2652 11.6996C29.2652 11.6996 29.8515 11.4377 30.6971 11.4377C31.1515 11.4377 31.5402 11.504 31.5402 11.892C31.5402 12.154 31.4765 12.217 31.4765 12.217H30.8902C29.7858 12.217 28.5515 12.6746 28.5515 14.167C28.5515 15.3377 29.3315 15.5996 29.7858 15.5996C30.6971 15.5996 31.0858 15.0127 31.1515 15.0127L31.0858 15.534H32.2565L32.7765 11.9583C32.7765 10.4627 31.4765 10.3996 30.9565 10.3996L29.2652 11.6996ZM21.5978 15.467H22.9608C23.3515 13.3246 23.4152 11.567 24.3265 11.892C24.4565 11.0496 24.6515 10.7246 24.7815 10.3996H24.5222C23.9359 10.3996 23.4815 11.179 23.4815 11.179L23.6108 10.4627L21.5978 15.467ZM2.8102 15.467L3.5902 10.7877L3.7228 15.467H4.6315L6.3228 10.7877L5.6065 15.467H6.9728L8.0102 9.22896H6.3852L4.5652 13.0627L4.50215 9.22896H3.7852L1.57715 15.467H2.8102ZM38.4972 12.6746C38.4972 13.3877 37.9109 14.2996 37.1971 14.2996C36.7402 14.2996 36.4815 13.909 36.4815 13.259C36.4815 12.217 36.9358 11.567 37.5221 11.567C37.9765 11.567 38.4972 11.892 38.4972 12.6746ZM38.5608 10.9833C38.5608 10.9833 38.0402 10.3333 37.3265 10.3333C36.1565 10.3333 35.7652 11.7627 35.7652 13.454C35.7652 14.492 35.6358 15.5996 36.7402 15.5996C37.5221 15.5996 37.9765 15.079 37.9765 15.079L37.9109 15.534H39.2108L40.1858 9.29201L38.5608 10.9833ZM11.4565 15.404C11.4565 15.404 11.8478 15.534 12.9521 15.534C13.2771 15.534 14.9021 15.5996 14.9021 13.842C14.9021 12.217 13.3402 12.542 13.3402 11.892C13.3402 11.567 13.6021 11.4377 14.0565 11.4377C14.2521 11.4377 14.9652 11.504 14.9652 11.504L15.1602 10.3333C15.1602 10.3333 14.7065 10.204 13.9271 10.204C12.9521 10.204 12.6271 10.592 12.6271 11.892C12.6271 13.3877 13.6021 13.259 13.6021 13.842C13.6021 14.234 13.1478 14.2996 12.8228 14.2996L11.4565 15.404ZM10.8065 13.192C10.8065 13.3877 10.0271 14.429 9.2478 14.429C8.8565 14.429 8.72715 14.104 8.72715 13.909C8.72715 13.584 8.9228 13.129 9.8978 13.129C10.0902 13.192 10.8065 13.192 10.8065 13.192ZM8.1402 11.6996C8.1402 11.6996 8.72715 11.4377 9.5728 11.4377C10.0271 11.4377 10.4152 11.504 10.4152 11.892C10.4152 12.154 10.3521 12.217 10.3521 12.217H9.7652C8.6602 12.217 7.42715 12.6746 7.42715 14.167C7.42715 15.3377 8.2065 15.5996 8.6602 15.5996C9.5728 15.5996 9.9602 15.0127 10.0271 15.0127L9.9602 15.534H11.1315L11.6521 11.9583C11.6521 10.4627 10.3521 10.3996 9.8315 10.3996L8.1402 11.6996ZM28.0315 15.404L28.2902 13.9746C28.2902 13.9746 27.6402 14.2996 27.1858 14.2996C26.2765 14.2996 25.8858 13.584 25.8858 12.804C25.8858 11.242 26.6652 10.3996 27.5765 10.3996C28.2265 10.3996 28.7471 10.7877 28.7471 10.7877L28.9402 9.42461C28.9402 9.42461 28.1608 9.09961 27.4471 9.09961C25.9515 9.09961 25.1065 10.3996 25.1065 12.867C25.1065 14.492 25.2358 15.5996 26.7971 15.5996C27.3152 15.5996 28.0315 15.404 28.0315 15.404ZM19.7771 11.4377C20.4902 11.4377 20.6228 12.2833 20.6228 12.3496H18.9315C18.9315 12.2833 19.0602 11.4377 19.7771 11.4377ZM18.1521 13.3246C18.1521 15.142 18.7352 15.5996 19.7771 15.5996C20.7521 15.5996 21.1402 15.404 21.1402 15.404L21.4021 14.167C21.4021 14.167 20.6852 14.492 20.0352 14.492C18.6065 14.492 18.8652 13.454 18.8652 13.454H21.5315C21.5315 13.454 21.7271 12.609 21.7271 12.2833C21.7271 11.4377 21.2728 10.3996 19.8402 10.3996C18.4771 10.267 18.1521 11.6996 18.1521 13.3246ZM15.0315 14.492C15.0315 15.2746 15.4852 15.5996 16.0728 15.5996C16.5271 15.5996 16.9152 15.467 17.0478 15.404L17.2402 14.2996C17.1771 14.2996 17.0478 14.3627 16.9152 14.3627C16.4602 14.3627 16.3978 14.104 16.4602 13.9746L16.8521 11.6996H17.5652L17.7602 10.4627H17.1102L17.2402 9.68331L15.0315 14.492Z" fill="#DCE5E5"/>
</svg>
