<svg width="30" height="30" viewBox="0 0 30 30" fill="none" xmlns="http://www.w3.org/2000/svg">
<path d="M8.125 28.125C10.275 28.125 12.15 26.9062 13.0938 25.1312C14.375 26.7 16.1875 27.75 18.2312 28.0437C18.6125 28.1 19 28.125 19.375 28.125C22.9875 28.125 26.2375 25.7125 27.2062 22.1562C27.3 21.8375 27.3687 21.5063 27.4187 21.1625C27.4688 20.8125 27.5 20.4625 27.5 20.1375V20.1312V20.125C27.5688 16.05 24.575 12.5375 20.525 11.9562C18.0312 11.6 15.525 12.4437 13.75 14.1437V7.5C13.75 4.4 11.225 1.875 8.125 1.875C5.025 1.875 2.5 4.4 2.5 7.5V22.5C2.5 25.6 5.025 28.125 8.125 28.125ZM13.75 16.0625C15.2188 13.95 17.7938 12.825 20.35 13.1938C23.5375 13.65 25.95 16.2563 26.225 19.4L13.75 17.6125V16.0625ZM13.75 18.875L26.2188 20.6625C26.2063 20.7688 26.2 20.8688 26.1812 20.975C26.1687 21.0813 26.15 21.1812 26.1313 21.2812L13.75 19.5062V18.875ZM13.75 22.5V20.7687L25.775 22.4938C24.6375 25.4313 21.5938 27.2563 18.4062 26.8062C16.4188 26.5187 14.6875 25.3938 13.6125 23.7188C13.7 23.325 13.75 22.9188 13.75 22.5ZM3.75 7.5C3.75 5.0875 5.7125 3.125 8.125 3.125C10.5375 3.125 12.5 5.0875 12.5 7.5V14.375H3.75V7.5ZM3.75 15.625H12.5V22.5C12.5 24.9125 10.5375 26.875 8.125 26.875C5.7125 26.875 3.75 24.9125 3.75 22.5V15.625Z" fill="#818181"/>
<path d="M8.125 3.75C7.78125 3.75 7.5 4.03125 7.5 4.375C7.5 4.71875 7.78125 5 8.125 5C9.50625 5 10.625 6.11875 10.625 7.5V11.25C10.625 11.5938 10.9062 11.875 11.25 11.875C11.5938 11.875 11.875 11.5938 11.875 11.25V7.5C11.875 5.43125 10.1937 3.75 8.125 3.75Z" fill="#818181"/>
</svg>
