<svg width="29" height="29" viewBox="0 0 29 29" fill="none" xmlns="http://www.w3.org/2000/svg">
<path d="M15.3796 15.3796L26.5165 15.3796C27.2236 15.3796 27.7539 14.8492 27.7539 14.1421C27.7539 13.435 27.2236 12.9047 26.5165 12.9047L15.3796 12.9047C14.1421 12.9047 14.8492 12.9047 14.1421 12.9047C13.435 12.9047 14.1421 12.9047 12.9047 12.9047L1.76777 12.9047C1.41422 12.9047 1.14905 12.9931 0.883884 13.2583C0.353554 13.7886 0.353554 14.4957 0.883884 15.026C1.14905 15.2912 1.41421 15.3796 1.76777 15.3796L12.9047 15.3796C14.1421 15.3796 12.9047 15.3796 13.5 15.3796C14.2418 15.3796 13.7886 15.3796 14.1421 15.3796C14.8492 15.3796 14.1406 15.3796 15.3796 15.3796Z" fill="#818181"/>
</svg>
