<svg width="30" height="30" viewBox="0 0 30 30" fill="none" xmlns="http://www.w3.org/2000/svg">
<path d="M18.4905 12.5701L12.57 18.4906C12.4285 18.6272 12.2391 18.7028 12.0424 18.7011C11.8458 18.6994 11.6577 18.6205 11.5186 18.4814C11.3796 18.3424 11.3007 18.1543 11.299 17.9576C11.2973 17.761 11.3729 17.5715 11.5095 17.4301L17.43 11.5096C17.5714 11.373 17.7609 11.2974 17.9575 11.2991C18.1542 11.3008 18.3423 11.3797 18.4814 11.5187C18.6204 11.6578 18.6993 11.8459 18.701 12.0425C18.7027 12.2392 18.6271 12.4286 18.4905 12.5701ZM12.936 12.9361C13.0995 12.7727 13.211 12.5645 13.2562 12.3378C13.3014 12.1111 13.2783 11.8761 13.1899 11.6625C13.1015 11.4489 12.9518 11.2663 12.7596 11.1378C12.5674 11.0094 12.3414 10.9408 12.1102 10.9408C11.8791 10.9408 11.6531 11.0094 11.4609 11.1378C11.2687 11.2663 11.1189 11.4489 11.0305 11.6625C10.9421 11.8761 10.9191 12.1111 10.9643 12.3378C11.0095 12.5645 11.1209 12.7727 11.2845 12.9361C11.5036 13.1549 11.8006 13.2778 12.1102 13.2778C12.4199 13.2778 12.7169 13.1549 12.936 12.9361ZM17.064 17.0626C16.9004 17.2259 16.789 17.4341 16.7438 17.6609C16.6986 17.8876 16.7216 18.1226 16.81 18.3362C16.8984 18.5498 17.0482 18.7324 17.2404 18.8608C17.4326 18.9893 17.6586 19.0578 17.8897 19.0578C18.1209 19.0578 18.3469 18.9893 18.5391 18.8608C18.7313 18.7324 18.881 18.5498 18.9694 18.3362C19.0578 18.1226 19.0809 17.8876 19.0357 17.6609C18.9905 17.4341 18.879 17.2259 18.7155 17.0626C18.4964 16.8438 18.1994 16.7208 17.8897 16.7208C17.5801 16.7208 17.2831 16.8438 17.064 17.0626ZM25.7655 16.7026C25.7059 17.0977 25.541 17.4694 25.2882 17.7787C25.0353 18.0881 24.7038 18.3236 24.3285 18.4606L22.863 19.0066L23.283 20.5126C23.3897 20.8966 23.3926 21.302 23.2913 21.6874C23.1899 22.0729 22.988 22.4245 22.7062 22.7063C22.4244 22.9881 22.0728 23.19 21.6873 23.2914C21.3019 23.3927 20.8965 23.3898 20.5125 23.2831L19.0065 22.8631L18.462 24.3286C18.3251 24.7037 18.0898 25.0351 17.7808 25.2879C17.4717 25.5408 17.1003 25.7058 16.7055 25.7656C16.5854 25.7849 16.4641 25.7949 16.3425 25.7956C16.0042 25.796 15.6702 25.7192 15.3661 25.571C15.062 25.4229 14.7957 25.2072 14.5875 24.9406L13.6185 23.7151L12.3195 24.5791C11.9871 24.8004 11.6019 24.9292 11.2032 24.9524C10.8046 24.9756 10.407 24.8923 10.0512 24.711C9.69546 24.5298 9.39432 24.2571 9.17874 23.921C8.96315 23.5849 8.84088 23.1975 8.82449 22.7986L8.76149 21.2386L7.20149 21.1756C6.80254 21.1592 6.41513 21.0369 6.07905 20.8213C5.74296 20.6057 5.4703 20.3046 5.28905 19.9488C5.1078 19.593 5.0245 19.1954 5.04768 18.7968C5.07087 18.3982 5.19971 18.0129 5.42099 17.6806L6.28499 16.3816L5.05949 15.4111C4.74659 15.1634 4.5052 14.837 4.36006 14.4652C4.21492 14.0935 4.17125 13.6899 4.23354 13.2957C4.29582 12.9015 4.46182 12.531 4.7145 12.2222C4.96719 11.9133 5.29747 11.6772 5.67149 11.5381L7.13699 10.9936L6.71699 9.48758C6.60989 9.10351 6.60677 8.69787 6.70797 8.3122C6.80916 7.92653 7.01102 7.57468 7.29288 7.29266C7.57475 7.01064 7.92649 6.80859 8.31211 6.70719C8.69772 6.60579 9.10336 6.60869 9.48749 6.71558L10.9935 7.13558L11.538 5.67158C11.6771 5.29756 11.9132 4.96728 12.2221 4.7146C12.5309 4.46191 12.9015 4.29592 13.2956 4.23363C13.6898 4.17135 14.0934 4.21501 14.4651 4.36015C14.8369 4.50529 15.1633 4.74669 15.411 5.05958L16.3815 6.28508L17.6805 5.42108C18.0129 5.1998 18.3981 5.07096 18.7967 5.04777C19.1953 5.02459 19.593 5.10789 19.9487 5.28914C20.3045 5.47039 20.6056 5.74305 20.8212 6.07914C21.0368 6.41523 21.1591 6.80263 21.1755 7.20158L21.2385 8.76158L22.7985 8.82458C23.1974 8.84098 23.5848 8.96324 23.9209 9.17883C24.257 9.39442 24.5297 9.69556 24.7109 10.0513C24.8922 10.4071 24.9755 10.8047 24.9523 11.2033C24.9291 11.6019 24.8003 11.9872 24.579 12.3196L23.715 13.6171L24.9405 14.5876C25.2552 14.8336 25.4979 15.1598 25.6431 15.5319C25.7883 15.9041 25.8305 16.3084 25.7655 16.7026ZM24.0105 15.7651L22.242 14.3656C22.0944 14.2488 21.9961 14.0807 21.9667 13.8949C21.9372 13.709 21.9787 13.5188 22.083 13.3621L23.3295 11.4886C23.4033 11.3779 23.4464 11.2495 23.4542 11.1166C23.4621 10.9837 23.4344 10.8512 23.3741 10.7325C23.3138 10.6139 23.223 10.5134 23.111 10.4415C22.9991 10.3695 22.87 10.3287 22.737 10.3231L20.487 10.2316C20.2987 10.2238 20.1202 10.1454 19.987 10.012C19.8539 9.87858 19.7759 9.69992 19.7685 9.51158L19.6755 7.26158C19.6697 7.12873 19.6286 6.99982 19.5565 6.88806C19.4845 6.7763 19.384 6.68571 19.2654 6.62557C19.1468 6.56543 19.0143 6.5379 18.8816 6.54581C18.7489 6.55372 18.6206 6.59678 18.51 6.67058L16.638 7.91558C16.4814 8.02078 16.291 8.063 16.1046 8.03379C15.9183 8.00459 15.7498 7.90612 15.633 7.75808L14.235 5.99108C14.1524 5.88704 14.0436 5.8068 13.9198 5.75858C13.796 5.71036 13.6617 5.69588 13.5305 5.71663C13.3992 5.73739 13.2759 5.79262 13.173 5.87668C13.0702 5.96074 12.9915 6.07062 12.945 6.19508L12.159 8.30558C12.0942 8.48237 11.965 8.6281 11.7972 8.71352C11.6294 8.79894 11.4355 8.81772 11.2545 8.76608L9.08549 8.16008C8.95732 8.124 8.82185 8.12269 8.69301 8.15629C8.56416 8.18989 8.44659 8.25718 8.35236 8.35126C8.25813 8.44533 8.19064 8.5628 8.15683 8.69159C8.12303 8.82038 8.12411 8.95585 8.15999 9.08408L8.76599 11.2546C8.81654 11.4356 8.79727 11.629 8.71198 11.7966C8.6267 11.9641 8.48163 12.0934 8.30549 12.1591L6.19499 12.9451C6.07053 12.9915 5.96065 13.0702 5.87659 13.1731C5.79253 13.276 5.73729 13.3993 5.71654 13.5305C5.69579 13.6618 5.71027 13.7961 5.75849 13.9199C5.80671 14.0437 5.88694 14.1525 5.99099 14.2351L7.75799 15.6346C7.90557 15.7514 8.00384 15.9194 8.0333 16.1053C8.06275 16.2912 8.02123 16.4814 7.91699 16.6381L6.67049 18.5116C6.59702 18.6223 6.55428 18.7505 6.54665 18.8832C6.53901 19.0158 6.56674 19.1481 6.62701 19.2665C6.68729 19.3849 6.77793 19.4852 6.88967 19.5571C7.00142 19.6289 7.13025 19.6698 7.26299 19.6756L9.51299 19.7686C9.70106 19.7763 9.87935 19.8545 10.0125 19.9876C10.1456 20.1207 10.2237 20.299 10.2315 20.4871L10.3245 22.7371C10.3301 22.8701 10.3709 22.9992 10.4429 23.1111C10.5149 23.2231 10.6153 23.3139 10.7339 23.3742C10.8526 23.4345 10.9852 23.4622 11.118 23.4543C11.2509 23.4465 11.3793 23.4034 11.49 23.3296L13.362 22.0846C13.5186 21.9797 13.709 21.9377 13.8953 21.9669C14.0815 21.9961 14.2499 22.0943 14.367 22.2421L15.765 24.0091C15.8476 24.1131 15.9563 24.1934 16.0801 24.2416C16.2039 24.2898 16.3383 24.3043 16.4695 24.2835C16.6007 24.2628 16.7241 24.2075 16.827 24.1235C16.9298 24.0394 17.0085 23.9295 17.055 23.8051L17.841 21.6946C17.9066 21.5184 18.036 21.3734 18.2035 21.2881C18.371 21.2028 18.5644 21.1835 18.7455 21.2341L20.9145 21.8386C21.0427 21.8751 21.1785 21.8766 21.3075 21.8428C21.4365 21.809 21.5541 21.7413 21.648 21.6466C21.7432 21.5534 21.8114 21.436 21.8452 21.3071C21.879 21.1782 21.8772 21.0425 21.84 20.9146L21.234 18.7441C21.1834 18.563 21.2027 18.3696 21.288 18.2021C21.3733 18.0346 21.5183 17.9052 21.6945 17.8396L23.805 17.0551C23.9294 17.0086 24.0393 16.9299 24.1234 16.827C24.2075 16.7242 24.2627 16.6008 24.2834 16.4696C24.3042 16.3384 24.2897 16.204 24.2415 16.0802C24.1933 15.9564 24.1145 15.8477 24.0105 15.7651Z" fill="#818181"/>
</svg>
