<svg width="30" height="30" viewBox="0 0 30 30" fill="none" xmlns="http://www.w3.org/2000/svg">
<path fill-rule="evenodd" clip-rule="evenodd" d="M18.1659 17.1823H20.5286C20.9399 17.1838 21.274 17.5179 21.2755 17.9293C21.2977 23.33 23.3877 24.969 26.3744 25.7159C24.0672 24.0826 22.8707 21.9516 23.2104 17.8708C23.2411 17.4827 23.5647 17.1838 23.9547 17.1823H26.317L22.2407 11.9665L18.1659 17.1823ZM28.4352 27.6099C28.3985 27.6099 28.3033 27.6024 28.2665 27.5964C24.1317 26.9871 20.0891 25.7831 19.7978 18.6822H16.6323C16.3454 18.6822 16.0844 18.5184 15.9599 18.2604C15.8339 18.0028 15.8677 17.6949 16.0435 17.4711L21.6535 10.2896C21.7941 10.1077 22.0108 10.0024 22.2407 10.0024C22.4706 10.0024 22.6877 10.1077 22.8283 10.2896L28.4367 17.4711C28.6137 17.6949 28.646 18.0028 28.5215 18.2604C28.3955 18.5184 28.1349 18.6822 27.8492 18.6822H24.6548C24.5022 22.4803 25.9541 23.948 28.9418 25.5123C29.3929 25.7497 29.6247 26.2623 29.5058 26.7587C29.3858 27.2537 28.9433 27.6039 28.4337 27.6099H28.4352ZM7.00935 13.5556H4.02232C3.6091 13.5556 3.27238 13.2204 3.27238 12.8057C3.27238 12.3913 3.6091 12.0557 4.02232 12.0557H7.00935C7.42369 12.0557 7.75929 12.3928 7.75929 12.8072C7.75779 13.2204 7.42182 13.5556 7.00785 13.5556H7.00935ZM13.7292 13.5556H10.7429C10.3279 13.5556 9.993 13.2204 9.993 12.8057C9.993 12.3913 10.3279 12.0557 10.7429 12.0557H13.7292C14.1424 12.0557 14.4792 12.3913 14.4792 12.8057C14.4792 13.2204 14.1424 13.5556 13.7292 13.5556ZM7.00935 10.5558H4.02232C3.6091 10.5558 3.27238 10.2206 3.27238 9.80589C3.27238 9.39155 3.6091 9.05595 4.02232 9.05595H7.00935C7.42369 9.05595 7.75929 9.39305 7.75929 9.80739C7.75779 10.2206 7.42182 10.5558 7.00785 10.5558H7.00935ZM13.7292 10.5558H10.7429C10.3279 10.5558 9.993 10.2206 9.993 9.80589C9.993 9.39155 10.3279 9.05595 10.7429 9.05595H13.7292C14.1424 9.05595 14.4792 9.39155 14.4792 9.80589C14.4792 10.2206 14.1424 10.5558 13.7292 10.5558ZM7.00935 7.55606H4.02232C3.6091 7.55606 3.27238 7.22083 3.27238 6.80612C3.27238 6.39177 3.6091 6.05617 4.02232 6.05617H7.00935C7.42369 6.05617 7.75929 6.39327 7.75929 6.80762C7.75779 7.22083 7.42182 7.55606 7.00785 7.55606H7.00935ZM13.7292 7.55606H10.7429C10.3279 7.55606 9.993 7.22083 9.993 6.80612C9.993 6.39177 10.3279 6.05617 10.7429 6.05617H13.7292C14.1424 6.05617 14.4792 6.39177 14.4792 6.80612C14.4792 7.22083 14.1424 7.55606 13.7292 7.55606ZM20.2691 7.55606H17.4613C17.047 7.55606 16.7114 7.22083 16.7114 6.80612C16.7114 6.39177 17.047 6.05617 17.4613 6.05617H20.2691C20.6838 6.05617 21.019 6.39327 21.0175 6.80762C21.0175 7.22083 20.6823 7.55606 20.2676 7.55606H20.2691ZM7.00935 22.5549H4.02232C3.6091 22.5549 3.27238 22.2197 3.27238 21.805C3.27238 21.3906 3.6091 21.055 4.02232 21.055H7.00935C7.42369 21.055 7.75929 21.3921 7.75929 21.8065C7.75779 22.2197 7.42182 22.5549 7.00785 22.5549H7.00935ZM13.7292 22.5549H10.7429C10.3279 22.5549 9.993 22.2197 9.993 21.805C9.993 21.3906 10.3279 21.055 10.7429 21.055H13.7292C14.1424 21.055 14.4792 21.3906 14.4792 21.805C14.4792 22.2197 14.1424 22.5549 13.7292 22.5549ZM7.00935 19.5552H4.02232C3.6091 19.5552 3.27238 19.2199 3.27238 18.8052C3.27238 18.3909 3.6091 18.0553 4.02232 18.0553H7.00935C7.42369 18.0553 7.75929 18.3924 7.75929 18.8067C7.75779 19.2199 7.42182 19.5552 7.00785 19.5552H7.00935ZM13.7292 19.5552H10.7429C10.3279 19.5552 9.993 19.2199 9.993 18.8052C9.993 18.3909 10.3279 18.0553 10.7429 18.0553H13.7292C14.1424 18.0553 14.4792 18.3909 14.4792 18.8052C14.4792 19.2199 14.1424 19.5552 13.7292 19.5552ZM7.00935 16.5554H4.02232C3.6091 16.5554 3.27238 16.2202 3.27238 15.8054C3.27238 15.3911 3.6091 15.0555 4.02232 15.0555H7.00935C7.42369 15.0555 7.75929 15.3926 7.75929 15.8069C7.75779 16.2202 7.42182 16.5554 7.00785 16.5554H7.00935ZM13.7292 16.5554H10.7429C10.3279 16.5554 9.993 16.2202 9.993 15.8054C9.993 15.3911 10.3279 15.0555 10.7429 15.0555H13.7292C14.1424 15.0555 14.4792 15.3911 14.4792 15.8054C14.4792 16.2202 14.1424 16.5554 13.7292 16.5554ZM21.4439 29.9989H2.76017C1.28165 30.0412 0.0498713 28.8811 0 27.4048V2.59368C0.0498713 1.11854 1.28165 -0.0412458 2.76017 0.00112604H21.4439C22.922 -0.0412458 24.1553 1.11742 24.2037 2.59368V6.80612C24.2037 7.21933 23.8696 7.55343 23.4564 7.55343C23.045 7.55343 22.7109 7.21933 22.7109 6.80612V2.59368C22.658 1.94498 22.0945 1.45864 21.4439 1.50101H2.76017C2.10922 1.45864 1.54526 1.94498 1.49464 2.59368V27.4048C1.54526 28.055 2.10922 28.5414 2.76017 28.499H21.4439C21.8586 28.499 22.1938 28.8342 22.1938 29.2489C22.1938 29.6633 21.8586 29.9989 21.4439 29.9989Z" fill="#818181"/>
</svg>
