<svg width="30" height="30" viewBox="0 0 30 30" fill="none" xmlns="http://www.w3.org/2000/svg">
<path d="M23.52 28.0716H6.48857C5.27919 28.0716 4.11933 27.5911 3.26417 26.736C2.409 25.8808 1.92857 24.721 1.92857 23.5116V6.48014C1.93084 5.27224 2.41227 4.11459 3.26719 3.26127C4.12211 2.40796 5.28067 1.92871 6.48857 1.92871H23.52C24.1177 1.92871 24.7096 2.04644 25.2618 2.27517C25.814 2.5039 26.3157 2.83915 26.7383 3.26179C27.161 3.68443 27.4962 4.18618 27.725 4.73838C27.9537 5.29059 28.0714 5.88244 28.0714 6.48014V23.5116C28.0714 24.7195 27.5922 25.878 26.7389 26.7329C25.8856 27.5879 24.7279 28.0693 23.52 28.0716ZM6.48857 4.07157C6.17156 4.07044 5.85743 4.13191 5.56422 4.25244C5.27101 4.37298 5.00448 4.55022 4.77991 4.77398C4.55535 4.99775 4.37717 5.26365 4.25559 5.55643C4.13401 5.84922 4.07143 6.16312 4.07143 6.48014V23.5116C4.07143 24.1526 4.32609 24.7674 4.7794 25.2207C5.2327 25.674 5.84751 25.9287 6.48857 25.9287H23.52C23.837 25.9287 24.1509 25.8661 24.4437 25.7446C24.7365 25.623 25.0024 25.4448 25.2262 25.2202C25.4499 24.9957 25.6272 24.7291 25.7477 24.4359C25.8682 24.1427 25.9297 23.8286 25.9286 23.5116V6.48014C25.9286 5.84135 25.6748 5.22872 25.2231 4.77702C24.7714 4.32533 24.1588 4.07157 23.52 4.07157H6.48857Z" fill="#818181"/>
<path d="M11.5886 16.0716C11.2927 16.0706 11.0004 16.0063 10.7314 15.883C10.3552 15.7121 10.0367 15.4356 9.81455 15.0872C9.59241 14.7388 9.47619 14.3333 9.48 13.9201V3.00014C9.48 2.71598 9.59288 2.44346 9.79381 2.24253C9.99475 2.04159 10.2673 1.92871 10.5514 1.92871C10.8356 1.92871 11.1081 2.04159 11.309 2.24253C11.51 2.44346 11.6229 2.71598 11.6229 3.00014V13.9201L13.6371 12.1373C14.0157 11.7993 14.5054 11.6125 15.0129 11.6125C15.5203 11.6125 16.01 11.7993 16.3886 12.1373L18.4543 13.9287L18.3857 3.00014C18.3857 2.71598 18.4986 2.44346 18.6995 2.24253C18.9005 2.04159 19.173 1.92871 19.4571 1.92871C19.7413 1.92871 20.0138 2.04159 20.2148 2.24253C20.4157 2.44346 20.5286 2.71598 20.5286 3.00014V13.9201C20.5324 14.3333 20.4162 14.7388 20.194 15.0872C19.9719 15.4356 19.6534 15.7121 19.2771 15.883C18.9121 16.0509 18.5061 16.1086 18.1088 16.0493C17.7114 15.9899 17.34 15.8159 17.04 15.5487L15 13.783L12.96 15.5573C12.581 15.8905 12.0932 16.0734 11.5886 16.0716ZM16.2857 22.7744H8.57143C8.28727 22.7744 8.01475 22.6615 7.81381 22.4606C7.61288 22.2597 7.5 21.9872 7.5 21.703C7.5 21.4188 7.61288 21.1463 7.81381 20.9454C8.01475 20.7445 8.28727 20.6316 8.57143 20.6316H16.2857C16.5699 20.6316 16.8424 20.7445 17.0433 20.9454C17.2443 21.1463 17.3571 21.4188 17.3571 21.703C17.3571 21.9872 17.2443 22.2597 17.0433 22.4606C16.8424 22.6615 16.5699 22.7744 16.2857 22.7744Z" fill="#818181"/>
</svg>
