<svg width="26" height="26" viewBox="0 0 26 26" fill="none" xmlns="http://www.w3.org/2000/svg">
<g clip-path="url(#clip0_2263_11115)">
<path d="M13 0C5.826 0 0 5.826 0 13C0 20.174 5.826 26 13 26C20.174 26 26 20.174 26 13C26 5.826 20.174 0 13 0ZM13 1.002C19.633 1.002 25 6.367 25 13C25 19.633 19.633 25 13 25C6.367 25 1 19.633 1 13C1 6.367 6.367 1.002 13 1.002ZM9.48 8.998C9.39 8.995 9.29 9.003 9.178 9.021C8.729 9.096 8.136 9.396 7.562 9.937C6.415 11.021 5.822 12.704 6.057 13.523C6.174 13.933 6.363 14.073 6.711 14.113C7.029 14.15 7.514 14.022 8.049 13.678C8.01668 13.4541 7.99964 13.2282 7.998 13.002C7.998 11.432 8.741 10.042 9.878 9.125C9.76282 9.04023 9.62299 8.99561 9.48 8.998ZM12.998 8.998C10.783 8.998 8.998 10.783 8.998 12.998C8.998 15.213 10.783 16.998 12.998 16.998C15.213 16.998 16.998 15.213 16.998 12.998C16.998 10.783 15.213 8.998 12.998 8.998ZM16.463 8.998C16.3378 9.00589 16.2176 9.05002 16.117 9.125C17.254 10.043 17.998 11.43 17.998 13C17.998 13.23 17.978 13.454 17.948 13.676C18.423 13.982 18.862 14.117 19.178 14.117C19.573 14.107 19.777 13.987 19.916 13.592C20.056 13.197 20.013 12.559 19.75 11.879C19.456 11.14 19.0042 10.4741 18.426 9.928C17.83 9.368 17.214 9.071 16.764 9.012C16.6646 8.99536 16.5635 8.99066 16.463 8.998ZM11.498 10.998C12.044 10.998 12.498 11.452 12.498 11.998C12.498 12.544 12.044 12.998 11.498 12.998C10.952 12.998 10.498 12.544 10.498 11.998C10.498 11.452 10.952 10.998 11.498 10.998ZM14.529 10.998C15.076 10.998 15.529 11.452 15.529 11.998C15.529 12.544 15.076 12.998 14.529 12.998C13.983 12.998 13.529 12.544 13.529 11.998C13.529 11.452 13.983 10.998 14.529 10.998ZM11.498 13.998H14.498V14.998H11.498V13.998Z" fill="#818181"/>
</g>
<defs>
<clipPath id="clip0_2263_11115">
<rect width="26" height="26" fill="white"/>
</clipPath>
</defs>
</svg>
