<svg width="30" height="30" viewBox="0 0 30 30" fill="none" xmlns="http://www.w3.org/2000/svg">
<path d="M15 24.5399C16.7634 24.5417 18.4378 25.3396 20.1806 24.6983C21.5653 24.1883 22.6528 22.9499 22.8966 21.2802C23.115 19.7839 22.4803 18.3964 21.4069 17.2058C18.0319 13.4633 11.9681 13.4633 8.59312 17.2058C7.51968 18.3964 6.88593 19.783 7.10343 21.2802C7.34624 22.9499 8.43468 24.1892 9.81937 24.6983C11.5622 25.3396 13.2366 24.5427 15 24.5399Z" fill="#818181"/>
<path d="M11.4763 11.5491C12.9619 11.2601 13.8852 9.58089 13.5384 7.79849C13.1917 6.01609 11.7063 4.80544 10.2208 5.09442C8.73517 5.38341 7.81194 7.0626 8.15866 8.84499C8.50538 10.6274 9.99076 11.838 11.4763 11.5491Z" fill="#818181"/>
<path d="M4.82285 15.9326C6.11429 15.6814 6.91676 14.2211 6.61522 12.671C6.31368 11.1208 5.02231 10.0678 3.73087 10.3191C2.43943 10.5703 1.63696 12.0306 1.9385 13.5807C2.24004 15.1308 3.53141 16.1838 4.82285 15.9326Z" fill="#818181"/>
<path d="M21.8412 8.84524C22.1878 7.06282 21.2645 5.38368 19.7789 5.09478C18.2933 4.80587 16.808 6.0166 16.4613 7.79902C16.1147 9.58143 17.038 11.2606 18.5236 11.5495C20.0092 11.8384 21.4945 10.6277 21.8412 8.84524Z" fill="#818181"/>
<path d="M28.0615 13.5807C28.363 12.0306 27.5604 10.5703 26.269 10.3192C24.9775 10.068 23.6862 11.1211 23.3848 12.6712C23.0833 14.2214 23.8858 15.6816 25.1773 15.9328C26.4687 16.1839 27.7601 15.1309 28.0615 13.5807Z" fill="#818181"/>
</svg>
