<svg width="24" height="24" viewBox="0 0 24 24" fill="none" xmlns="http://www.w3.org/2000/svg">
<path d="M11.9998 19.6323C13.4105 19.6338 14.75 20.272 16.1443 19.759C17.252 19.351 18.122 18.3603 18.317 17.0245C18.4918 15.8275 17.984 14.7175 17.1253 13.765C14.4253 10.771 9.57425 10.771 6.87425 13.765C6.0155 14.7175 5.5085 15.8268 5.6825 17.0245C5.87675 18.3603 6.7475 19.3518 7.85525 19.759C9.2495 20.272 10.589 19.6345 11.9998 19.6323Z" fill="#818181"/>
<path d="M9.1808 9.23925C10.3693 9.00806 11.1079 7.66471 10.8305 6.23879C10.5531 4.81287 9.3648 3.84435 8.17633 4.07554C6.98786 4.30673 6.24927 5.65008 6.52665 7.076C6.80403 8.50191 7.99233 9.47044 9.1808 9.23925Z" fill="#818181"/>
<path d="M3.85803 12.7461C4.89118 12.5451 5.53316 11.3769 5.29193 10.1368C5.0507 8.89665 4.01761 8.05427 2.98445 8.25525C1.9513 8.45622 1.30933 9.62445 1.55056 10.8646C1.79179 12.1047 2.82488 12.947 3.85803 12.7461Z" fill="#818181"/>
<path d="M17.4725 7.07639C17.7498 5.65045 17.0111 4.30714 15.8226 4.07602C14.6342 3.84489 13.4459 4.81347 13.1686 6.23941C12.8913 7.66534 13.63 9.00865 14.8184 9.23978C16.0069 9.4709 17.1952 8.50232 17.4725 7.07639Z" fill="#818181"/>
<path d="M22.4491 10.865C22.6902 9.62486 22.0482 8.45666 21.015 8.25574C19.9819 8.05482 18.9488 8.89726 18.7077 10.1374C18.4665 11.3775 19.1085 12.5457 20.1417 12.7466C21.1749 12.9475 22.2079 12.1051 22.4491 10.865Z" fill="#818181"/>
</svg>
