<svg width="30" height="30" viewBox="0 0 30 30" fill="none" xmlns="http://www.w3.org/2000/svg">
<path d="M18.42 14.7661C16.182 14.2081 13.818 14.2081 11.586 14.7661C10.206 15.1141 9.23999 16.3441 9.23999 17.7661C9.23999 18.7261 9.67199 19.6141 10.428 20.2021C11.184 20.7961 12.15 21.0001 13.08 20.7661L14.532 20.4061C14.838 20.3281 15.162 20.3281 15.468 20.4061L16.914 20.7661C17.166 20.8261 17.418 20.8621 17.67 20.8621C18.354 20.8621 19.014 20.6341 19.566 20.2021C20.322 19.6141 20.754 18.7201 20.754 17.7661C20.76 16.3441 19.8 15.1141 18.42 14.7661ZM18.858 19.2901C18.384 19.6561 17.784 19.7881 17.202 19.6441L15.756 19.2841C15.264 19.1581 14.742 19.1581 14.256 19.2841L12.81 19.6441C12.228 19.7881 11.622 19.6621 11.154 19.2901C10.68 18.9241 10.41 18.3661 10.41 17.7661C10.41 16.8781 11.01 16.1101 11.874 15.8941C13.926 15.3841 16.098 15.3841 18.15 15.8941C19.014 16.1101 19.614 16.8781 19.614 17.7661C19.602 18.3661 19.326 18.9241 18.858 19.2901ZM11.694 12.2461C11.694 11.0341 10.71 10.0441 9.49199 10.0441C8.27399 10.0441 7.28999 11.0281 7.28999 12.2461C7.28999 13.4641 8.27399 14.4481 9.49199 14.4481C10.71 14.4481 11.694 13.4581 11.694 12.2461ZM8.45399 12.2461C8.45399 11.6761 8.92199 11.2081 9.49199 11.2081C10.062 11.2081 10.53 11.6761 10.53 12.2461C10.53 12.8161 10.062 13.2841 9.49199 13.2841C8.92199 13.2841 8.45399 12.8161 8.45399 12.2461ZM20.508 10.0441C19.296 10.0441 18.306 11.0281 18.306 12.2461C18.306 13.4641 19.296 14.4481 20.508 14.4481C21.72 14.4481 22.71 13.4641 22.71 12.2461C22.71 11.0281 21.72 10.0441 20.508 10.0441ZM20.508 13.2841C19.938 13.2841 19.47 12.8161 19.47 12.2461C19.47 11.6761 19.938 11.2081 20.508 11.2081C21.078 11.2081 21.546 11.6761 21.546 12.2461C21.546 12.8161 21.078 13.2841 20.508 13.2841ZM15 13.1521C16.392 13.1521 17.526 12.0181 17.526 10.6261C17.526 9.2341 16.392 8.1001 15 8.1001C13.608 8.1001 12.474 9.2341 12.474 10.6261C12.474 12.0181 13.608 13.1521 15 13.1521ZM15 9.2641C15.75 9.2641 16.362 9.8761 16.362 10.6261C16.362 11.3761 15.75 11.9881 15 11.9881C14.25 11.9881 13.638 11.3761 13.638 10.6261C13.638 9.8761 14.25 9.2641 15 9.2641Z" fill="#818181"/>
<path d="M25.308 3.77403L15.528 0.684027C15.186 0.576027 14.82 0.576027 14.478 0.684027L4.692 3.77403C3.834 4.04403 3.258 4.83003 3.258 5.73003V14.49C3.258 19.428 5.76 23.94 9.948 26.562L14.076 29.142C14.358 29.316 14.676 29.406 15 29.406C15.324 29.406 15.642 29.316 15.924 29.142L20.052 26.562C24.24 23.94 26.742 19.428 26.742 14.484V5.72403C26.742 4.83003 26.166 4.04403 25.308 3.77403ZM25.578 14.484C25.578 19.02 23.28 23.166 19.434 25.566L15.306 28.146C15.12 28.266 14.874 28.26 14.688 28.146L10.56 25.566C6.72 23.166 4.422 19.02 4.422 14.484V5.72403C4.422 5.33403 4.674 4.99203 5.04 4.87803L14.826 1.78803C14.88 1.77003 14.94 1.75803 15 1.75803C15.06 1.75803 15.12 1.76403 15.174 1.78803L24.96 4.87803C25.332 4.99803 25.578 5.33403 25.578 5.72403V14.484Z" fill="#818181"/>
</svg>
