<svg width="30" height="30" viewBox="0 0 30 30" fill="none" xmlns="http://www.w3.org/2000/svg">
<path d="M10.875 10.5C12.7359 10.5 14.25 8.8179 14.25 6.75C14.25 4.6821 12.7359 3 10.875 3C9.0141 3 7.5 4.6821 7.5 6.75C7.5 8.8179 9.0141 10.5 10.875 10.5ZM10.875 4.5C11.9088 4.5 12.75 5.5092 12.75 6.75C12.75 7.9908 11.9088 9 10.875 9C9.8412 9 9 7.9908 9 6.75C9 5.5092 9.8412 4.5 10.875 4.5ZM4.875 16.5C6.7359 16.5 8.25 14.8179 8.25 12.75C8.25 10.6821 6.7359 9 4.875 9C3.0141 9 1.5 10.6821 1.5 12.75C1.5 14.8179 3.0141 16.5 4.875 16.5ZM4.875 10.5C5.9088 10.5 6.75 11.5092 6.75 12.75C6.75 13.9908 5.9088 15 4.875 15C3.8412 15 3 13.9908 3 12.75C3 11.5092 3.8412 10.5 4.875 10.5ZM25.125 16.5C26.9859 16.5 28.5 14.8179 28.5 12.75C28.5 10.6821 26.9859 9 25.125 9C23.2641 9 21.75 10.6821 21.75 12.75C21.75 14.8179 23.2641 16.5 25.125 16.5ZM25.125 10.5C26.1588 10.5 27 11.5092 27 12.75C27 13.9908 26.1588 15 25.125 15C24.0912 15 23.25 13.9908 23.25 12.75C23.25 11.5092 24.0912 10.5 25.125 10.5ZM19.125 10.5C20.9859 10.5 22.5 8.8179 22.5 6.75C22.5 4.6821 20.9859 3 19.125 3C17.2641 3 15.75 4.6821 15.75 6.75C15.75 8.8179 17.2641 10.5 19.125 10.5ZM19.125 4.5C20.1588 4.5 21 5.5092 21 6.75C21 7.9908 20.1588 9 19.125 9C18.0912 9 17.25 7.9908 17.25 6.75C17.25 5.5092 18.0912 4.5 19.125 4.5ZM14.25 23.25H15.75V21H18V19.5H15.75V17.25H14.25V19.5H12V21H14.25V23.25Z" fill="#818181"/>
<path d="M11.5524 27H18.4476C21.5142 27 24 24.5142 24 21.4476C24 20.1867 23.571 18.9636 22.7832 17.979L19.6671 14.0838C19.1469 13.4336 18.4872 12.9087 17.7367 12.548C16.9862 12.1873 16.1642 12 15.3315 12H14.6688C13.8361 12 13.0141 12.1873 12.2636 12.548C11.5131 12.9087 10.8534 13.4336 10.3332 14.0838L7.2168 17.979C6.42912 18.9635 5.99999 20.1868 6 21.4476C6 24.5142 8.4858 27 11.5524 27ZM8.9736 19.3848L12.09 15.4893C12.3986 15.1017 12.7909 14.7889 13.2374 14.5743C13.684 14.3597 14.1733 14.2488 14.6688 14.25H15.3315C16.3401 14.25 17.28 14.7018 17.9103 15.4893L21.0264 19.3845C21.4941 19.9705 21.7492 20.6978 21.75 21.4476C21.75 23.2686 20.2686 24.75 18.4476 24.75H11.5524C9.7314 24.75 8.25 23.2686 8.25 21.4476C8.25 20.7006 8.5071 19.968 8.9736 19.3848Z" fill="#818181"/>
</svg>
