<svg width="30" height="30" viewBox="0 0 30 30" fill="none" xmlns="http://www.w3.org/2000/svg">
<path d="M16.3125 16.3125L28.125 16.3125C28.875 16.3125 29.4375 15.75 29.4375 15C29.4375 14.25 28.875 13.6875 28.125 13.6875L16.3125 13.6875L16.3125 1.875C16.3125 1.125 15.75 0.5625 15 0.5625C14.25 0.5625 13.6875 1.125 13.6875 1.875L13.6875 13.6875L1.875 13.6875C1.5 13.6875 1.21875 13.7812 0.9375 14.0625C0.375001 14.625 0.375 15.375 0.9375 15.9375C1.21875 16.2187 1.5 16.3125 1.875 16.3125L13.6875 16.3125L13.6875 28.125C13.6875 28.5 13.7812 28.7812 14.0625 29.0625C14.3437 29.3437 14.625 29.4375 15 29.4375C15.75 29.4375 16.3125 28.875 16.3125 28.125L16.3125 16.3125Z" fill="#818181"/>
</svg>
