<svg width="30" height="30" viewBox="0 0 30 30" fill="none" xmlns="http://www.w3.org/2000/svg">
<path fill-rule="evenodd" clip-rule="evenodd" d="M14.9587 5.625C11.8547 5.625 9.33374 8.14594 9.33374 11.25C9.33374 14.3541 11.8547 16.875 14.9587 16.875C18.0637 16.875 20.5837 14.3541 20.5837 11.25C20.5837 8.14594 18.0637 5.625 14.9587 5.625ZM14.9587 7.5C17.0287 7.5 18.7087 9.18 18.7087 11.25C18.7087 13.32 17.0287 15 14.9587 15C12.8897 15 11.2087 13.32 11.2087 11.25C11.2087 9.18 12.8897 7.5 14.9587 7.5Z" fill="#818181"/>
<path fill-rule="evenodd" clip-rule="evenodd" d="M15 1.875C7.75594 1.875 1.875 7.75594 1.875 15C1.875 22.2441 7.75594 28.125 15 28.125C22.2441 28.125 28.125 22.2441 28.125 15C28.125 7.75594 22.2441 1.875 15 1.875ZM22.8469 23.0588C21.1781 20.4675 18.2672 18.75 14.9588 18.75C11.6719 18.75 8.77781 20.4459 7.10344 23.01C9.135 25.0125 11.9241 26.25 15 26.25C18.0506 26.25 20.8191 25.0331 22.8469 23.0588ZM24.1153 21.5906C25.4587 19.7381 26.25 17.4609 26.25 15C26.25 8.79094 21.2091 3.75 15 3.75C8.79094 3.75 3.75 8.79094 3.75 15C3.75 17.4356 4.52625 19.6922 5.84344 21.5344C7.88812 18.7116 11.2106 16.875 14.9588 16.875C18.7322 16.875 22.0744 18.7369 24.1153 21.5906Z" fill="#818181"/>
</svg>
