<svg width="30" height="30" viewBox="0 0 30 30" fill="none" xmlns="http://www.w3.org/2000/svg">
<path d="M25.3125 5.625H20.625V2.8125C20.625 2.56386 20.5262 2.3254 20.3504 2.14959C20.1746 1.97377 19.9361 1.875 19.6875 1.875H10.3125C10.0639 1.875 9.8254 1.97377 9.64959 2.14959C9.47377 2.3254 9.375 2.56386 9.375 2.8125V5.625H4.6875V7.5H6.5625V25.3125C6.5625 26.0584 6.85882 26.7738 7.38626 27.3012C7.91371 27.8287 8.62908 28.125 9.375 28.125H20.625C21.3709 28.125 22.0863 27.8287 22.6137 27.3012C23.1412 26.7738 23.4375 26.0584 23.4375 25.3125V7.5H25.3125V5.625ZM11.25 3.75H18.75V5.625H11.25V3.75ZM21.5625 25.3125C21.5625 25.5611 21.4637 25.7996 21.2879 25.9754C21.1121 26.1512 20.8736 26.25 20.625 26.25H9.375C9.12636 26.25 8.8879 26.1512 8.71209 25.9754C8.53627 25.7996 8.4375 25.5611 8.4375 25.3125V7.5H21.5625V25.3125ZM12.1875 13.125H14.0625V20.625H12.1875V13.125ZM15.9375 13.125H17.8125V20.625H15.9375V13.125Z" fill="#818181"/>
</svg>
