<svg width="30" height="30" viewBox="0 0 30 30" fill="none" xmlns="http://www.w3.org/2000/svg">
<path d="M9.84375 15.0002C9.78206 15.0005 9.7209 14.9887 9.66379 14.9654C9.60668 14.942 9.55474 14.9077 9.51094 14.8642L7.84219 13.1955L6.7125 13.5705C6.64188 13.5943 6.5666 13.601 6.49289 13.5899C6.41918 13.5789 6.34918 13.5504 6.28868 13.5068C6.22819 13.4633 6.17894 13.406 6.14504 13.3396C6.11114 13.2732 6.09356 13.1997 6.09375 13.1252V9.84391C6.09403 9.74948 6.12282 9.65734 6.17635 9.57955C6.22988 9.50177 6.30565 9.44196 6.39375 9.40797L16.2375 5.65797C16.3537 5.61384 16.4827 5.61769 16.5962 5.66867C16.7096 5.71966 16.7981 5.8136 16.8422 5.92984C16.8863 6.04608 16.8825 6.17509 16.8315 6.28849C16.7805 6.4019 16.6866 6.4904 16.5703 6.53453L7.03125 10.1673V12.4736L7.81875 12.2111C7.89975 12.1856 7.98614 12.1827 8.06869 12.2025C8.15125 12.2223 8.22688 12.2641 8.2875 12.3236L9.375 13.4017V11.2502C9.37453 11.1568 9.40194 11.0655 9.45372 10.9878C9.5055 10.9101 9.57928 10.8497 9.66563 10.8142L19.5094 6.78766C19.6244 6.74041 19.7534 6.74079 19.8681 6.7887C19.9829 6.83661 20.0739 6.92813 20.1211 7.04312C20.1683 7.15812 20.168 7.28717 20.1201 7.40189C20.0721 7.51661 19.9806 7.6076 19.8656 7.65484L10.3125 11.5642V14.5314C10.3125 14.6557 10.2631 14.775 10.1752 14.8629C10.0873 14.9508 9.96807 15.0002 9.84375 15.0002Z" fill="#818181"/>
<path d="M13.125 26.7188C13.0706 26.7187 13.0167 26.7092 12.9656 26.6906L2.65312 22.9406C2.56253 22.9079 2.48423 22.848 2.42887 22.7692C2.37351 22.6903 2.34379 22.5963 2.34375 22.5V8.4375C2.34375 8.31318 2.39314 8.19395 2.48104 8.10604C2.56895 8.01814 2.68818 7.96875 2.8125 7.96875C2.93682 7.96875 3.05605 8.01814 3.14396 8.10604C3.23186 8.19395 3.28125 8.31318 3.28125 8.4375V22.1719L12.6562 25.5797V12.1875C12.6562 12.0632 12.7056 11.944 12.7935 11.856C12.8815 11.7681 13.0007 11.7188 13.125 11.7188C13.2493 11.7188 13.3685 11.7681 13.4565 11.856C13.5444 11.944 13.5938 12.0632 13.5938 12.1875V26.25C13.5938 26.3743 13.5444 26.4935 13.4565 26.5815C13.3685 26.6694 13.2493 26.7188 13.125 26.7188ZM23.4375 12.1875C23.3132 12.1875 23.194 12.1381 23.106 12.0502C23.0181 11.9623 22.9688 11.8431 22.9688 11.7188V8.4375C22.9688 8.31318 23.0181 8.19395 23.106 8.10604C23.194 8.01814 23.3132 7.96875 23.4375 7.96875C23.5618 7.96875 23.681 8.01814 23.769 8.10604C23.8569 8.19395 23.9062 8.31318 23.9062 8.4375V11.7188C23.9062 11.8431 23.8569 11.9623 23.769 12.0502C23.681 12.1381 23.5618 12.1875 23.4375 12.1875Z" fill="#818181"/>
<path d="M13.125 26.7185C13.0148 26.7184 12.9082 26.6795 12.8238 26.6086C12.7395 26.5376 12.6829 26.4393 12.6638 26.3307C12.6448 26.2222 12.6646 26.1104 12.7198 26.015C12.775 25.9197 12.862 25.8468 12.9656 25.8092L22.9687 22.1717V21.0935C22.9687 20.9692 23.0181 20.85 23.106 20.7621C23.1939 20.6742 23.3132 20.6248 23.4375 20.6248C23.5618 20.6248 23.681 20.6742 23.769 20.7621C23.8569 20.85 23.9062 20.9692 23.9062 21.0935V22.4998C23.9062 22.5961 23.8765 22.6901 23.8211 22.769C23.7658 22.8478 23.6875 22.9077 23.5969 22.9404L13.2844 26.6904C13.2333 26.709 13.1794 26.7185 13.125 26.7185ZM13.125 12.6561C13.0706 12.656 13.0167 12.6465 12.9656 12.6279L2.65312 8.87793C2.56263 8.84508 2.48445 8.78517 2.42919 8.70634C2.37394 8.6275 2.3443 8.53357 2.3443 8.4373C2.3443 8.34103 2.37394 8.2471 2.42919 8.16826C2.48445 8.08943 2.56263 8.02952 2.65312 7.99668L12.9656 4.24668C13.0686 4.20944 13.1814 4.20944 13.2844 4.24668L23.5969 7.99668C23.6874 8.02952 23.7656 8.08943 23.8208 8.16826C23.8761 8.2471 23.9057 8.34103 23.9057 8.4373C23.9057 8.53357 23.8761 8.6275 23.8208 8.70634C23.7656 8.78517 23.6874 8.84508 23.5969 8.87793L13.2844 12.6279C13.2333 12.6465 13.1794 12.656 13.125 12.6561ZM4.18594 8.4373L13.125 11.6904L22.0641 8.4373L13.125 5.18418L4.18594 8.4373ZM15.4687 23.2264C15.3586 23.2262 15.2519 23.1873 15.1676 23.1164C15.0833 23.0454 15.0266 22.9471 15.0076 22.8385C14.9886 22.73 15.0084 22.6182 15.0636 22.5228C15.1188 22.4275 15.2058 22.3546 15.3094 22.317L17.1844 21.6373C17.2915 21.6203 17.4012 21.6409 17.4948 21.6957C17.5884 21.7504 17.6601 21.836 17.6977 21.9377C17.7353 22.0395 17.7365 22.1511 17.701 22.2536C17.6655 22.3561 17.5956 22.4431 17.5031 22.4998L15.6281 23.1795C15.5782 23.2045 15.5242 23.2204 15.4687 23.2264ZM15.4687 21.3514C15.3586 21.3512 15.2519 21.3123 15.1676 21.2414C15.0833 21.1704 15.0266 21.0721 15.0076 20.9635C14.9886 20.855 15.0084 20.7432 15.0636 20.6478C15.1188 20.5525 15.2058 20.4796 15.3094 20.442L16.2469 20.0998C16.3628 20.0616 16.489 20.07 16.5987 20.1234C16.7085 20.1767 16.7931 20.2707 16.8346 20.3855C16.8761 20.5002 16.8712 20.6267 16.821 20.7379C16.7708 20.8491 16.6792 20.9363 16.5656 20.981L15.6281 21.3232C15.577 21.3418 15.5231 21.3513 15.4687 21.3514Z" fill="#818181"/>
<path d="M22.7344 21.0938C21.8992 21.0934 21.0779 20.8805 20.3478 20.4752C19.6176 20.0699 19.0026 19.4854 18.5606 18.7769C18.1186 18.0683 17.8641 17.2589 17.8212 16.4249C17.7782 15.5909 17.9482 14.7596 18.3152 14.0094C18.6821 13.2592 19.2338 12.6147 19.9185 12.1366C20.6032 11.6584 21.3983 11.3624 22.229 11.2762C23.0597 11.1901 23.8986 11.3168 24.6668 11.6443C25.4351 11.9718 26.1073 12.4895 26.6203 13.1484C26.6968 13.2467 26.7311 13.3712 26.7157 13.4947C26.7003 13.6182 26.6365 13.7306 26.5383 13.807C26.4401 13.8835 26.3155 13.9178 26.192 13.9024C26.0685 13.887 25.9561 13.8232 25.8797 13.725C25.4125 13.1266 24.7841 12.6741 24.0684 12.4208C23.3528 12.1675 22.5796 12.124 21.84 12.2953C21.1004 12.4666 20.4252 12.8456 19.8937 13.3878C19.3623 13.9299 18.9968 14.6126 18.8403 15.3554C18.6838 16.0983 18.7427 16.8704 19.0103 17.5809C19.2778 18.2914 19.7427 18.9106 20.3503 19.3658C20.9579 19.8209 21.6829 20.093 22.4399 20.15C23.197 20.207 23.9545 20.0465 24.6234 19.6875C24.7328 19.6284 24.8612 19.6153 24.9803 19.6509C25.0994 19.6865 25.1995 19.7679 25.2586 19.8773C25.3176 19.9867 25.3308 20.1151 25.2952 20.2342C25.2596 20.3534 25.1782 20.4534 25.0688 20.5125C24.3505 20.8958 23.5485 21.0955 22.7344 21.0938Z" fill="#818181"/>
<path d="M26.25 14.0625H24.375C24.2507 14.0625 24.1315 14.0131 24.0435 13.9252C23.9556 13.8373 23.9062 13.7181 23.9062 13.5938C23.9062 13.4694 23.9556 13.3502 24.0435 13.2623C24.1315 13.1744 24.2507 13.125 24.375 13.125H25.7812V11.7188C25.7812 11.5944 25.8306 11.4752 25.9185 11.3873C26.0065 11.2994 26.1257 11.25 26.25 11.25C26.3743 11.25 26.4935 11.2994 26.5815 11.3873C26.6694 11.4752 26.7188 11.5944 26.7188 11.7188V13.5938C26.7188 13.7181 26.6694 13.8373 26.5815 13.9252C26.4935 14.0131 26.3743 14.0625 26.25 14.0625Z" fill="#818181"/>
</svg>
