<svg width="68" height="19" viewBox="0 0 68 19" fill="none" xmlns="http://www.w3.org/2000/svg">
<mask id="mask0_2210_11772" style="mask-type:luminance" maskUnits="userSpaceOnUse" x="0" y="1" width="57" height="18">
<path fill-rule="evenodd" clip-rule="evenodd" d="M0.306152 1.63672H56.0984V18.2795H0.306152V1.63672Z" fill="white"/>
</mask>
<g mask="url(#mask0_2210_11772)">
<path fill-rule="evenodd" clip-rule="evenodd" d="M44.681 9.85298C45.1353 8.30549 45.7097 6.84026 45.2474 6.02819C44.5394 4.78519 43.2597 4.67607 41.3875 4.67607C39.3191 4.67607 36.7655 5.06892 35.9332 7.81948H39.3766C39.3766 7.81948 39.6904 6.78356 40.9829 6.84877C42.1269 6.90653 42.0643 7.69358 41.6427 8.12876C40.9033 8.89132 38.8613 8.46839 36.5997 9.25305C34.6237 9.93868 33.9322 12.537 34.3615 13.574C34.7775 14.5796 35.5523 14.7076 36.5976 14.8103C38.2763 14.9753 39.5634 14.0392 40.1626 13.4899C40.1626 14.0999 40.1786 14.4406 40.1786 14.4406H43.8021L43.7933 14.0997C43.7933 14.0997 43.4705 14.0139 43.5064 13.5604C43.5325 13.2282 44.1585 11.6302 44.6807 9.85298H44.681ZM39.4708 12.5455C38.8799 12.6954 38.1634 12.7768 38.0213 12.24C37.6311 10.7688 41.0753 10.3382 41.0753 10.3382C41.0987 11.6786 39.9241 12.43 39.4706 12.5455H39.4708ZM36.2915 5.01117C36.5922 2.63057 34.7778 1.63672 32.5127 1.63672H26.5615L23.0487 14.4406H26.8303L27.8937 10.4931L30.9067 10.5115C30.9067 10.5115 35.5726 10.709 36.2917 5.01117H36.2915ZM32.4031 6.28236C31.9109 7.65525 30.5548 7.49342 30.5548 7.49342L28.7034 7.49395L29.4342 4.77374C29.4342 4.77374 30.6062 4.77987 31.3802 4.77987C32.3277 4.77987 32.6716 5.53258 32.4031 6.2821V6.28236ZM14.6879 5.13839H18.1371L16.7166 10.6036C16.7166 10.6036 16.3623 11.8223 17.5023 11.9163C18.403 11.9908 19.0732 10.916 19.2928 10.1881C19.5813 9.23201 20.7024 5.13813 20.7024 5.13813H24.256L21.552 14.4406H18.4493L18.8305 13.1116C18.8305 13.1116 17.2476 15.0419 14.8957 14.8103C12.8053 14.6051 12.6251 13.0888 12.9873 11.1971C13.1651 10.2685 14.6879 5.13839 14.6879 5.13839ZM13.8298 4.61831C14.1303 2.23799 12.0355 1.63699 9.77073 1.63699H3.81927L0.306152 14.4409H4.08783L5.26854 10.0936L7.38989 10.1109C7.38989 10.1109 8.2653 10.0601 8.2826 10.8822C8.30097 11.7593 7.63263 13.3696 7.67574 14.4409H11.5607L11.5522 14.0999C11.5522 14.0999 11.2293 14.0142 11.2653 13.5607C11.2802 13.372 11.4886 12.7747 11.7614 11.9693C11.9259 11.6142 12.1739 10.7718 12.1511 10.0859C12.1226 9.22962 11.5852 8.83223 10.8104 8.55436C13.2256 7.98796 13.8292 4.61857 13.8295 4.61857L13.8298 4.61831ZM9.81784 6.25309C9.3289 7.3859 7.81281 7.25707 7.81281 7.25707L6.04761 7.24882L6.69199 4.84987C6.69199 4.84987 8.27115 4.85572 9.04569 4.85572C9.87481 4.85572 10.1338 5.52168 9.81811 6.25282L9.81784 6.25309ZM46.3222 5.13839H49.8353V10.7199L52.8744 5.13839H56.0984L49.5981 16.4225C49.5981 16.4225 48.9948 17.369 48.2463 17.8696C47.6315 18.2814 46.8753 18.2628 46.6442 18.2795C45.3603 18.2683 43.8114 18.2649 43.8114 18.2649L44.5586 15.575L45.7675 15.5729C45.7675 15.5729 46.3208 15.5165 46.5346 15.2436C46.7382 14.9836 46.8423 14.7235 46.8423 14.3421C46.8423 13.7704 46.3222 5.13813 46.3222 5.13813V5.13839Z" fill="#382A8D"/>
</g>
<path fill-rule="evenodd" clip-rule="evenodd" d="M60.6054 2.98828L56.5493 17.098L64.1414 10.043L60.6054 2.98828Z" fill="#1D8546"/>
<path fill-rule="evenodd" clip-rule="evenodd" d="M58.0053 2.98828L53.9492 17.098L61.5416 10.043L58.0053 2.98828Z" fill="#EC6B00"/>
<path fill-rule="evenodd" clip-rule="evenodd" d="M65.5573 3.36204C64.7096 3.36204 64.0205 2.67266 64.0205 1.82519C64.0205 0.977729 64.7099 0.288086 65.5573 0.288086C66.4046 0.288086 67.0942 0.977729 67.0942 1.82519C67.0942 2.6724 66.4046 3.36204 65.5573 3.36204ZM64.8116 2.39905V1.43792H64.4528V1.30936H65.3165V1.43792H64.9561V2.39905H64.8116ZM65.5358 2.39905V1.3091H65.7532L66.0109 2.08071C66.0348 2.15258 66.0519 2.20634 66.0633 2.24201C66.0756 2.20235 66.0947 2.14407 66.1213 2.06714L66.3822 1.3091H66.576V2.39905H66.437V1.48663L66.1203 2.39905H65.9904L65.675 1.47119V2.39905H65.5358ZM65.5573 0.427028C64.7865 0.427028 64.1589 1.05437 64.1589 1.82546C64.1589 2.59628 64.7863 3.22362 65.5573 3.22362C66.3282 3.22362 66.9555 2.59628 66.9555 1.82546C66.9555 1.05411 66.3282 0.427028 65.5573 0.427028Z" fill="black"/>
</svg>
