<svg width="30" height="30" viewBox="0 0 30 30" fill="none" xmlns="http://www.w3.org/2000/svg">
<path d="M24.5375 4.5624C24.3923 4.44492 24.2226 4.36149 24.0409 4.31823C23.8592 4.27496 23.6701 4.27297 23.4875 4.3124C22.1518 4.59233 20.7729 4.59589 19.4358 4.32288C18.0987 4.04986 16.8316 3.50604 15.7125 2.7249C15.5033 2.57974 15.2547 2.50195 15 2.50195C14.7453 2.50195 14.4968 2.57974 14.2875 2.7249C13.1685 3.50604 11.9014 4.04986 10.5642 4.32288C9.22708 4.59589 7.84821 4.59233 6.51251 4.3124C6.32993 4.27297 6.14084 4.27496 5.95913 4.31823C5.77743 4.36149 5.60773 4.44492 5.46251 4.5624C5.31748 4.68005 5.20066 4.82869 5.12062 4.99742C5.04059 5.16614 4.99937 5.35065 5.00001 5.5374V14.8499C4.9989 16.6421 5.42597 18.4086 6.24568 20.0023C7.06538 21.5961 8.25398 22.9709 9.71251 24.0124L14.275 27.2624C14.4867 27.4131 14.7401 27.4941 15 27.4941C15.2599 27.4941 15.5133 27.4131 15.725 27.2624L20.2875 24.0124C21.746 22.9709 22.9346 21.5961 23.7543 20.0023C24.574 18.4086 25.0011 16.6421 25 14.8499V5.5374C25.0006 5.35065 24.9594 5.16614 24.8794 4.99742C24.7994 4.82869 24.6825 4.68005 24.5375 4.5624ZM22.5 14.8499C22.501 16.2433 22.1691 17.6169 21.5321 18.8562C20.895 20.0955 19.9712 21.1647 18.8375 21.9749L15 24.7124L11.1625 21.9749C10.0288 21.1647 9.10499 20.0955 8.46794 18.8562C7.8309 17.6169 7.49905 16.2433 7.50001 14.8499V6.9749C10.1205 7.19919 12.7451 6.59118 15 5.2374C17.255 6.59118 19.8795 7.19919 22.5 6.9749V14.8499ZM16.925 11.9874L13.5625 15.3624L12.45 14.2374C12.2146 14.002 11.8954 13.8698 11.5625 13.8698C11.2296 13.8698 10.9104 14.002 10.675 14.2374C10.4396 14.4728 10.3074 14.792 10.3074 15.1249C10.3074 15.4578 10.4396 15.777 10.675 16.0124L12.675 18.0124C12.7912 18.1296 12.9295 18.2226 13.0818 18.286C13.2341 18.3495 13.3975 18.3821 13.5625 18.3821C13.7275 18.3821 13.8909 18.3495 14.0432 18.286C14.1956 18.2226 14.3338 18.1296 14.45 18.0124L18.75 13.7499C18.9854 13.5145 19.1176 13.1953 19.1176 12.8624C19.1176 12.5295 18.9854 12.2103 18.75 11.9749C18.5146 11.7395 18.1954 11.6073 17.8625 11.6073C17.5296 11.6073 17.2104 11.7395 16.975 11.9749L16.925 11.9874Z" fill="#349B0B"/>
</svg>
