<svg width="30" height="30" viewBox="0 0 30 30" fill="none" xmlns="http://www.w3.org/2000/svg">
<path d="M26.1094 3.89062C25.8281 3.75 25.5469 3.75 25.2656 3.75L4.17188 12.1875C3.89063 12.3281 3.75 12.6094 3.75 12.8906C3.75 13.1719 3.89063 13.4531 4.17188 13.5938L10.7812 16.8281V21.3281C10.7812 21.6094 10.9219 21.75 11.0625 21.8906C11.2031 22.0312 11.3438 22.0312 11.4844 22.0312C11.625 22.0312 11.7656 22.0312 11.7656 21.8906L14.0156 20.7656L16.5469 25.8281C16.5469 26.1094 16.8281 26.25 17.1094 26.25C17.3906 26.25 17.6719 26.1094 17.6719 25.8281L20.4844 18.7969C20.625 18.375 20.4844 18.0938 20.0625 17.9531C19.6406 17.8125 19.3594 17.9531 19.2188 18.375L16.9687 24L13.7344 17.25L23.5781 7.40625L20.2031 15.8438C20.0625 16.2656 20.2031 16.5469 20.625 16.6875C21.0469 16.8281 21.3281 16.6875 21.4688 16.2656L26.25 4.73438C26.25 4.45312 26.25 4.17188 26.1094 3.89062ZM22.5938 6.42188L12.75 16.2656L6.14062 13.0312L22.5938 6.42188ZM12.1875 20.2031V17.5312L12.3281 17.6719L13.3125 19.6406L12.1875 20.2031Z" fill="#818181"/>
</svg>
