<svg width="24" height="24" viewBox="0 0 24 24" fill="none" xmlns="http://www.w3.org/2000/svg">
<g clip-path="url(#clip0_2156_2128)">
<path d="M19.3458 15.067C18.0823 15.067 16.9486 15.6206 16.1646 16.4943L8.84271 12.8394C8.89805 12.5641 8.93261 12.2835 8.93261 12C8.93261 11.7157 8.8981 11.4347 8.84326 11.1603L16.1646 7.50573C16.9486 8.37937 18.0823 8.93299 19.3458 8.93299C21.7053 8.93299 23.625 7.01369 23.625 4.65419C23.625 2.29469 21.7053 0.375 19.3458 0.375C16.9863 0.375 15.067 2.29468 15.067 4.65418C15.067 4.94362 15.0966 5.2262 15.1516 5.49967L7.83833 9.15029C7.03989 8.25815 5.88184 7.71753 4.65746 7.71753C2.29614 7.71753 0.375 9.63867 0.375 12C0.375 14.3613 2.29614 16.2825 4.65747 16.2825C5.88542 16.2825 7.04622 15.7384 7.8403 14.8507L15.1516 18.5003C15.0966 18.7738 15.067 19.0564 15.067 19.3458C15.067 21.7053 16.9863 23.625 19.3458 23.625C21.7053 23.625 23.625 21.7053 23.625 19.3458C23.625 16.9863 21.7053 15.067 19.3458 15.067ZM19.3458 2.625C20.4646 2.625 21.375 3.5354 21.375 4.65418C21.375 5.77295 20.4646 6.68299 19.3458 6.68299C18.227 6.68299 17.317 5.77295 17.317 4.65418C17.317 3.5354 18.227 2.625 19.3458 2.625ZM4.65747 14.0325C3.53686 14.0325 2.625 13.1206 2.625 12C2.625 10.8794 3.53686 9.96753 4.65747 9.96753C5.41772 9.96753 6.12561 10.407 6.47095 11.1075C6.61157 11.3785 6.68262 11.6788 6.68262 12C6.68262 12.3212 6.61157 12.6215 6.46069 12.913C6.12561 13.593 5.41772 14.0325 4.65747 14.0325ZM19.3458 21.375C18.227 21.375 17.317 20.4646 17.317 19.3458C17.317 18.227 18.227 17.317 19.3458 17.317C20.4646 17.317 21.375 18.227 21.375 19.3458C21.375 20.4646 20.4646 21.375 19.3458 21.375Z" fill="#818181"/>
</g>
<defs>
<clipPath id="clip0_2156_2128">
<rect width="24" height="24" fill="white"/>
</clipPath>
</defs>
</svg>
