<svg width="38" height="34" viewBox="0 0 38 34" fill="none" xmlns="http://www.w3.org/2000/svg">
<rect width="38" height="34" rx="8" fill="#008FD5" fill-opacity="0.05"/>
<g clip-path="url(#clip0_2169_7345)">
<path d="M24.5094 19.3003C23.5617 19.3003 22.7114 19.7155 22.1235 20.3707L16.632 17.6295C16.6735 17.4231 16.6995 17.2127 16.6995 17C16.6995 16.7868 16.6736 16.576 16.6324 16.3702L22.1235 13.6293C22.7114 14.2845 23.5617 14.6997 24.5094 14.6997C26.279 14.6997 27.7188 13.2603 27.7188 11.4906C27.7188 9.72101 26.279 8.28125 24.5094 8.28125C22.7397 8.28125 21.3003 9.72101 21.3003 11.4906C21.3003 11.7077 21.3225 11.9197 21.3637 12.1248L15.8787 14.8627C15.2799 14.1936 14.4114 13.7881 13.4931 13.7881C11.7221 13.7881 10.2812 15.229 10.2812 17C10.2812 18.771 11.7221 20.2119 13.4931 20.2119C14.4141 20.2119 15.2847 19.8038 15.8802 19.138L21.3637 21.8752C21.3225 22.0803 21.3003 22.2923 21.3003 22.5094C21.3003 24.279 22.7397 25.7188 24.5094 25.7188C26.279 25.7188 27.7188 24.279 27.7188 22.5094C27.7188 20.7397 26.279 19.3003 24.5094 19.3003ZM24.5094 9.96875C25.3484 9.96875 26.0312 10.6516 26.0312 11.4906C26.0312 12.3297 25.3484 13.0122 24.5094 13.0122C23.6703 13.0122 22.9878 12.3297 22.9878 11.4906C22.9878 10.6516 23.6703 9.96875 24.5094 9.96875ZM13.4931 18.5244C12.6526 18.5244 11.9688 17.8405 11.9688 17C11.9688 16.1595 12.6526 15.4756 13.4931 15.4756C14.0633 15.4756 14.5942 15.8052 14.8532 16.3307C14.9587 16.5339 15.012 16.7591 15.012 17C15.012 17.2409 14.9587 17.4661 14.8455 17.6847C14.5942 18.1948 14.0633 18.5244 13.4931 18.5244ZM24.5094 24.0312C23.6703 24.0312 22.9878 23.3484 22.9878 22.5094C22.9878 21.6703 23.6703 20.9878 24.5094 20.9878C25.3484 20.9878 26.0312 21.6703 26.0312 22.5094C26.0312 23.3484 25.3484 24.0312 24.5094 24.0312Z" fill="#008FD5"/>
</g>
<defs>
<clipPath id="clip0_2169_7345">
<rect width="18" height="18" fill="white" transform="translate(10 8)"/>
</clipPath>
</defs>
</svg>
