<svg width="30" height="30" viewBox="0 0 30 30" fill="none" xmlns="http://www.w3.org/2000/svg">
<path d="M25.4025 14.6565C25.402 13.8788 25.3124 13.1038 25.1355 12.3465L25.1295 12.3225C24.5825 10.0558 23.2873 8.03984 21.453 6.60026C19.6188 5.16068 17.3527 4.38162 15.021 4.38898L15.009 4.38748H14.9805C12.646 4.37045 10.3747 5.14606 8.53825 6.58746C6.70175 8.02886 5.40868 10.0508 4.87051 12.3225L4.86452 12.3465C4.43799 14.1883 4.52621 16.1119 5.11952 17.907C5.21047 18.1848 5.35715 18.4412 5.55058 18.6605C5.74402 18.8797 5.98014 19.0571 6.24452 19.182C6.5484 19.3295 6.88171 19.4064 7.21952 19.407C7.46265 19.4069 7.7042 19.3679 7.93501 19.2915L8.82152 18.9855C9.30458 18.8268 9.71809 18.5063 9.9922 18.0781C10.2663 17.6498 10.3842 17.1401 10.326 16.635L10.002 13.875C9.93489 13.3636 9.69467 12.8906 9.32133 12.5347C8.94799 12.1788 8.46404 11.9615 7.95002 11.919L6.57301 11.823C7.1718 10.0947 8.2928 8.59526 9.78099 7.53192C11.2692 6.46859 13.051 5.89395 14.88 5.88748H15.009C16.8601 5.85763 18.6729 6.41634 20.1861 7.48307C21.6993 8.5498 22.8346 10.0695 23.4285 11.823L22.041 11.9205C21.5272 11.965 21.0441 12.1841 20.6722 12.5413C20.3002 12.8986 20.0618 13.3724 19.9965 13.884L19.674 16.644C19.617 17.1468 19.7346 17.6539 20.0072 18.0803C20.2798 18.5066 20.6907 18.8262 21.171 18.9855L22.0755 19.2975C22.213 19.3334 22.3537 19.356 22.4955 19.365C21.8107 20.4457 20.8961 21.3622 19.8168 22.0492C18.7375 22.7362 17.52 23.177 16.251 23.34C16.1227 23.1582 15.9533 23.0093 15.7564 22.9055C15.5596 22.8018 15.341 22.7461 15.1185 22.743C14.8624 22.7394 14.61 22.8044 14.3875 22.9312C14.165 23.0581 13.9805 23.2421 13.8531 23.4643C13.7257 23.6865 13.6601 23.9387 13.663 24.1948C13.666 24.4509 13.7374 24.7016 13.8698 24.9208C14.0023 25.14 14.191 25.3198 14.4164 25.4415C14.6417 25.5632 14.8956 25.6223 15.1515 25.6129C15.4074 25.6034 15.6562 25.5256 15.8719 25.3876C16.0877 25.2496 16.2626 25.0564 16.3785 24.828C18.2715 24.5998 20.0627 23.8459 21.5492 22.6518C23.0357 21.4578 24.158 19.8712 24.789 18.072C24.813 18.0165 24.8595 17.9745 24.879 17.916C25.2303 16.8659 25.4072 15.7653 25.4025 14.658V14.6565ZM7.83452 13.4115C8.00427 13.4256 8.16411 13.4973 8.28766 13.6145C8.4112 13.7318 8.49105 13.8877 8.51402 14.0565L8.83501 16.8015C8.85338 16.9665 8.81413 17.1328 8.72392 17.2722C8.63371 17.4117 8.49809 17.5156 8.34001 17.5665L7.45802 17.8695C7.27208 17.9291 7.07041 17.9157 6.89402 17.832C6.81118 17.7934 6.73715 17.7382 6.67651 17.6698C6.61588 17.6014 6.56993 17.5213 6.54152 17.4345C6.10277 16.1022 5.98759 14.6846 6.20552 13.299L7.83452 13.4115ZM23.1045 17.832C22.9325 17.9154 22.7352 17.9304 22.5525 17.874L21.6525 17.5635C21.497 17.5126 21.3637 17.4099 21.2747 17.2726C21.1857 17.1353 21.1465 16.9717 21.1635 16.809L21.486 14.0625C21.5074 13.8942 21.5855 13.7381 21.7073 13.6201C21.8292 13.5021 21.9876 13.429 22.1565 13.413L23.7945 13.299C24.0075 14.6452 23.9017 16.0226 23.4855 17.3205C23.481 17.331 23.472 17.3385 23.469 17.3505C23.442 17.433 23.4 17.5065 23.37 17.5905C23.3054 17.6929 23.2141 17.7759 23.106 17.8305L23.1045 17.832ZM15 10.7385C14.8043 10.7397 14.6159 10.6643 14.475 10.5285C14.4037 10.4578 14.3471 10.3737 14.3085 10.281C14.2699 10.1883 14.25 10.0889 14.25 9.98848C14.248 9.89015 14.2685 9.79266 14.31 9.70348C14.3452 9.61151 14.4017 9.52923 14.475 9.46348C14.617 9.32952 14.8048 9.2549 15 9.2549C15.1952 9.2549 15.383 9.32952 15.525 9.46348C15.5972 9.53033 15.6546 9.61162 15.6933 9.70206C15.7321 9.79251 15.7514 9.89009 15.75 9.98848C15.7499 10.0889 15.73 10.1883 15.6914 10.2809C15.6528 10.3736 15.5962 10.4577 15.525 10.5285C15.3841 10.6643 15.1957 10.7397 15 10.7385ZM12.525 9.46348C12.5972 9.53033 12.6546 9.61162 12.6933 9.70206C12.7321 9.79251 12.7514 9.89009 12.75 9.98848C12.7499 10.0889 12.73 10.1883 12.6914 10.2809C12.6528 10.3736 12.5962 10.4577 12.525 10.5285C12.3841 10.6643 12.1957 10.7397 12 10.7385C11.9015 10.7422 11.8036 10.7216 11.715 10.6785C11.625 10.6466 11.5431 10.5954 11.475 10.5285C11.4037 10.4578 11.3471 10.3737 11.3085 10.281C11.2699 10.1883 11.25 10.0889 11.25 9.98848C11.2486 9.89009 11.2679 9.79251 11.3067 9.70206C11.3455 9.61162 11.4028 9.53033 11.475 9.46348C11.617 9.32952 11.8048 9.2549 12 9.2549C12.1952 9.2549 12.383 9.32952 12.525 9.46348ZM17.475 10.5285C17.3982 10.4598 17.3412 10.3717 17.31 10.2735C17.2669 10.1849 17.2463 10.087 17.25 9.98848C17.2486 9.89009 17.2679 9.79251 17.3067 9.70206C17.3455 9.61162 17.4028 9.53033 17.475 9.46348C17.6152 9.32606 17.8037 9.24909 18 9.24909C18.1963 9.24909 18.3848 9.32606 18.525 9.46348C18.5972 9.53033 18.6546 9.61162 18.6933 9.70206C18.7321 9.79251 18.7514 9.89009 18.75 9.98848C18.7534 10.0869 18.7328 10.1847 18.69 10.2735C18.6588 10.3717 18.6018 10.4597 18.525 10.5285C18.3834 10.6631 18.1954 10.7382 18 10.7382C17.8046 10.7382 17.6166 10.6631 17.475 10.5285Z" fill="#818181"/>
</svg>
