<svg width="30" height="30" viewBox="0 0 30 30" fill="none" xmlns="http://www.w3.org/2000/svg">
<path fill-rule="evenodd" clip-rule="evenodd" d="M8.90625 14.0625C9.68287 14.0625 10.3125 13.4329 10.3125 12.6562C10.3125 11.8796 9.68287 11.25 8.90625 11.25C8.1296 11.25 7.5 11.8796 7.5 12.6562C7.5 13.4329 8.1296 14.0625 8.90625 14.0625ZM8.90625 13.125C9.16513 13.125 9.375 12.9151 9.375 12.6562C9.375 12.3974 9.16513 12.1875 8.90625 12.1875C8.64737 12.1875 8.4375 12.3974 8.4375 12.6562C8.4375 12.9151 8.64737 13.125 8.90625 13.125ZM10.3125 18.2812C10.3125 19.0579 9.68287 19.6875 8.90625 19.6875C8.1296 19.6875 7.5 19.0579 7.5 18.2812C7.5 17.5046 8.1296 16.875 8.90625 16.875C9.68287 16.875 10.3125 17.5046 10.3125 18.2812ZM9.375 18.2812C9.375 18.5401 9.16513 18.75 8.90625 18.75C8.64737 18.75 8.4375 18.5401 8.4375 18.2812C8.4375 18.0224 8.64737 17.8125 8.90625 17.8125C9.16513 17.8125 9.375 18.0224 9.375 18.2812ZM8.90625 25.3125C9.68287 25.3125 10.3125 24.6829 10.3125 23.9062C10.3125 23.1296 9.68287 22.5 8.90625 22.5C8.1296 22.5 7.5 23.1296 7.5 23.9062C7.5 24.6829 8.1296 25.3125 8.90625 25.3125ZM8.90625 24.375C9.16513 24.375 9.375 24.1651 9.375 23.9062C9.375 23.6474 9.16513 23.4375 8.90625 23.4375C8.64737 23.4375 8.4375 23.6474 8.4375 23.9062C8.4375 24.1651 8.64737 24.375 8.90625 24.375Z" fill="#818181"/>
<path d="M13.125 12.1875C12.8662 12.1875 12.6562 12.3974 12.6562 12.6562C12.6562 12.9151 12.8662 13.125 13.125 13.125H24.375C24.6338 13.125 24.8438 12.9151 24.8438 12.6562C24.8438 12.3974 24.6338 12.1875 24.375 12.1875H13.125ZM13.125 23.4375C12.8662 23.4375 12.6562 23.6474 12.6562 23.9062C12.6562 24.1651 12.8662 24.375 13.125 24.375H24.375C24.6338 24.375 24.8438 24.1651 24.8438 23.9062C24.8438 23.6474 24.6338 23.4375 24.375 23.4375H13.125ZM12.6562 18.2812C12.6562 18.0224 12.8662 17.8125 13.125 17.8125H24.375C24.6338 17.8125 24.8438 18.0224 24.8438 18.2812C24.8438 18.5401 24.6338 18.75 24.375 18.75H13.125C12.8662 18.75 12.6562 18.5401 12.6562 18.2812Z" fill="#818181"/>
<path fill-rule="evenodd" clip-rule="evenodd" d="M7.03125 2.8125L5.625 1.875V4.6875H4.6875C3.1342 4.6875 1.875 5.9467 1.875 7.5V25.3125C1.875 26.8658 3.1342 28.125 4.6875 28.125H25.3125C26.8658 28.125 28.125 26.8658 28.125 25.3125V7.5C28.125 5.9467 26.8658 4.6875 25.3125 4.6875H24.375V1.875L22.9688 2.8125L22.0312 1.875L21.0938 2.8125L20.1562 1.875L19.2188 2.8125L17.8125 1.875V4.6875H12.1875V1.875L10.7812 2.8125L9.84375 1.875L8.90625 2.8125L7.96875 1.875L7.03125 2.8125ZM11.25 3.62674L10.6618 4.01887L9.84375 3.20082L8.90625 4.13832L7.96875 3.20082L7.15071 4.01887L6.5625 3.62674V7.62326L7.15071 7.23112L7.96875 8.04918L8.90625 7.11168L9.84375 8.04918L10.6618 7.23112L11.25 7.62326V3.62674ZM5.625 5.625V9.375L7.03125 8.4375L7.96875 9.375L8.90625 8.4375L9.84375 9.375L10.7812 8.4375L12.1875 9.375V5.625H17.8125V9.375L19.2188 8.4375L20.1562 9.375L21.0938 8.4375L22.0312 9.375L22.9688 8.4375L24.375 9.375V5.625H25.3125C26.3481 5.625 27.1875 6.46447 27.1875 7.5V25.3125C27.1875 26.3481 26.3481 27.1875 25.3125 27.1875H4.6875C3.65197 27.1875 2.8125 26.3481 2.8125 25.3125V7.5C2.8125 6.46447 3.65197 5.625 4.6875 5.625H5.625ZM23.4375 3.62674L22.8493 4.01887L22.0312 3.20082L21.0938 4.13832L20.1562 3.20082L19.3382 4.01887L18.75 3.62674V7.62326L19.3382 7.23112L20.1562 8.04918L21.0938 7.11168L22.0312 8.04918L22.8493 7.23112L23.4375 7.62326V3.62674Z" fill="#818181"/>
</svg>
