<svg width="30" height="30" viewBox="0 0 30 30" fill="none" xmlns="http://www.w3.org/2000/svg">
<path d="M24.375 16.8749C23.3804 16.8749 22.4266 17.27 21.7234 17.9733C21.0201 18.6765 20.625 19.6303 20.625 20.6249C20.625 23.1562 23.9062 26.0155 24.0703 26.1374C24.1552 26.21 24.2633 26.2499 24.375 26.2499C24.4867 26.2499 24.5948 26.21 24.6797 26.1374C24.8438 26.0155 28.125 23.1562 28.125 20.6249C28.125 19.6303 27.7299 18.6765 27.0266 17.9733C26.3234 17.27 25.3696 16.8749 24.375 16.8749ZM24.375 22.0312C24.0969 22.0312 23.825 21.9487 23.5937 21.7942C23.3625 21.6396 23.1822 21.42 23.0758 21.1631C22.9694 20.9061 22.9415 20.6234 22.9958 20.3506C23.05 20.0778 23.184 19.8272 23.3806 19.6305C23.5773 19.4339 23.8279 19.2999 24.1007 19.2457C24.3734 19.1914 24.6562 19.2193 24.9131 19.3257C25.1701 19.4321 25.3897 19.6124 25.5443 19.8436C25.6988 20.0749 25.7812 20.3468 25.7812 20.6249C25.7812 20.9979 25.6331 21.3556 25.3694 21.6193C25.1056 21.883 24.748 22.0312 24.375 22.0312ZM14.5312 8.43741H12.6562C12.5319 8.43741 12.4127 8.4868 12.3248 8.5747C12.2369 8.66261 12.1875 8.78184 12.1875 8.90616C12.1875 9.03048 12.2369 9.14971 12.3248 9.23762C12.4127 9.32552 12.5319 9.37491 12.6562 9.37491H14.5312C14.6556 9.37491 14.7748 9.32552 14.8627 9.23762C14.9506 9.14971 15 9.03048 15 8.90616C15 8.78184 14.9506 8.66261 14.8627 8.5747C14.7748 8.4868 14.6556 8.43741 14.5312 8.43741ZM18 15.3374C18.0451 15.344 18.0909 15.344 18.1359 15.3374C18.8317 15.1261 19.4444 14.7034 19.8891 14.128C19.9269 14.0794 19.9548 14.0238 19.9712 13.9644C19.9876 13.905 19.9921 13.8429 19.9844 13.7817C19.9768 13.7206 19.9572 13.6615 19.9268 13.608C19.8964 13.5544 19.8557 13.5073 19.807 13.4694C19.7584 13.4316 19.7028 13.4037 19.6434 13.3873C19.584 13.3709 19.5219 13.3664 19.4607 13.3741C19.3996 13.3817 19.3405 13.4013 19.2869 13.4317C19.2334 13.4621 19.1863 13.5028 19.1484 13.5515C18.8225 13.9728 18.3737 14.2824 17.8641 14.4374C17.7397 14.4554 17.6277 14.5221 17.5525 14.6228C17.4774 14.7234 17.4453 14.8498 17.4633 14.9741C17.4813 15.0984 17.548 15.2105 17.6486 15.2857C17.7493 15.3608 17.8757 15.3929 18 15.3749V15.3374ZM10.4156 16.2093C10.5035 16.2966 10.6223 16.3456 10.7461 16.3456C10.8699 16.3456 10.9887 16.2966 11.0766 16.2093C11.4587 15.8297 11.9508 15.5804 12.4828 15.4968C12.6071 15.4763 12.7182 15.4072 12.7916 15.3048C12.865 15.2024 12.8947 15.075 12.8742 14.9507C12.8537 14.8264 12.7846 14.7153 12.6822 14.6419C12.5798 14.5685 12.4524 14.5388 12.3281 14.5593C11.618 14.6815 10.963 15.0205 10.4531 15.5296C10.4045 15.5708 10.3648 15.6214 10.3365 15.6785C10.3081 15.7355 10.2917 15.7978 10.2882 15.8614C10.2846 15.925 10.2941 15.9886 10.3161 16.0485C10.338 16.1083 10.3719 16.163 10.4156 16.2093ZM12.8906 20.6249C12.4455 20.6257 12.0078 20.511 11.6203 20.2921C11.5668 20.2613 11.5077 20.2414 11.4464 20.2334C11.3852 20.2255 11.3229 20.2297 11.2633 20.2458C11.2037 20.2619 11.1478 20.2896 11.0989 20.3273C11.0499 20.365 11.0089 20.412 10.9781 20.4655C10.9473 20.5191 10.9274 20.5782 10.9195 20.6394C10.9115 20.7007 10.9157 20.7629 10.9318 20.8225C10.9479 20.8822 10.9756 20.9381 11.0133 20.987C11.051 21.0359 11.098 21.0769 11.1516 21.1077C11.6792 21.4119 12.2769 21.5735 12.8859 21.5765H13.1906C13.3149 21.5765 13.4342 21.5271 13.5221 21.4392C13.61 21.3513 13.6594 21.232 13.6594 21.1077C13.6594 20.9834 13.61 20.8642 13.5221 20.7763C13.4342 20.6884 13.3149 20.639 13.1906 20.639L12.8906 20.6249ZM18.2531 9.59522C18.3627 9.59661 18.4694 9.55953 18.5545 9.49044C18.6396 9.42136 18.6978 9.32462 18.719 9.21706C18.7402 9.10951 18.723 8.99793 18.6704 8.90173C18.6178 8.80554 18.5332 8.73081 18.4312 8.69054C18.0112 8.52136 17.5622 8.43539 17.1094 8.43741H16.4062C16.2819 8.43741 16.1627 8.4868 16.0748 8.5747C15.9869 8.66261 15.9375 8.78184 15.9375 8.90616C15.9375 9.03048 15.9869 9.14971 16.0748 9.23762C16.1627 9.32552 16.2819 9.37491 16.4062 9.37491H17.1094C17.4403 9.3745 17.7682 9.43818 18.075 9.56241C18.1317 9.58482 18.1922 9.59597 18.2531 9.59522ZM13.7953 14.9999C13.7953 15.1242 13.8447 15.2435 13.9326 15.3314C14.0205 15.4193 14.1397 15.4687 14.2641 15.4687H16.1391C16.2634 15.4687 16.3826 15.4193 16.4705 15.3314C16.5584 15.2435 16.6078 15.1242 16.6078 14.9999C16.6078 14.8756 16.5584 14.7564 16.4705 14.6685C16.3826 14.5805 16.2634 14.5312 16.1391 14.5312H14.2641C14.1397 14.5312 14.0205 14.5805 13.9326 14.6685C13.8447 14.7564 13.7953 14.8756 13.7953 14.9999ZM20.1562 12.5577C20.2806 12.5577 20.3998 12.5083 20.4877 12.4204C20.5756 12.3325 20.625 12.2133 20.625 12.089V11.9343C20.6263 11.2594 20.4326 10.5985 20.0672 10.0312C19.997 9.93377 19.8922 9.86701 19.7743 9.84462C19.6563 9.82224 19.5343 9.84594 19.4334 9.91085C19.3324 9.97575 19.2602 10.0769 19.2316 10.1935C19.203 10.3101 19.2202 10.4332 19.2797 10.5374C19.5492 10.9567 19.6909 11.4453 19.6875 11.9437V12.0608C19.6875 12.1852 19.7369 12.3044 19.8248 12.3923C19.9127 12.4802 20.0319 12.5296 20.1562 12.5296V12.5577ZM9.97031 17.053C9.90968 17.0422 9.84751 17.0435 9.78735 17.0567C9.7272 17.07 9.67025 17.0949 9.61975 17.1302C9.56926 17.1655 9.5262 17.2103 9.49305 17.2622C9.45991 17.3141 9.43731 17.3721 9.42656 17.4327C9.30108 18.148 9.39929 18.8846 9.70781 19.5421C9.73323 19.599 9.76974 19.6502 9.81518 19.6928C9.86063 19.7354 9.91412 19.7685 9.97252 19.7902C10.0309 19.8119 10.093 19.8218 10.1553 19.8192C10.2175 19.8166 10.2786 19.8016 10.335 19.7751C10.3914 19.7486 10.4419 19.7112 10.4837 19.6649C10.5254 19.6187 10.5575 19.5646 10.5781 19.5058C10.5987 19.447 10.6074 19.3847 10.6037 19.3225C10.5999 19.2603 10.5838 19.1995 10.5563 19.1437C10.3305 18.6614 10.2585 18.1214 10.35 17.5968C10.3608 17.5361 10.3595 17.474 10.3463 17.4138C10.3331 17.3537 10.3081 17.2967 10.2728 17.2462C10.2376 17.1957 10.1927 17.1527 10.1408 17.1195C10.0889 17.0864 10.031 17.0638 9.97031 17.053ZM16.9406 20.6249H15.0656C14.9413 20.6249 14.8221 20.6743 14.7342 20.7622C14.6463 20.8501 14.5969 20.9693 14.5969 21.0937C14.5969 21.218 14.6463 21.3372 14.7342 21.4251C14.8221 21.513 14.9413 21.5624 15.0656 21.5624H16.9406C17.0649 21.5624 17.1842 21.513 17.2721 21.4251C17.36 21.3372 17.4094 21.218 17.4094 21.0937C17.4094 20.9693 17.36 20.8501 17.2721 20.7622C17.1842 20.6743 17.0649 20.6249 16.9406 20.6249ZM6.5625 8.37179L10.7812 6.02803L6.79219 3.81085C6.72093 3.76971 6.64009 3.74805 6.55781 3.74805C6.47553 3.74805 6.3947 3.76971 6.32344 3.81085L2.34375 6.02803L6.5625 8.37179ZM7.03125 13.8702L11.0109 11.6624C11.0274 11.651 11.0431 11.6385 11.0578 11.6249C11.0851 11.6058 11.1102 11.5838 11.1328 11.5593C11.1684 11.513 11.1983 11.4627 11.2219 11.4093C11.225 11.3781 11.225 11.3467 11.2219 11.3155C11.233 11.2945 11.2424 11.2725 11.25 11.2499V6.83897L7.03125 9.18272V13.8702ZM1.90781 11.4046C1.93133 11.458 1.96123 11.5084 1.99688 11.5546C2.01947 11.5791 2.04461 11.6011 2.07187 11.6202C2.08663 11.6338 2.10229 11.6463 2.11875 11.6577L6.09375 13.8702V9.18272L1.875 6.83897V11.2499C1.87359 11.2702 1.87359 11.2906 1.875 11.3108C1.88259 11.3432 1.89359 11.3746 1.90781 11.4046Z" fill="#818181"/>
</svg>
