<svg width="48" height="15" viewBox="0 0 48 15" fill="none" xmlns="http://www.w3.org/2000/svg">
<path fill-rule="evenodd" clip-rule="evenodd" d="M30.9062 5.93675C29.5938 5.3015 28.7852 4.865 28.7913 4.22C28.7995 3.5765 29.4737 3.0275 30.9505 3.0275C31.9202 3.00125 32.884 3.18275 33.7773 3.56075L34.123 3.716L34.633 0.715999C33.5485 0.323749 32.4032 0.130249 31.252 0.139999C27.502 0.139999 24.883 2.015 24.862 4.715C24.862 6.7025 26.737 7.82075 28.1702 8.46575C29.6028 9.11 30.1562 9.58175 30.1562 10.1907C30.1562 11.12 28.9788 11.5475 27.9062 11.5475C26.6785 11.5767 25.4627 11.3187 24.3528 10.7975L23.863 10.5717L23.3298 13.6775C24.6805 14.1815 26.1077 14.4335 27.5462 14.4275C31.513 14.4275 34.0938 12.5667 34.123 9.68675C34.117 8.12825 33.112 6.9275 30.9062 5.93675ZM39.6895 9.32075C40.003 8.52425 41.1895 5.44175 41.1895 5.44175C41.1895 5.44175 41.503 4.6475 41.6905 4.12325L41.9538 5.31575L42.8245 9.32075H39.6895ZM44.3477 0.379249H41.4062C40.5595 0.271249 39.748 0.745249 39.4255 1.5335L33.8387 14.24H37.8055C37.8055 14.24 38.4505 12.5292 38.6027 12.1542H43.4395C43.5505 12.6342 43.8962 14.225 43.8962 14.225H47.4062L44.3477 0.379249ZM19.5273 0.379249L17.1663 14.2542H20.9163L23.2863 0.379249H19.5273ZM13.993 0.379249L10.2902 9.83675L9.90625 8.4125C8.6995 6.06275 6.886 4.07975 4.65625 2.6675L8.04025 14.225H12.0363L17.992 0.379249H13.993ZM9.73375 7.499L8.46475 1.36925C8.28325 0.631249 7.5715 0.145249 6.8155 0.244249H0.9505L0.90625 0.537499C5.46475 1.63325 8.48275 4.2875 9.73375 7.499Z" fill="#273991"/>
<path fill-rule="evenodd" clip-rule="evenodd" d="M8.46475 1.36922C8.28325 0.63122 7.5715 0.14522 6.8155 0.24422H0.9505L0.90625 0.53747C5.46475 1.63922 8.48275 4.28747 9.73375 7.50422L8.46475 1.36922Z" fill="#F99F1B"/>
</svg>
