<svg width="38" height="34" viewBox="0 0 38 34" fill="none" xmlns="http://www.w3.org/2000/svg">
<rect width="38" height="34" rx="8" fill="#008FD5" fill-opacity="0.05"/>
<path d="M18.9998 24.2524C18.4033 24.2518 17.8314 24.0144 17.4098 23.5924L12.4523 18.6424C11.6583 17.8676 11.1038 16.8808 10.8552 15.7997C10.6065 14.7185 10.6741 13.5887 11.0498 12.5449C11.2807 11.8309 11.7051 11.195 12.2757 10.7077C12.8464 10.2205 13.541 9.90103 14.2823 9.78487C15.2029 9.71625 16.1252 9.89408 16.9544 10.3001C17.7835 10.7061 18.4895 11.3256 18.9998 12.0949C19.5026 11.3216 20.205 10.6987 21.0329 10.2921C21.8607 9.88543 22.783 9.71018 23.7023 9.78487C24.4463 9.89845 25.1441 10.2167 25.7176 10.7042C26.2911 11.1916 26.7178 11.8289 26.9498 12.5449C27.3256 13.5887 27.3932 14.7185 27.1445 15.7997C26.8958 16.8808 26.3414 17.8676 25.5473 18.6424L20.5898 23.5924C20.1683 24.0144 19.5964 24.2518 18.9998 24.2524ZM14.8298 11.2474C14.7149 11.2397 14.5997 11.2397 14.4848 11.2474C14.0089 11.3321 13.5663 11.5484 13.207 11.8719C12.8478 12.1953 12.5863 12.6129 12.4523 13.0774C12.1768 13.8502 12.1307 14.6863 12.3197 15.4848C12.5087 16.2832 12.9246 17.01 13.5173 17.5774L18.4673 22.5349C18.537 22.6052 18.62 22.661 18.7114 22.699C18.8028 22.7371 18.9008 22.7567 18.9998 22.7567C19.0988 22.7567 19.1969 22.7371 19.2883 22.699C19.3796 22.661 19.4626 22.6052 19.5323 22.5349L24.4823 17.5774C25.0751 17.01 25.491 16.2832 25.68 15.4848C25.8689 14.6863 25.8229 13.8502 25.5473 13.0774C25.4086 12.6151 25.1433 12.2009 24.7815 11.8815C24.4197 11.5621 23.9757 11.3502 23.4998 11.2699C22.8434 11.2357 22.1898 11.3768 21.6059 11.6786C21.0221 11.9804 20.529 12.4321 20.1773 12.9874C20.0373 13.1708 19.8569 13.3195 19.6501 13.4219C19.4432 13.5242 19.2156 13.5775 18.9848 13.5775C18.7541 13.5775 18.5264 13.5242 18.3196 13.4219C18.1127 13.3195 17.9323 13.1708 17.7923 12.9874C17.4663 12.4884 17.0291 12.0717 16.5152 11.7698C16.0012 11.468 15.4244 11.2892 14.8298 11.2474Z" fill="#008FD5"/>
</svg>
