<svg width="30" height="30" viewBox="0 0 30 30" fill="none" xmlns="http://www.w3.org/2000/svg">
<path d="M15 27.0873C14.0058 27.0864 13.0526 26.6907 12.35 25.9873L4.0875 17.7373C2.76408 16.4461 1.84003 14.8014 1.42556 12.9995C1.0111 11.1976 1.12372 9.31446 1.75 7.57478C2.13484 6.38485 2.84212 5.32495 3.79321 4.51288C4.7443 3.70081 5.90196 3.16838 7.1375 2.97478C8.67188 2.86042 10.209 3.1568 11.5909 3.83345C12.9728 4.51011 14.1495 5.5426 15 6.82478C15.8379 5.53606 17.0087 4.49788 18.3884 3.82013C19.7681 3.14238 21.3054 2.85029 22.8375 2.97478C24.0775 3.16409 25.2405 3.69457 26.1963 4.50693C27.1522 5.31928 27.8632 6.38148 28.25 7.57478C28.8763 9.31446 28.9889 11.1976 28.5744 12.9995C28.16 14.8014 27.2359 16.4461 25.9125 17.7373L17.65 25.9873C16.9474 26.6907 15.9942 27.0864 15 27.0873ZM8.05 5.41228C7.85855 5.39945 7.66645 5.39945 7.475 5.41228C6.68183 5.5535 5.94407 5.91408 5.34535 6.45315C4.74663 6.99222 4.31088 7.68822 4.0875 8.46228C3.62826 9.7504 3.55149 11.1439 3.86644 12.4746C4.18139 13.8054 4.87461 15.0167 5.8625 15.9623L14.1125 24.2248C14.2287 24.3419 14.367 24.4349 14.5193 24.4984C14.6716 24.5619 14.835 24.5945 15 24.5945C15.165 24.5945 15.3284 24.5619 15.4807 24.4984C15.633 24.4349 15.7713 24.3419 15.8875 24.2248L24.1375 15.9623C25.1254 15.0167 25.8186 13.8054 26.1336 12.4746C26.4485 11.1439 26.3717 9.7504 25.9125 8.46228C25.6812 7.69186 25.2391 7.00146 24.6361 6.46912C24.0331 5.93677 23.2932 5.5837 22.5 5.44978C21.406 5.39286 20.3166 5.62797 19.3435 6.131C18.3704 6.63403 17.5486 7.38686 16.9625 8.31228C16.7292 8.61805 16.4285 8.86586 16.0838 9.03644C15.739 9.20702 15.3596 9.29576 14.975 9.29576C14.5904 9.29576 14.211 9.20702 13.8662 9.03644C13.5215 8.86586 13.2208 8.61805 12.9875 8.31228C12.4441 7.48071 11.7155 6.78618 10.8589 6.28308C10.0024 5.77997 9.04096 5.48193 8.05 5.41228Z" fill="#818181"/>
</svg>
